<svg width="16" height="16" viewBox="0 0 16 16" fill="none" xmlns="http://www.w3.org/2000/svg">
<g clip-path="url(#clip0_0_218)">
<path d="M8.16699 6.875C8.78809 6.875 9.29199 7.37891 9.29199 8C9.29199 8.62109 8.78809 9.125 8.16699 9.125C7.5459 9.125 7.04199 8.62109 7.04199 8C7.04199 7.37891 7.5459 6.875 8.16699 6.875ZM7.04199 4.4375C7.04199 5.05859 7.5459 5.5625 8.16699 5.5625C8.78809 5.5625 9.29199 5.05859 9.29199 4.4375C9.29199 3.81641 8.78809 3.3125 8.16699 3.3125C7.5459 3.3125 7.04199 3.81641 7.04199 4.4375ZM7.04199 11.5625C7.04199 12.1836 7.5459 12.6875 8.16699 12.6875C8.78809 12.6875 9.29199 12.1836 9.29199 11.5625C9.29199 10.9414 8.78809 10.4375 8.16699 10.4375C7.5459 10.4375 7.04199 10.9414 7.04199 11.5625Z" fill="white"/>
</g>
<defs>
<clipPath id="clip0_0_218">
<rect width="3" height="12" fill="white" transform="translate(6.66699 2)"/>
</clipPath>
</defs>
</svg>
