<svg width="44" height="44" viewBox="0 0 44 44" fill="none" xmlns="http://www.w3.org/2000/svg">
<rect width="40" height="40" rx="4" fill="#E6C7F9"/>
<rect x="8" y="8" width="24" height="24" rx="7" stroke="#9C5DC1" stroke-width="0.75" stroke-linejoin="round"/>
<mask id="path-3-inside-1_40_14936" fill="white">
<path fill-rule="evenodd" clip-rule="evenodd" d="M23 30.5859C22.0463 30.8557 21.04 31 20 31C18.96 31 17.9537 30.8557 17 30.5859V21C17.6667 20.6667 19 20 19 18C19 16 18 14 16.5 14C15 14 14 16 14 18C14 20 15.3333 20.6667 16 21V30.2501C11.9026 28.65 9 24.664 9 20C9 13.9249 13.9249 9 20 9C26.0751 9 31 13.9249 31 20C31 24.664 28.0974 28.65 24 30.2501V21C24.6667 20.6667 25.5 20 25.5 18C25.5 16 24.5 14 24.5 14V18H24L23.5 14L23 18H22.5V14C22.5 14 21.5 16 21.5 18C21.5 20 22.3333 20.6667 23 21V30.5859Z"/>
</mask>
<path d="M23 30.5859L23.2041 31.3076C23.5271 31.2163 23.75 30.9215 23.75 30.5859H23ZM17 30.5859H16.25C16.25 30.9215 16.4729 31.2163 16.7959 31.3076L17 30.5859ZM17 21L16.6646 20.3292C16.4105 20.4562 16.25 20.7159 16.25 21H17ZM16 21H16.75C16.75 20.7159 16.5895 20.4562 16.3354 20.3292L16 21ZM16 30.2501L15.7272 30.9487C15.958 31.0389 16.2184 31.0092 16.423 30.8694C16.6276 30.7297 16.75 30.4979 16.75 30.2501H16ZM24 30.2501H23.25C23.25 30.4979 23.3724 30.7297 23.577 30.8694C23.7816 31.0092 24.042 31.0389 24.2728 30.9487L24 30.2501ZM24 21L23.6646 20.3292C23.4105 20.4562 23.25 20.7159 23.25 21H24ZM24.5 14L25.1708 13.6646C25.0153 13.3535 24.6662 13.1901 24.3277 13.2701C23.9892 13.35 23.75 13.6522 23.75 14H24.5ZM24.5 18V18.75C24.9142 18.75 25.25 18.4142 25.25 18H24.5ZM24 18L23.2558 18.093C23.3027 18.4683 23.6218 18.75 24 18.75V18ZM23.5 14L24.2442 13.907C24.1973 13.5317 23.8782 13.25 23.5 13.25C23.1218 13.25 22.8027 13.5317 22.7558 13.907L23.5 14ZM23 18V18.75C23.3782 18.75 23.6973 18.4683 23.7442 18.093L23 18ZM22.5 18H21.75C21.75 18.4142 22.0858 18.75 22.5 18.75V18ZM22.5 14H23.25C23.25 13.6522 23.0108 13.35 22.6723 13.2701C22.3338 13.1901 21.9847 13.3535 21.8292 13.6646L22.5 14ZM23 21H23.75C23.75 20.7159 23.5895 20.4562 23.3354 20.3292L23 21ZM20 31.75C21.1097 31.75 22.1847 31.596 23.2041 31.3076L22.7959 29.8642C21.908 30.1154 20.9703 30.25 20 30.25V31.75ZM16.7959 31.3076C17.8153 31.596 18.8903 31.75 20 31.75V30.25C19.0297 30.25 18.092 30.1154 17.2041 29.8642L16.7959 31.3076ZM16.25 21V30.5859H17.75V21H16.25ZM18.25 18C18.25 18.8121 17.9871 19.2992 17.695 19.6205C17.3824 19.9644 16.9995 20.1617 16.6646 20.3292L17.3354 21.6708C17.6672 21.5049 18.2842 21.2023 18.805 20.6295C19.3462 20.0341 19.75 19.1879 19.75 18H18.25ZM16.5 14.75C16.8769 14.75 17.2976 14.9987 17.6647 15.6279C18.0257 16.2467 18.25 17.1124 18.25 18H19.75C19.75 16.8876 19.4743 15.7533 18.9603 14.8721C18.4524 14.0013 17.6231 13.25 16.5 13.25V14.75ZM14.75 18C14.75 17.1124 14.9743 16.2467 15.3353 15.6279C15.7024 14.9987 16.1231 14.75 16.5 14.75V13.25C15.3769 13.25 14.5476 14.0013 14.0397 14.8721C13.5257 15.7533 13.25 16.8876 13.25 18H14.75ZM16.3354 20.3292C16.0005 20.1617 15.6176 19.9644 15.305 19.6205C15.0129 19.2992 14.75 18.8121 14.75 18H13.25C13.25 19.1879 13.6538 20.0341 14.195 20.6295C14.7158 21.2023 15.3328 21.5049 15.6646 21.6708L16.3354 20.3292ZM16.75 30.2501V21H15.25V30.2501H16.75ZM8.25 20C8.25 24.9831 11.3517 29.24 15.7272 30.9487L16.2728 29.5515C12.4536 28.06 9.75 24.3448 9.75 20H8.25ZM20 8.25C13.5107 8.25 8.25 13.5107 8.25 20H9.75C9.75 14.3391 14.3391 9.75 20 9.75V8.25ZM31.75 20C31.75 13.5107 26.4893 8.25 20 8.25V9.75C25.6609 9.75 30.25 14.3391 30.25 20H31.75ZM24.2728 30.9487C28.6483 29.24 31.75 24.9831 31.75 20H30.25C30.25 24.3448 27.5464 28.06 23.7272 29.5515L24.2728 30.9487ZM24.75 30.2501V21H23.25V30.2501H24.75ZM24.3354 21.6708C24.7418 21.4676 25.2436 21.1391 25.6327 20.5277C26.0193 19.9202 26.25 19.1041 26.25 18H24.75C24.75 18.8959 24.564 19.4132 24.3673 19.7223C24.173 20.0275 23.9249 20.199 23.6646 20.3292L24.3354 21.6708ZM26.25 18C26.25 16.8866 25.974 15.8003 25.7115 15.0128C25.5788 14.6146 25.446 14.2825 25.3456 14.0483C25.2954 13.931 25.253 13.8379 25.2226 13.7727C25.2074 13.7401 25.1951 13.7144 25.1863 13.6963C25.182 13.6872 25.1784 13.68 25.1758 13.6747C25.1745 13.672 25.1734 13.6698 25.1726 13.6682C25.1722 13.6673 25.1718 13.6666 25.1715 13.666C25.1714 13.6657 25.1712 13.6654 25.1711 13.6652C25.1711 13.6651 25.171 13.6649 25.171 13.6649C25.1709 13.6647 25.1708 13.6646 24.5 14C23.8292 14.3354 23.8291 14.3353 23.8291 14.3352C23.829 14.3351 23.829 14.335 23.829 14.335C23.8289 14.3349 23.8289 14.3348 23.8288 14.3347C23.8288 14.3346 23.8288 14.3346 23.8288 14.3347C23.829 14.335 23.8293 14.3357 23.8299 14.3369C23.8311 14.3393 23.8332 14.3436 23.8361 14.3496C23.842 14.3617 23.8512 14.381 23.8633 14.407C23.8876 14.459 23.9234 14.5377 23.9669 14.6392C24.054 14.8425 24.1712 15.1354 24.2885 15.4872C24.526 16.1997 24.75 17.1134 24.75 18H26.25ZM23.75 14V18H25.25V14H23.75ZM24.5 17.25H24V18.75H24.5V17.25ZM24.7442 17.907L24.2442 13.907L22.7558 14.093L23.2558 18.093L24.7442 17.907ZM22.7558 13.907L22.2558 17.907L23.7442 18.093L24.2442 14.093L22.7558 13.907ZM23 17.25H22.5V18.75H23V17.25ZM23.25 18V14H21.75V18H23.25ZM22.5 14C21.8292 13.6646 21.8291 13.6647 21.829 13.6649C21.829 13.6649 21.8289 13.6651 21.8289 13.6652C21.8288 13.6654 21.8286 13.6657 21.8285 13.666C21.8282 13.6666 21.8278 13.6673 21.8274 13.6682C21.8266 13.6698 21.8255 13.672 21.8242 13.6747C21.8216 13.68 21.818 13.6872 21.8137 13.6963C21.8049 13.7144 21.7926 13.7401 21.7774 13.7727C21.747 13.8379 21.7046 13.931 21.6544 14.0483C21.554 14.2825 21.4212 14.6146 21.2885 15.0128C21.026 15.8003 20.75 16.8866 20.75 18H22.25C22.25 17.1134 22.474 16.1997 22.7115 15.4872C22.8288 15.1354 22.946 14.8425 23.0331 14.6392C23.0766 14.5377 23.1124 14.459 23.1367 14.407C23.1488 14.381 23.158 14.3617 23.1639 14.3496C23.1668 14.3436 23.1689 14.3393 23.1701 14.3369C23.1707 14.3357 23.171 14.335 23.1712 14.3347C23.1712 14.3346 23.1712 14.3346 23.1712 14.3347C23.1711 14.3348 23.1711 14.3349 23.171 14.335C23.171 14.335 23.171 14.3351 23.1709 14.3352C23.1709 14.3353 23.1708 14.3354 22.5 14ZM20.75 18C20.75 19.1041 20.9807 19.9202 21.3673 20.5277C21.7564 21.1391 22.2582 21.4676 22.6646 21.6708L23.3354 20.3292C23.0751 20.199 22.827 20.0275 22.6327 19.7223C22.436 19.4132 22.25 18.8959 22.25 18H20.75ZM22.25 21V30.5859H23.75V21H22.25Z" fill="#9C5DC1" mask="url(#path-3-inside-1_40_14936)"/>
<circle cx="38.5" cy="38.5" r="5.5" fill="#2B3031"/>
<path d="M36 38.5C36.8333 39.3333 38 40.5 38 40.5L41.5 37" stroke="white"/>
</svg>
