<svg width="24" height="24" viewBox="0 0 24 24" fill="none" xmlns="http://www.w3.org/2000/svg">
<path d="M16 14.2499C16 14.4488 15.921 14.6395 15.7803 14.7802C15.6397 14.9208 15.4489 14.9999 15.25 14.9999H9.25C9.05109 14.9999 8.86032 14.9208 8.71967 14.7802C8.57902 14.6395 8.5 14.4488 8.5 14.2499C8.5 14.051 8.57902 13.8602 8.71967 13.7195C8.86032 13.5789 9.05109 13.4999 9.25 13.4999H15.25C15.4489 13.4999 15.6397 13.5789 15.7803 13.7195C15.921 13.8602 16 14.051 16 14.2499ZM15.25 10.4999H9.25C9.05109 10.4999 8.86032 10.5789 8.71967 10.7195C8.57902 10.8602 8.5 11.051 8.5 11.2499C8.5 11.4488 8.57902 11.6395 8.71967 11.7802C8.86032 11.9208 9.05109 11.9999 9.25 11.9999H15.25C15.4489 11.9999 15.6397 11.9208 15.7803 11.7802C15.921 11.6395 16 11.4488 16 11.2499C16 11.051 15.921 10.8602 15.7803 10.7195C15.6397 10.5789 15.4489 10.4999 15.25 10.4999ZM20.5 4.49986V20.2499C20.5 20.6477 20.342 21.0292 20.0607 21.3105C19.7794 21.5918 19.3978 21.7499 19 21.7499H5.5C5.10218 21.7499 4.72064 21.5918 4.43934 21.3105C4.15804 21.0292 4 20.6477 4 20.2499V4.49986C4 4.10204 4.15804 3.72051 4.43934 3.4392C4.72064 3.1579 5.10218 2.99986 5.5 2.99986H8.89937C9.32079 2.52804 9.83709 2.15054 10.4145 1.89207C10.9919 1.63361 11.6174 1.5 12.25 1.5C12.8826 1.5 13.5081 1.63361 14.0855 1.89207C14.6629 2.15054 15.1792 2.52804 15.6006 2.99986H19C19.3978 2.99986 19.7794 3.1579 20.0607 3.4392C20.342 3.72051 20.5 4.10204 20.5 4.49986ZM9.25 5.99986H15.25C15.25 5.20421 14.9339 4.44115 14.3713 3.87854C13.8087 3.31593 13.0456 2.99986 12.25 2.99986C11.4544 2.99986 10.6913 3.31593 10.1287 3.87854C9.56607 4.44115 9.25 5.20421 9.25 5.99986ZM19 4.49986H16.4922C16.6628 4.98157 16.75 5.48884 16.75 5.99986V6.74986C16.75 6.94878 16.671 7.13954 16.5303 7.28019C16.3897 7.42085 16.1989 7.49986 16 7.49986H8.5C8.30109 7.49986 8.11032 7.42085 7.96967 7.28019C7.82902 7.13954 7.75 6.94878 7.75 6.74986V5.99986C7.75002 5.48884 7.83721 4.98157 8.00781 4.49986H5.5V20.2499H19V4.49986Z" fill="white" stroke="white" stroke-width="0.26"/>
</svg>
