<svg width="24" height="25" viewBox="0 0 24 25" fill="none" xmlns="http://www.w3.org/2000/svg">
<path d="M21.9199 11.8688C19.8999 7.07016 16.0999 4.09277 11.9999 4.09277C7.89994 4.09277 4.09994 7.07016 2.07994 11.8688C2.02488 11.9978 1.99646 12.1372 1.99646 12.278C1.99646 12.4189 2.02488 12.5582 2.07994 12.6873C4.09994 17.4859 7.89994 20.4633 11.9999 20.4633C16.0999 20.4633 19.8999 17.4859 21.9199 12.6873C21.975 12.5582 22.0034 12.4189 22.0034 12.278C22.0034 12.1372 21.975 11.9978 21.9199 11.8688ZM11.9999 18.417C8.81994 18.417 5.82994 16.0739 4.09994 12.278C5.82994 8.48211 8.81994 6.13909 11.9999 6.13909C15.1799 6.13909 18.1699 8.48211 19.8999 12.278C18.1699 16.0739 15.1799 18.417 11.9999 18.417ZM11.9999 8.1854C11.2088 8.1854 10.4355 8.42543 9.77766 8.87513C9.11987 9.32483 8.60718 9.96401 8.30443 10.7118C8.00168 11.4597 7.92246 12.2826 8.0768 13.0765C8.23114 13.8703 8.61211 14.5996 9.17152 15.1719C9.73093 15.7443 10.4437 16.1341 11.2196 16.292C11.9955 16.4499 12.7998 16.3689 13.5307 16.0591C14.2616 15.7494 14.8863 15.2248 15.3258 14.5518C15.7653 13.8787 15.9999 13.0875 15.9999 12.278C15.9999 11.1926 15.5785 10.1516 14.8284 9.3841C14.0782 8.61658 13.0608 8.1854 11.9999 8.1854ZM11.9999 14.3243C11.6044 14.3243 11.2177 14.2043 10.8888 13.9795C10.5599 13.7546 10.3036 13.435 10.1522 13.0611C10.0008 12.6872 9.9612 12.2758 10.0384 11.8788C10.1155 11.4819 10.306 11.1172 10.5857 10.8311C10.8654 10.5449 11.2218 10.35 11.6098 10.271C11.9977 10.1921 12.3999 10.2326 12.7653 10.3875C13.1308 10.5424 13.4431 10.8046 13.6629 11.1412C13.8826 11.4777 13.9999 11.8733 13.9999 12.278C13.9999 12.8207 13.7892 13.3412 13.4142 13.725C13.0391 14.1087 12.5304 14.3243 11.9999 14.3243Z" fill="#4D8F92"/>
</svg>
