<svg width="19" height="23" viewBox="0 0 19 23" fill="none" xmlns="http://www.w3.org/2000/svg">
<mask id="mask0_68_19397" style="mask-type:alpha" maskUnits="userSpaceOnUse" x="-3" y="-2" width="25" height="25">
<circle cx="9.43642" cy="10.847" r="12.153" fill="#D9D9D9"/>
</mask>
<g mask="url(#mask0_68_19397)">
<path d="M7.37786 11.1227L5.33372 6.91053C5.26226 6.76328 5.13608 6.64799 4.98341 6.58898C4.8156 6.52411 4.6265 6.53233 4.46559 6.61279C4.26717 6.712 4.13447 6.90687 4.11948 7.12819C4.08047 7.70395 4.01858 8.88513 4.07483 9.96986C4.10964 10.6413 4.07871 10.1843 4.1502 11.5426C4.1666 11.8543 4.17691 12.3901 4.07871 12.6864C3.92507 13.15 3.68496 13.339 3.43532 13.7587C2.68085 15.0273 1.592 16.9445 1.3428 17.3841C1.30771 17.446 1.27304 17.5065 1.23817 17.5685C1.06592 17.8748 0.516134 18.8801 0.289835 19.6208C0.139417 20.1131 0.0346427 20.3937 0.00388205 20.9076C-0.0250448 21.3908 0.116314 22.1157 0.142682 22.2456C0.145439 22.2591 0.148055 22.2727 0.150448 22.2863C0.249833 22.8532 0.742139 23.2667 1.31765 23.2667H1.50485C2.291 23.2667 2.92484 22.6229 2.91256 21.8368L2.87458 19.4066C2.86722 18.9351 2.95942 18.4674 3.14517 18.034C3.51251 17.1769 4.22034 16.5115 5.09854 16.1979L7.34708 15.3948C8.17367 15.0996 8.72544 14.3166 8.72544 13.4389V13.3635C8.72544 12.7573 8.44001 12.1864 7.95502 11.8226C7.70964 11.6386 7.51177 11.3986 7.37786 11.1227Z" fill="black"/>
<path d="M12.7276 8.90165L13.3111 6.85946C13.3914 6.5784 13.6326 6.37307 13.9229 6.33868C14.3762 6.28497 14.7657 6.65848 14.7294 7.11353C14.7064 7.40219 14.681 7.71394 14.659 7.96819C14.6031 8.61333 14.48 8.96584 14.4445 9.61242C14.4185 10.0863 14.3953 10.3557 14.4445 10.8277C14.4754 11.1235 14.5672 11.5274 14.6202 11.7453C14.6453 11.8488 14.6715 11.9516 14.6988 12.0545C14.7608 12.2883 14.8869 12.7373 15.0164 13.0439C15.369 13.8784 15.8096 14.2144 16.3032 14.974C16.6998 15.5845 16.9905 15.9289 17.3755 16.5468C17.6009 16.9085 17.59 16.9042 17.9474 17.4046C17.9764 17.4452 18.0043 17.4885 18.0309 17.533C18.2519 17.9036 18.3764 18.3314 18.3764 18.7629C18.3764 19.0421 18.3764 19.2633 18.1619 20.1212C17.9474 20.979 17.9144 20.9388 17.8759 21.4795C17.8402 21.9815 17.855 22.2715 17.9474 22.7663C18.0212 23.1612 17.7482 23.5526 17.3463 23.5526H17.1803C16.7789 23.5526 16.4573 23.2201 16.4706 22.8189L16.5549 20.2906C16.5772 19.623 16.3871 18.9656 16.012 18.4128L15.7878 18.0823C15.4211 17.542 14.9384 17.0905 14.3749 16.7606L12.558 15.697C12.3862 15.5965 12.2236 15.4811 12.072 15.3523L11.858 15.1704C11.2313 14.6377 10.8701 13.8566 10.8701 13.0341C10.8701 12.5259 11.0082 12.0273 11.2696 11.5916L12.3202 9.84057C12.4965 9.54676 12.6335 9.2311 12.7276 8.90165Z" fill="black"/>
<path d="M13.5112 6.96701C13.4581 7.63129 13.3654 8.2857 13.2149 8.89719C12.9605 9.93088 12.5407 10.8419 11.867 11.4708C11.637 11.6855 11.429 11.8873 11.2236 12.0684C10.9939 12.2709 10.7673 12.4477 10.5163 12.5878C9.94387 12.9073 9.23903 12.8417 8.65002 12.5539C8.00559 12.239 7.44392 11.7987 6.86282 11.2563C6.29558 10.7269 5.92838 10.0774 5.67656 9.30797C5.45234 8.62281 5.3196 7.84249 5.21859 6.96701C5.21859 6.87114 5.22021 6.7758 5.22343 6.68106C5.32891 3.57636 7.14277 1.10498 9.3649 1.10498C11.5528 1.10498 13.3449 3.50083 13.5003 6.53808C13.5075 6.67972 13.5112 6.82276 13.5112 6.96701Z" fill="#DBAE7F"/>
<path d="M5.21859 6.96701C5.21859 6.87114 5.22021 6.7758 5.22343 6.68106C5.22343 6.68106 5.01294 6.60075 4.93263 6.68106C4.64668 6.96701 4.66521 7.14177 4.64668 7.25296C4.61699 7.43109 4.59535 7.89451 4.64668 8.2538C4.6917 8.56891 4.75904 8.73384 4.86115 9.04017C4.93262 9.25458 5.147 9.39754 5.1471 9.39761C5.14709 9.39761 5.1471 9.39761 5.1471 9.39761C5.1472 9.39768 5.36161 9.54057 5.57603 9.4691C5.64639 9.44564 5.67656 9.30797 5.67656 9.30797C5.45234 8.62281 5.3196 7.84249 5.21859 6.96701Z" fill="#DBAE7F"/>
<path d="M13.5003 6.53808C13.5075 6.67972 13.5112 6.82276 13.5112 6.96701C13.4581 7.63129 13.3654 8.2857 13.2149 8.89719C13.2149 8.89719 13.3728 9.02386 13.5112 9.04017C13.8144 9.07588 14.0685 8.80678 14.2568 8.56647C14.3324 8.46986 14.4023 8.36126 14.4406 8.2538C14.5626 7.91085 14.4681 7.50705 14.3691 7.18147L14.3659 7.17106C14.2435 6.76853 14.1516 6.46598 13.7972 6.3951C13.671 6.36987 13.5003 6.53808 13.5003 6.53808Z" fill="#DBAE7F"/>
<path d="M10.5163 12.5878C9.94387 12.9073 9.23903 12.8417 8.65002 12.5539C8.65002 12.5539 8.84859 13.3728 8.65002 13.8299C8.58515 13.9792 8.52831 14.0535 8.43555 14.1873C7.81598 15.0809 7.14876 15.2596 6.00495 15.6171C4.96572 15.9418 4.18754 15.8345 3.43138 16.6179C3.16766 16.8911 3.02662 17.0633 2.85947 17.4043C2.62087 17.891 2.59243 18.2208 2.57352 18.7626C2.5732 18.7717 2.57295 18.781 2.57275 18.7903C2.55633 19.5882 2.75443 20.3761 2.83009 21.1706L2.85947 21.4791C2.94066 22.494 3.77705 23.2826 4.79497 23.3041L14.621 23.5109C15.7704 23.5351 16.8468 22.7678 16.9427 21.6221C16.9962 20.9822 17.024 20.6205 17.0141 19.9779C17.0105 19.7383 16.9923 19.382 16.9753 19.0875C16.9552 18.7412 16.9323 18.3878 16.7997 18.0672C16.6965 17.8178 16.5978 17.6711 16.4422 17.4758C16.3565 17.3682 16.2236 17.266 16.0954 17.1823C15.8596 17.0282 15.6022 16.9106 15.352 16.7812L14.0621 16.114C13.7902 15.9734 13.5147 15.8402 13.2428 15.6995C12.7804 15.4603 12.0352 15.0418 11.581 14.6162C11.4658 14.5083 11.4405 14.4699 11.3666 14.3303C11.2871 14.1802 11.2462 14.0697 11.2236 13.9014C11.1283 13.1919 11.2236 12.0684 11.2236 12.0684C10.9939 12.2709 10.7673 12.4477 10.5163 12.5878Z" fill="#DBAE7F"/>
<path d="M11.7665 9.2986C11.8126 9.42357 11.6516 9.45837 11.581 9.34542C11.2644 8.83873 10.8302 8.79193 10.3657 8.41607C9.99617 8.117 9.74149 7.99431 9.43639 7.6297C9.2426 7.39811 9.16527 7.24377 9.00746 6.98631C8.75944 6.58167 8.59316 6.36166 8.43556 5.91399C8.32799 5.60845 8.25392 5.14089 8.2297 4.97453C8.22374 4.93363 8.22109 4.89242 8.22109 4.85109V2.78106C8.22109 2.69728 8.25856 2.69357 8.22109 2.76851C8.1496 2.91148 8.1496 2.98297 8.00663 3.26892C7.83681 3.60856 7.72277 3.81487 7.50621 4.12678C7.3627 4.33347 7.17697 4.58279 7.01505 4.79583C6.77305 5.11423 6.51541 5.42014 6.24972 5.71905L6.07644 5.91399L5.41636 6.56072C5.31915 6.65597 5.17554 6.6484 5.03945 6.6484C4.56356 6.6484 4.14373 6.34593 4.15314 5.87014C4.16164 5.44056 4.17973 4.9511 4.21775 4.6272C4.26436 4.23007 4.3978 3.67977 4.46461 3.41834C4.49016 3.31834 4.51765 3.21974 4.54948 3.12155C4.64838 2.81654 4.89906 2.11157 5.21859 1.71572C5.52881 1.33138 5.77607 1.12751 6.21942 0.909811C6.65202 0.697393 7.14877 0.623858 7.43472 0.623858C7.52201 0.623858 7.6626 0.63052 7.8158 0.639776C8.29359 0.668642 8.71857 0.401324 9.15044 0.194929C9.57865 -0.00971987 9.89613 -0.0342287 10.3657 0.0344665C10.8353 0.103162 11.3142 0.258511 11.867 0.534884C12.4389 0.820837 12.7875 1.24096 13.0823 1.53572C13.1471 1.60056 13.2512 1.75687 13.3648 1.94343C13.7711 2.61064 14.0913 3.32737 14.3389 4.06831C14.4034 4.26152 14.4646 4.45546 14.5121 4.6272C14.5896 4.90783 14.655 5.26238 14.7035 5.5688C14.7638 5.94955 14.4948 6.29755 14.1132 6.35243L13.7434 6.40562C13.6284 6.42217 13.5403 6.51638 13.5315 6.63225L13.4979 7.07595C13.485 7.24655 13.2305 7.28223 13.1538 7.12929C12.9906 6.80388 12.8832 6.62522 12.6534 6.34291C12.5517 6.21801 12.4143 6.08287 12.2794 5.96044C11.9681 5.6781 11.6394 5.41505 11.3041 5.16166C11.1182 5.02113 10.9071 4.87253 10.7232 4.77017C10.6313 4.71907 10.5204 4.66511 10.4111 4.61504C10.0991 4.47203 9.77972 4.33626 9.50788 4.12678C9.17705 3.87185 8.64209 4.04779 8.66301 4.46492C8.67463 4.69639 8.69299 4.92766 8.72151 5.12762C8.74548 5.29573 8.72151 5.12762 8.79299 5.55654C8.84555 5.8719 8.86875 5.94819 9.00746 6.19994C9.17627 6.50632 9.37011 6.70599 9.57937 6.98631C9.94204 7.47215 10.4374 7.84439 10.8662 8.2731C10.9352 8.34212 11.0179 8.4248 11.096 8.50289C11.2764 8.68331 11.4689 8.85347 11.6255 9.05492C11.6636 9.10394 11.6985 9.15455 11.724 9.20244C11.7399 9.23222 11.754 9.26454 11.7665 9.2986Z" fill="black"/>
<path d="M7.6492 17.138C7.44991 16.8933 7.29196 16.5391 7.17577 16.2105C7.0129 15.7499 6.53989 15.4436 6.0643 15.5555L5.44123 15.7021C5.03911 15.7967 4.91203 16.2979 5.14711 16.6375C5.46006 17.0897 5.63571 17.3966 5.79051 17.9243C5.94944 18.4661 5.98038 18.7914 5.93348 19.3541C5.89239 19.8471 5.7284 20.0987 5.57604 20.5694C5.47161 20.892 5.32159 21.3032 5.2014 21.6243C5.07896 21.9513 5.11169 22.3169 5.2947 22.6143C5.47249 22.9032 5.77218 23.0954 6.1089 23.1365L10.4505 23.6659C11.0912 23.7441 11.7399 23.6103 12.2975 23.2851L13.6811 22.4779C14.336 22.0959 14.5288 21.2645 14.2261 20.5694C14.0252 20.108 13.8866 19.8494 13.7972 19.3541C13.698 18.8046 13.7133 18.4764 13.7972 17.9243C13.8377 17.658 13.9358 17.3446 14.0396 17.0633C14.2049 16.6153 14.0441 16.0981 13.6275 15.8648C13.1037 15.5715 12.4441 15.8626 12.2438 16.4284C12.1531 16.6844 12.0492 16.9386 11.9385 17.138C11.6411 17.6732 11.366 17.99 10.7947 18.2103C10.2477 18.4212 9.79009 18.4979 9.22194 18.3533C8.48657 18.166 8.14041 17.741 7.66386 17.156L7.6492 17.138Z" fill="#785757"/>
</g>
</svg>
