<svg width="14" height="14" viewBox="0 0 14 14" fill="none" xmlns="http://www.w3.org/2000/svg">
<path d="M1 4.2C1 3.0799 1 2.51984 1.20436 2.09202C1.38413 1.71569 1.67096 1.40973 2.02377 1.21799C2.42485 1 2.9499 1 4 1H9.25C10.3001 1 10.8251 1 11.2262 1.21799C11.579 1.40973 11.8659 1.71569 12.0456 2.09202C12.25 2.51984 12.25 3.0799 12.25 4.2V9.8C12.25 10.9201 12.25 11.4802 12.0456 11.908C11.8659 12.2843 11.579 12.5903 11.2262 12.782C10.8251 13 10.3001 13 9.25 13H4C2.9499 13 2.42485 13 2.02377 12.782C1.67096 12.5903 1.38413 12.2843 1.20436 11.908C1 11.4802 1 10.9201 1 9.8V4.2Z" stroke="black" stroke-width="2" stroke-linecap="round" stroke-linejoin="round"/>
</svg>
