<svg width="19" height="23" viewBox="0 0 19 23" fill="none" xmlns="http://www.w3.org/2000/svg">
<mask id="mask0_68_19288" style="mask-type:alpha" maskUnits="userSpaceOnUse" x="-3" y="-2" width="25" height="25">
<circle cx="9.43642" cy="10.847" r="12.153" fill="#D9D9D9"/>
</mask>
<g mask="url(#mask0_68_19288)">
<path d="M7.58163 11.5429L5.22252 6.68165L4.71822 6.48672L4.14632 6.77267C4.14632 6.77267 3.99675 8.46431 4.07483 9.97011C4.10964 10.6416 4.07871 10.1846 4.1502 11.5429C4.1666 11.8546 4.17691 12.3904 4.07871 12.6867C3.92507 13.1502 3.68496 13.3392 3.43532 13.759C2.57858 15.1995 1.29067 17.4764 1.29067 17.4764C1.29067 17.4764 0.559899 18.7371 0.289835 19.621C0.139417 20.1133 0.0346427 20.3939 0.00388205 20.9078C-0.0279894 21.4402 0.146858 22.2661 0.146858 22.2661L0.32233 23.2669H2.9349L2.86341 18.6917L3.72127 16.69L8.72544 14.9028V12.4007L7.58163 11.5429Z" fill="black"/>
<path d="M13.4437 6.3957L14.7981 6.23523C14.7981 6.23523 14.7169 7.30033 14.659 7.96844C14.6031 8.61357 14.48 8.96609 14.4445 9.61267C14.4185 10.0866 14.3953 10.3559 14.4445 10.828C14.4888 11.2527 14.659 11.9003 14.659 11.9003C14.659 11.9003 14.8343 12.613 15.0164 13.0441C15.369 13.8786 15.8096 14.2146 16.3032 14.9743C16.6998 15.5847 16.9905 15.9291 17.3755 16.547C17.6009 16.9087 17.59 16.9045 17.9474 17.4049C18.1527 17.6922 18.3049 18.1198 18.3049 18.1198C18.3049 18.1198 18.3764 18.484 18.3764 18.7632C18.3764 19.0423 18.3764 19.2636 18.1619 20.1214C17.9474 20.9793 17.9144 20.939 17.8759 21.4797C17.8402 21.9817 17.855 22.2718 17.9474 22.7665C18.0059 23.0794 18.1619 23.5529 18.1619 23.5529H16.4462L16.5891 19.2636L15.2309 17.2619L12.2999 15.5462L10.8701 14.3309V12.2577L12.5858 9.3982L13.4437 6.3957Z" fill="black"/>
<path d="M13.5112 6.96726C13.4581 7.63154 13.3654 8.28595 13.2149 8.89744C12.9605 9.93112 12.5407 10.8422 11.867 11.471C11.637 11.6857 11.429 11.8875 11.2236 12.0687C10.7449 12.4907 10.2796 12.8007 9.57937 12.9008C9.24663 12.812 8.93995 12.6958 8.65002 12.5541C8.00559 12.2393 7.44392 11.7989 6.86282 11.2565C6.29558 10.7271 5.92838 10.0777 5.67656 9.30822C5.45234 8.62306 5.3196 7.84274 5.21859 6.96726C5.21859 6.87138 5.22021 6.77605 5.22343 6.6813C5.32891 3.57661 7.14277 1.10522 9.3649 1.10522C11.5528 1.10522 13.3449 3.50107 13.5003 6.53833C13.5075 6.67997 13.5112 6.823 13.5112 6.96726Z" fill="#DBAE7F"/>
<path d="M5.21859 6.96726C5.21859 6.87138 5.22021 6.77605 5.22343 6.6813C5.22343 6.6813 5.01294 6.601 4.93263 6.6813C4.64668 6.96726 4.66521 7.14201 4.64668 7.25321C4.61699 7.43134 4.59535 7.89476 4.64668 8.25404C4.6917 8.56916 4.75904 8.73408 4.86115 9.04041C4.93263 9.25488 5.1471 9.39786 5.1471 9.39786C5.1471 9.39786 5.36156 9.54083 5.57603 9.46934C5.64639 9.44589 5.67656 9.30822 5.67656 9.30822C5.45234 8.62306 5.3196 7.84274 5.21859 6.96726Z" fill="#DBAE7F"/>
<path d="M13.5003 6.53833C13.5075 6.67997 13.5112 6.823 13.5112 6.96726C13.4581 7.63154 13.3654 8.28595 13.2149 8.89744C13.2149 8.89744 13.3728 9.02411 13.5112 9.04041C13.6765 9.05989 13.9401 8.89744 13.9401 8.89744C13.9401 8.89744 14.3279 8.57077 14.4406 8.25404C14.5626 7.9111 14.4681 7.5073 14.3691 7.18172L14.3659 7.17131C14.2435 6.76878 14.1516 6.46623 13.7972 6.39535C13.671 6.37011 13.5003 6.53833 13.5003 6.53833Z" fill="#DBAE7F"/>
<path d="M9.57937 12.9008C9.24663 12.812 8.93995 12.6958 8.65002 12.5541C8.65002 12.5541 8.84859 13.3731 8.65002 13.8301C8.58515 13.9794 8.52831 14.0538 8.43555 14.1876C7.81598 15.0811 7.14876 15.2599 6.00495 15.6173C4.96572 15.9421 4.18754 15.8348 3.43138 16.6182C3.16766 16.8914 3.02662 17.0636 2.85947 17.4045C2.62087 17.8913 2.59243 18.2211 2.57352 18.7628C2.55685 19.2404 2.7165 19.9781 2.7165 19.9781L2.85947 21.4794L3.00245 23.2666L16.5852 23.5525C16.5852 23.5525 16.8788 22.3863 16.9427 21.6223C16.9962 20.9825 17.024 20.6208 17.0141 19.9781C17.0069 19.5027 16.9426 18.5679 16.9426 18.5679C16.9426 18.5679 16.8774 18.2553 16.7997 18.0675C16.6965 17.8181 16.5978 17.6713 16.4422 17.476C16.2299 17.2095 15.7274 16.9756 15.7274 16.9756L13.6542 15.9033C13.6542 15.9033 12.2764 15.268 11.581 14.6165C11.4658 14.5085 11.4405 14.4701 11.3666 14.3305C11.2871 14.1805 11.2462 14.0699 11.2236 13.9016C11.1283 13.1922 11.2236 12.0687 11.2236 12.0687C10.7449 12.4907 10.2796 12.8007 9.57937 12.9008Z" fill="#DBAE7F"/>
<path d="M11.867 10.0603C11.867 10.0603 11.7404 9.60042 11.581 9.34542C11.2644 8.83873 10.8302 8.79193 10.3657 8.41607C9.99617 8.117 9.74149 7.99431 9.43639 7.6297C9.2426 7.39811 9.16527 7.24377 9.00746 6.98631C8.75944 6.58167 8.59316 6.36166 8.43556 5.91399C8.30282 5.53695 8.22109 4.91315 8.22109 4.91315V2.55404C8.22109 2.55404 8.29258 2.62553 8.22109 2.76851C8.1496 2.91148 8.1496 2.98297 8.00663 3.26892C7.83681 3.60856 7.72277 3.81487 7.50621 4.12678C7.18381 4.59112 6.64835 5.27059 6.64835 5.27059L6.07644 5.91399L5.25391 6.71989C5.25391 6.71989 5.11094 6.6484 5.03945 6.6484C4.96796 6.6484 4.14626 6.77185 4.14626 6.77185C4.14626 6.77185 4.13639 5.32039 4.21775 4.6272C4.28094 4.08883 4.5037 3.26892 4.5037 3.26892C4.5037 3.26892 4.80289 2.23072 5.21859 1.71572C5.52881 1.33138 5.77607 1.12751 6.21942 0.909811C6.65202 0.697393 7.14877 0.623858 7.43472 0.623858C7.72067 0.623858 8.57853 0.695346 8.57853 0.695346C8.57853 0.695346 8.88267 0.322896 9.15044 0.194929C9.57865 -0.00971987 9.89613 -0.0342287 10.3657 0.0344665C10.8353 0.103162 11.3142 0.258511 11.867 0.534884C12.4389 0.820837 12.7875 1.24096 13.0823 1.53572C13.2968 1.75018 13.9401 2.96548 13.9401 2.96548C13.9401 2.96548 14.3283 3.96261 14.5121 4.6272C14.6857 5.25538 14.798 6.25394 14.798 6.25394L13.5465 6.43394L13.4397 7.84417C13.4397 7.84417 13.2885 7.39808 13.1538 7.12929C12.9906 6.80388 12.8832 6.62522 12.6534 6.34291C12.3665 5.99045 11.7955 5.55654 11.7955 5.55654C11.7955 5.55654 11.177 5.02265 10.7232 4.77017C10.4284 4.60617 9.93681 4.41273 9.93681 4.41273C9.93681 4.41273 9.66734 4.24966 9.50788 4.12678C9.11664 3.8253 8.65002 3.19743 8.65002 3.19743C8.65002 3.19743 8.61503 4.38087 8.72151 5.12762C8.74548 5.29573 8.72151 5.12762 8.79299 5.55654C8.84555 5.8719 8.86875 5.94819 9.00746 6.19994C9.17627 6.50632 9.37011 6.70599 9.57937 6.98631C9.79193 7.27106 10.2228 7.6297 10.2228 7.6297C10.2228 7.6297 10.6149 8.02184 10.8662 8.2731C11.0616 8.46852 11.3666 8.77351 11.3666 8.77351C11.3666 8.77351 11.6216 9.00995 11.724 9.20244C11.8836 9.50227 11.867 10.0603 11.867 10.0603Z" fill="black"/>
<path d="M7.6492 17.138C7.17443 16.5552 6.93432 15.3508 6.93432 15.3508L4.50372 15.9227C4.50372 15.9227 4.93337 16.3287 5.14711 16.6375C5.46006 17.0897 5.63571 17.3966 5.79051 17.9243C5.94944 18.4661 5.98038 18.7914 5.93348 19.3541C5.89239 19.8471 5.7284 20.0987 5.57604 20.5694C5.37476 21.1912 5.00414 22.1421 5.00414 22.1421L5.57604 23.0715L11.4381 23.7864L14.8695 21.7847C14.8695 21.7847 14.4405 21.0617 14.2261 20.5694C14.0252 20.108 13.8866 19.8494 13.7972 19.3541C13.698 18.8046 13.7133 18.4764 13.7972 17.9243C13.8993 17.2522 14.3691 16.2801 14.3691 16.2801L12.5819 15.2793C12.5819 15.2793 12.2959 16.4946 11.9385 17.138C11.6411 17.6732 11.366 17.99 10.7947 18.2103C10.2477 18.4212 9.79009 18.4979 9.22194 18.3533C8.48657 18.166 8.14041 17.741 7.66386 17.156L7.6492 17.138Z" fill="#785757"/>
</g>
</svg>
