<svg width="24" height="24" viewBox="0 0 24 24" fill="none" xmlns="http://www.w3.org/2000/svg">
<path d="M18 6.99979H17.65C17.8782 6.53256 17.9979 6.01978 18 5.49979C18.003 4.80312 17.7975 4.12148 17.4098 3.54262C17.0221 2.96376 16.4701 2.51418 15.8247 2.25173C15.1794 1.98929 14.4703 1.926 13.7886 2.07001C13.107 2.21402 12.4841 2.55874 12 3.05979C11.5159 2.55874 10.893 2.21402 10.2114 2.07001C9.52975 1.926 8.82061 1.98929 8.17525 2.25173C7.5299 2.51418 6.97786 2.96376 6.59019 3.54262C6.20252 4.12148 5.99697 4.80312 6 5.49979C6.00213 6.01978 6.12178 6.53256 6.35 6.99979H6C5.20435 6.99979 4.44129 7.31586 3.87868 7.87847C3.31607 8.44108 3 9.20414 3 9.99979V11.9998C3 12.265 3.10536 12.5194 3.29289 12.7069C3.48043 12.8944 3.73478 12.9998 4 12.9998H5V18.9998C5 19.7954 5.31607 20.5585 5.87868 21.1211C6.44129 21.6837 7.20435 21.9998 8 21.9998H16C16.7956 21.9998 17.5587 21.6837 18.1213 21.1211C18.6839 20.5585 19 19.7954 19 18.9998V12.9998H20C20.2652 12.9998 20.5196 12.8944 20.7071 12.7069C20.8946 12.5194 21 12.265 21 11.9998V9.99979C21 9.20414 20.6839 8.44108 20.1213 7.87847C19.5587 7.31586 18.7956 6.99979 18 6.99979ZM11 19.9998H8C7.73478 19.9998 7.48043 19.8944 7.29289 19.7069C7.10536 19.5194 7 19.265 7 18.9998V12.9998H11V19.9998ZM11 10.9998H5V9.99979C5 9.73458 5.10536 9.48022 5.29289 9.29269C5.48043 9.10515 5.73478 8.99979 6 8.99979H11V10.9998ZM11 6.99979H9.5C9.20333 6.99979 8.91332 6.91182 8.66665 6.747C8.41997 6.58218 8.22771 6.34791 8.11418 6.07382C8.00065 5.79973 7.97094 5.49813 8.02882 5.20716C8.0867 4.91619 8.22956 4.64891 8.43934 4.43913C8.64912 4.22935 8.91639 4.08649 9.20736 4.02862C9.49834 3.97074 9.79994 4.00044 10.074 4.11397C10.3481 4.22751 10.5824 4.41976 10.7472 4.66644C10.912 4.91311 11 5.20312 11 5.49979V6.99979ZM13 5.49979C13 5.20312 13.088 4.91311 13.2528 4.66644C13.4176 4.41976 13.6519 4.22751 13.926 4.11397C14.2001 4.00044 14.5017 3.97074 14.7926 4.02862C15.0836 4.08649 15.3509 4.22935 15.5607 4.43913C15.7704 4.64891 15.9133 4.91619 15.9712 5.20716C16.0291 5.49813 15.9994 5.79973 15.8858 6.07382C15.7723 6.34791 15.58 6.58218 15.3334 6.747C15.0867 6.91182 14.7967 6.99979 14.5 6.99979H13V5.49979ZM17 18.9998C17 19.265 16.8946 19.5194 16.7071 19.7069C16.5196 19.8944 16.2652 19.9998 16 19.9998H13V12.9998H17V18.9998ZM19 10.9998H13V8.99979H18C18.2652 8.99979 18.5196 9.10515 18.7071 9.29269C18.8946 9.48022 19 9.73458 19 9.99979V10.9998Z" fill="white"/>
</svg>
