<svg width="27" height="22" viewBox="0 0 27 22" fill="none" xmlns="http://www.w3.org/2000/svg">
<path d="M7.28515 3.18316L9.00525 8.47579H14.5703L10.0716 11.7526L11.7917 17.0452L7.28515 13.7762L2.77863 17.0452L4.50652 11.7526L0 8.47579H5.56505L7.28515 3.18316Z" fill="#FFDA44"/>
<path d="M20.0029 21.9177L18.6876 20.2988L16.7417 21.0538L17.8703 19.3025L16.5549 17.6758L18.5708 18.2129L19.7072 16.4616L19.8161 18.5476L21.8398 19.0846L19.8862 19.8318L20.0029 21.9177Z" fill="#FFDA44"/>
<path d="M22.6181 17.1699L23.2408 15.1774L21.5362 13.971L23.6222 13.9399L24.237 11.9473L24.9142 13.9243L27.0001 13.9009L25.3267 15.1463L25.9961 17.1232L24.2915 15.9168L22.6181 17.1699Z" fill="#FFDA44"/>
<path d="M26.1441 5.68189L25.2257 7.55766L26.7201 9.01314L24.6575 8.71737L23.7391 10.5854L23.3811 8.53057L21.3107 8.23481L23.1631 7.2619L22.8051 5.19933L24.2995 6.6548L26.1441 5.68189Z" fill="#FFDA44"/>
<path d="M20.0576 0L19.9019 2.07814L21.8399 2.86425L19.8085 3.36238L19.6606 5.4483L18.5632 3.67371L16.5317 4.17184L17.8782 2.57627L16.773 0.809461L18.7111 1.59557L20.0576 0Z" fill="#FFDA44"/>
</svg>
