<svg width="10" height="8" viewBox="0 0 10 8" fill="none" xmlns="http://www.w3.org/2000/svg">
<path d="M9.80211 1.41923L5.36939 6.98058C5.31662 7.04659 5.25945 7.09324 5.19789 7.12052C5.13632 7.14825 5.07036 7.16211 5 7.16211C4.92964 7.16211 4.86368 7.14825 4.80211 7.12052C4.74055 7.09324 4.68338 7.04659 4.63061 6.98058L0.184697 1.41923C0.0615655 1.26521 0 1.07268 0 0.841645C0 0.61061 0.0659631 0.41258 0.197889 0.247554C0.329815 0.0825291 0.483729 1.66893e-05 0.659631 1.66893e-05C0.835532 1.66893e-05 0.989446 0.0825291 1.12137 0.247554L5 5.09929L8.87863 0.247554C9.00176 0.0935307 9.15339 0.0165186 9.33351 0.0165186C9.51398 0.0165186 9.67019 0.0990314 9.80211 0.264057C9.93404 0.429082 10 0.621611 10 0.841645C10 1.06168 9.93404 1.25421 9.80211 1.41923Z" fill="#4D8F92"/>
</svg>
