<svg width="20" height="24" viewBox="0 0 20 24" fill="none" xmlns="http://www.w3.org/2000/svg">
<path d="M20.0001 5.1158C20.0001 7.30991 18.2556 9.09475 16.1112 9.09475C13.9667 9.09475 12.2223 7.30991 12.2223 5.1158C12.2223 2.92169 13.9667 1.13685 16.1112 1.13685C18.2556 1.13685 20.0001 2.92169 20.0001 5.1158ZM17.7778 11.1297C17.2223 11.2775 16.6667 11.3684 16.1112 11.3684C14.4913 11.3654 12.9386 10.7057 11.7932 9.53376C10.6478 8.36182 10.003 6.77318 10 5.1158C10 3.44464 10.6445 1.93264 11.6667 0.807165C11.4651 0.554263 11.2108 0.350574 10.9225 0.21094C10.6342 0.0713064 10.319 -0.000755437 10 5.97148e-06C8.7778 5.97148e-06 7.7778 1.02316 7.7778 2.27369V2.60338C4.47779 3.6038 2.22223 6.70738 2.22223 10.2316V17.0527L0 19.3263V20.4632H20.0001V19.3263L17.7778 17.0527V11.1297ZM10 23.8737C11.2334 23.8737 12.2223 22.8619 12.2223 21.6H7.7778C7.7778 22.203 8.01193 22.7814 8.42867 23.2078C8.84542 23.6342 9.41066 23.8737 10 23.8737Z" fill="#1E1E1E"/>
<ellipse cx="16.1111" cy="5.1158" rx="3.8889" ry="3.97895" fill="#4D8F92"/>
</svg>
