<svg width="275" height="48" viewBox="0 0 275 48" fill="none" xmlns="http://www.w3.org/2000/svg">
<g filter="url(#filter0_d_169_8452)">
<rect x="-0.25" y="-0.25" width="275.5" height="48.5" rx="5.25" stroke="#B9B9B9" stroke-width="0.5" shape-rendering="crispEdges"/>
<path d="M0 5C0 2.23858 2.23858 0 5 0H226V48H5C2.23857 48 0 45.7614 0 43V5Z" fill="white"/>
<path d="M16 24L22 30L32 18" stroke="#03DD03" stroke-width="2" stroke-linecap="round" stroke-linejoin="round"/>
<path d="M194.336 16.3357C194.442 16.2293 194.568 16.1449 194.707 16.0873C194.846 16.0296 194.994 16 195.145 16C195.295 16 195.444 16.0296 195.583 16.0873C195.721 16.1449 195.847 16.2293 195.954 16.3357L202 22.3847L208.047 16.3357C208.153 16.2294 208.279 16.1452 208.418 16.0877C208.557 16.0302 208.706 16.0006 208.856 16.0006C209.006 16.0006 209.155 16.0302 209.294 16.0877C209.433 16.1452 209.559 16.2294 209.665 16.3357C209.771 16.4419 209.855 16.568 209.913 16.7068C209.97 16.8456 210 16.9944 210 17.1447C210 17.2949 209.97 17.4437 209.913 17.5825C209.855 17.7213 209.771 17.8474 209.665 17.9536L203.616 24.0003L209.665 30.047C209.771 30.1532 209.855 30.2793 209.913 30.4181C209.97 30.5569 210 30.7057 210 30.8559C210 31.0062 209.97 31.155 209.913 31.2938C209.855 31.4326 209.771 31.5587 209.665 31.6649C209.559 31.7711 209.433 31.8554 209.294 31.9129C209.155 31.9704 209.006 32 208.856 32C208.706 32 208.557 31.9704 208.418 31.9129C208.279 31.8554 208.153 31.7711 208.047 31.6649L202 25.6159L195.954 31.6649C195.847 31.7711 195.721 31.8554 195.582 31.9129C195.444 31.9704 195.295 32 195.145 32C194.994 32 194.846 31.9704 194.707 31.9129C194.568 31.8554 194.442 31.7711 194.336 31.6649C194.229 31.5587 194.145 31.4326 194.088 31.2938C194.03 31.155 194.001 31.0062 194.001 30.8559C194.001 30.7057 194.03 30.5569 194.088 30.4181C194.145 30.2793 194.229 30.1532 194.336 30.047L200.385 24.0003L194.336 17.9536C194.229 17.8475 194.145 17.7214 194.087 17.5826C194.03 17.4438 194 17.2949 194 17.1447C194 16.9944 194.03 16.8455 194.087 16.7067C194.145 16.5679 194.229 16.4418 194.336 16.3357Z" fill="#A4A4A4"/>
<path d="M226 0H270C272.761 0 275 2.23858 275 5V43C275 45.7614 272.761 48 270 48H226V0Z" fill="#4D8F92"/>
<path d="M249.125 30.7497C250.928 30.7494 252.679 30.1459 254.099 29.0354L258.564 33.5L260 32.0639L255.535 27.5993C256.646 26.1792 257.25 24.428 257.251 22.6249C257.251 18.145 253.605 14.5 249.125 14.5C244.645 14.5 241 18.145 241 22.6249C241 27.1047 244.645 30.7497 249.125 30.7497ZM249.125 16.5312C252.486 16.5312 255.219 19.2642 255.219 22.6249C255.219 25.9855 252.486 28.7185 249.125 28.7185C245.764 28.7185 243.031 25.9855 243.031 22.6249C243.031 19.2642 245.764 16.5312 249.125 16.5312Z" fill="white"/>
</g>
<defs>
<filter id="filter0_d_169_8452" x="-3.5" y="-0.5" width="282" height="55" filterUnits="userSpaceOnUse" color-interpolation-filters="sRGB">
<feFlood flood-opacity="0" result="BackgroundImageFix"/>
<feColorMatrix in="SourceAlpha" type="matrix" values="0 0 0 0 0 0 0 0 0 0 0 0 0 0 0 0 0 0 127 0" result="hardAlpha"/>
<feOffset dy="3"/>
<feGaussianBlur stdDeviation="1.5"/>
<feComposite in2="hardAlpha" operator="out"/>
<feColorMatrix type="matrix" values="0 0 0 0 0 0 0 0 0 0 0 0 0 0 0 0 0 0 0.17 0"/>
<feBlend mode="normal" in2="BackgroundImageFix" result="effect1_dropShadow_169_8452"/>
<feBlend mode="normal" in="SourceGraphic" in2="effect1_dropShadow_169_8452" result="shape"/>
</filter>
</defs>
</svg>
