<svg width="23" height="19" viewBox="0 0 23 19" fill="none" xmlns="http://www.w3.org/2000/svg">
<path d="M22 14.5411V2.03535C22 1.53859 21.4772 1.21549 21.0329 1.43765L16.6325 3.63785C16.483 3.71262 16.3108 3.72862 16.1501 3.68269L6.84994 1.02551C6.68918 0.979581 6.51704 0.99558 6.3675 1.07035L1.3694 3.5694C1.14301 3.6826 1 3.91399 1 4.1671V16.6729C1 17.1696 1.52278 17.4927 1.9671 17.2706L6.3675 15.0704C6.51704 14.9956 6.68918 14.9796 6.84994 15.0255L16.1501 17.6827C16.3108 17.7286 16.483 17.7126 16.6325 17.6379L21.6306 15.1388C21.857 15.0256 22 14.7942 22 14.5411Z" stroke="white" stroke-width="2"/>
<path d="M16.4004 17.7539V3.75391" stroke="white" stroke-width="2"/>
<path d="M6.59961 14.9541V0.954102" stroke="white" stroke-width="2"/>
</svg>
