<svg width="23" height="24" viewBox="0 0 23 24" fill="none" xmlns="http://www.w3.org/2000/svg">
<mask id="mask0_68_19750" style="mask-type:alpha" maskUnits="userSpaceOnUse" x="-1" y="-1" width="26" height="25">
<circle cx="12" cy="12" r="12" transform="matrix(-1.02893 0 0 1.02893 24.2586 -0.694327)" fill="#F8A0A0"/>
</mask>
<g mask="url(#mask0_68_19750)">
<ellipse cx="4.72941" cy="8.89412" rx="4.72941" ry="8.89412" transform="matrix(-1.02382 -0.102407 -0.102407 1.02382 18.4632 2.1596)" fill="#CEA465"/>
<path d="M8.27985 7.36786C8.27985 7.9756 8.37141 8.56127 8.49774 9.11099C8.69803 9.98255 8.90183 10.2267 9.15141 10.7089C9.55991 11.3216 9.64931 11.576 10.3169 12.1208C10.3615 12.1572 10.4087 12.1949 10.4588 12.2341C11.0594 12.7045 11.6807 13.1057 12.4198 13.1057C13.1589 13.1057 13.7801 12.7045 14.3808 12.2341C14.4113 12.2102 14.4412 12.186 14.4706 12.1615C14.8699 11.828 15.1692 11.4327 15.4703 10.9267C15.7669 10.4281 16.1794 9.87518 16.3418 9.25625C16.3673 9.15897 16.3903 9.0623 16.4108 8.96573C16.5191 8.45494 16.5597 7.94711 16.5597 7.36786C16.5597 7.22125 16.5557 7.07592 16.548 6.93208C16.3873 3.96676 14.6004 1.63006 12.4198 1.63006C10.1334 1.63006 8.27985 4.19896 8.27985 7.36786Z" fill="#FFDFC1"/>
<path d="M12.4198 13.1057C13.1589 13.1057 13.7801 12.7045 14.3808 12.2341C14.4113 12.2102 14.4412 12.186 14.4706 12.1615C14.4706 12.1615 13.9672 13.8083 14.4706 14.6309C14.6931 14.9945 15.1214 15.1625 15.5456 15.2049L16.3418 15.2846C17.8761 15.5403 18.745 17.1872 18.09 18.598L17.7652 19.2975C17.5929 19.6686 17.3451 19.9997 17.0375 20.2696L14.3554 22.6233C14.084 22.8614 13.7723 23.0494 13.435 23.1784C12.2553 23.6295 10.9196 23.3049 10.0784 22.3628L9.85983 22.1179C9.72674 21.9689 9.60658 21.8087 9.50067 21.6393L6.94799 17.555C6.82096 17.3518 6.74498 17.1204 6.7266 16.8814C6.66248 16.0478 7.29952 15.3243 8.13459 15.2846L8.68575 15.2266C9.23308 15.1689 9.84225 15.0743 10.1682 14.6309C10.3313 14.4091 10.3853 14.0599 10.3987 13.7683C10.4147 13.4234 10.3756 13.0785 10.3545 12.7338L10.3169 12.1208C10.3615 12.1572 10.4087 12.1949 10.4588 12.2341C11.0594 12.7045 11.6807 13.1057 12.4198 13.1057Z" fill="#FFDFC1"/>
<path d="M16.5597 7.36786C16.5597 7.22125 16.5557 7.07592 16.548 6.93208C16.548 6.93208 16.7193 6.78476 16.8502 6.78682C16.9771 6.78881 17.0681 6.81637 17.1408 6.93208C17.2134 7.04779 17.2374 7.24138 17.2134 7.44049C17.1784 7.73041 16.976 7.83061 16.8502 8.09416C16.7187 8.36987 16.7592 8.58908 16.5597 8.82047C16.5067 8.88201 16.4108 8.96573 16.4108 8.96573C16.5191 8.45494 16.5597 7.94711 16.5597 7.36786Z" fill="#FFDFC1"/>
<path d="M13.7272 3.22808C13.6209 3.01973 13.5819 2.88093 13.5819 2.64704C13.5819 2.49916 13.3854 2.365 13.2741 2.46239L13.1543 2.56722C13.1489 2.57201 13.1433 2.57635 13.1372 2.58035C13.0909 2.61086 12.874 2.75005 12.7103 2.7923C12.3356 2.88901 11.9558 2.61379 11.57 2.6447C11.5627 2.64529 11.5554 2.64606 11.5483 2.64704C11.304 2.68035 11.0676 2.76265 10.8552 2.8879C10.7897 2.92655 10.726 2.96857 10.6767 3.01019C10.4769 3.17887 10.4932 3.61909 10.3135 3.80912C10.1187 4.01524 9.89931 4.01551 9.7325 4.2449C9.52887 4.52492 9.67105 4.66234 9.51461 4.97121C9.3525 5.29127 9.13708 5.34349 9.07882 5.69751C9.01895 6.06135 9.09326 6.35603 9.00619 6.71434C8.94023 6.98579 8.81645 7.10747 8.71567 7.36801C8.6186 7.61897 8.54914 7.75755 8.49778 8.02168C8.42199 8.41148 8.68092 8.64294 8.71567 9.03851C8.75167 9.44825 8.85413 9.9321 8.96319 10.3624C9.15407 11.1156 9.18133 11.908 8.96598 12.6545L8.63833 13.7903C8.38067 14.6836 7.58224 15.3131 6.65356 15.3553C6.62412 15.3567 6.59496 15.3575 6.56549 15.3568C6.40428 15.3534 5.83777 15.3278 5.51994 15.1395C5.39793 15.0672 5.3297 15.0219 5.22941 14.9216C5.12913 14.8213 5.06656 14.7618 5.01152 14.631C4.92347 14.4219 5.01152 14.2769 5.01152 14.05C5.01152 13.8515 4.97962 13.7376 5.01152 13.5416C5.05046 13.3024 5.19376 13.2003 5.22941 12.9605C5.25445 12.7922 5.22941 12.695 5.22941 12.5248C5.22941 12.1863 5.14868 11.8366 5.22941 11.5079C5.32241 11.1293 5.71661 10.923 5.98585 10.641C6.0326 10.592 6.07305 10.5413 6.10098 10.4911C6.17049 10.3662 6.20707 10.1873 6.22619 10.024C6.25729 9.75847 6.29746 9.49149 6.39676 9.24326C6.48924 9.01204 6.53676 8.7653 6.53676 8.51627V8.36625C6.53676 8.04227 6.6009 7.72242 6.6806 7.40839C6.7144 7.27519 6.74379 7.13185 6.75465 7.00486C6.78406 6.66105 6.66985 6.39514 6.75465 6.06066C7.00135 5.08759 7.34002 4.0962 7.84411 3.22808C8.30368 2.43663 9.00679 1.79107 9.64034 1.13061C9.69428 1.07439 9.74939 1.02237 9.80513 0.976538C10.1697 0.676687 10.398 0.5305 10.822 0.322865C11.0963 0.188498 11.2468 0.0815673 11.5483 0.0323433C11.7722 -0.00421934 11.9078 -0.0168807 12.1293 0.0323433C12.2619 0.0618075 12.4191 0.142995 12.5365 0.212078C12.6356 0.270415 12.7585 0.239368 12.8556 0.177604C13.0231 0.0710088 13.1659 0.163876 13.364 0.177604C13.6804 0.19953 13.8617 0.223683 14.163 0.322865C14.7458 0.514776 15.0088 0.789998 15.4703 1.19443C16.0002 1.6588 16.0893 1.99295 16.4871 2.57441C16.8885 3.16103 17.2575 3.50558 17.5039 4.17227C17.7259 4.77249 17.6222 5.28329 17.7218 5.9154C17.8194 6.53434 17.9817 6.74218 18.0124 7.36801C18.0485 8.10459 17.7747 8.59347 17.7218 9.32903C17.6663 10.1012 17.8261 10.4503 17.7218 11.2174C17.6295 11.8972 17.2824 12.2745 17.2861 12.9605C17.2896 13.6184 17.4155 14.0488 17.7218 14.631C17.8915 14.9534 17.6637 15.5032 17.3027 15.4546L15.5862 15.2235C15.2241 15.1748 14.948 14.8752 14.9288 14.5103L14.8532 13.0751C14.8293 12.6201 14.9305 12.1672 15.1458 11.7657L17.3776 7.60366C17.458 7.45361 17.4713 7.27654 17.414 7.1162L17.3317 6.88577C17.2367 6.61966 16.905 6.51465 16.705 6.71434C16.5113 6.90781 16.124 6.79707 16.124 6.52329V6.20593C16.124 5.95065 16.1911 5.79853 16.124 5.55225C16.0432 5.25626 15.9062 5.11448 15.6882 4.89858C15.3948 4.60802 15.0569 4.36076 14.7935 4.04281C14.658 3.87927 14.508 3.70907 14.3808 3.59123C14.1455 3.37312 13.873 3.51393 13.7272 3.22808Z" fill="#CEA465"/>
<path d="M5.81043 15.0667C6.07741 15.0597 6.38213 15.0781 6.67526 15.1069C7.41974 15.1799 7.9467 15.7952 8.1346 16.5193C8.49797 17.9195 9.11162 18.5606 9.87773 19.7876C11.0038 21.5912 13.6355 21.6619 14.7694 19.8633C14.7854 19.8379 14.8011 19.8127 14.8166 19.7876C15.5159 18.6541 15.8922 17.9909 16.3418 16.7372C16.3548 16.7009 16.368 16.6632 16.3812 16.6244C16.6399 15.8664 17.3748 15.3327 18.1576 15.5024C18.7472 15.6303 19.0652 15.7103 19.6363 15.8539L19.6828 15.8656C20.0498 15.9579 20.2205 16.0507 20.5544 16.2288C20.8558 16.3894 21.0443 16.4906 21.2807 16.7372C21.6027 17.0729 21.787 17.2714 22.007 17.6814C22.3388 18.2996 22.3093 18.7356 22.4428 19.4245C22.6275 20.3778 22.6728 20.9248 22.7333 21.8939C22.7561 22.2591 22.7638 22.6926 22.764 23.1093C22.7642 24.0129 22.0193 24.7265 21.1156 24.7265C20.091 24.7265 19.3041 23.8191 19.4489 22.8049L19.6828 21.1676C19.3041 23.2294 17.507 24.7265 15.4107 24.7265H7.27014C5.3868 24.7265 3.82672 23.2649 3.70415 21.3855L3.73529 22.818C3.75806 23.8653 2.91535 24.7265 1.86787 24.7265H1.6067C0.719345 24.7265 1.96253e-06 24.0072 1.96253e-06 23.1198C1.96253e-06 23.0773 0.00165245 23.0352 0.00519678 22.9928C0.02996 22.6968 0.141033 21.4265 0.290523 20.5866C0.443626 19.7263 0.516646 19.2346 0.798936 18.4077C1.02876 17.7344 1.09498 17.3037 1.52524 16.7372C1.88997 16.2569 2.162 16.0164 2.68733 15.7203C3.13278 15.4693 3.42845 15.4181 3.92204 15.2846C4.61183 15.0979 5.08786 15.0855 5.79987 15.0669L5.81043 15.0667Z" fill="#651B34"/>
</g>
</svg>
