<svg width="44" height="44" viewBox="0 0 44 44" fill="none" xmlns="http://www.w3.org/2000/svg">
<rect width="40" height="40" rx="4" fill="#FCAAC2"/>
<path d="M15 9.5H25M15 9.5V13.5V26.5H17M15 9.5V9.5C15 8.39543 15.8954 7.5 17 7.5H23C24.1046 7.5 25 8.39543 25 9.5V9.5M25 9.5V13.5M25 26.5H30.5V20.5M25 26.5V17.5M25 26.5H23M25 13.5L28.7442 15.5423C29.4369 15.9202 29.7833 16.1091 30.0236 16.3916C30.1699 16.5637 30.286 16.7593 30.367 16.9701C30.5 17.3164 30.5 17.7109 30.5 18.5V18.5M25 13.5V15.5M19 26.5V24.5M19 26.5H21M19 26.5H17M19 24.5H21M19 24.5H17V26.5M21 24.5V26.5M21 24.5H23V26.5M21 26.5H23M25 15.5L30.5 18.5M25 15.5V17.5M30.5 18.5V20.5M25 17.5L30.5 20.5M11 26.5V23.5M11 26.5H12.5M11 26.5H9.5M11 23.5C10.3333 23.1667 9 23.3 9 22.5C9 21.5 9 18.5 11 18.5C13 18.5 13 21.5 13 22.5C13 23.3 11.6667 23.1667 11 23.5ZM11 30H13M15 30H17M19 30H21M23 30H25M27 30H29M9.5 28.5H30.5V31.5H9.5V28.5ZM22 11.5V11.5C22.5523 11.5 23 11.9477 23 12.5V12.5C23 13.0523 22.5523 13.5 22 13.5V13.5C21.4477 13.5 21 13.0523 21 12.5V12.5C21 11.9477 21.4477 11.5 22 11.5ZM22 19.5V19.5C22.5523 19.5 23 19.9477 23 20.5V20.5C23 21.0523 22.5523 21.5 22 21.5V21.5C21.4477 21.5 21 21.0523 21 20.5V20.5C21 19.9477 21.4477 19.5 22 19.5ZM22 17.5V17.5C22.5523 17.5 23 17.0523 23 16.5V16.5C23 15.9477 22.5523 15.5 22 15.5V15.5C21.4477 15.5 21 15.9477 21 16.5V16.5C21 17.0523 21.4477 17.5 22 17.5ZM18 11.5V11.5C18.5523 11.5 19 11.9477 19 12.5V12.5C19 13.0523 18.5523 13.5 18 13.5V13.5C17.4477 13.5 17 13.0523 17 12.5V12.5C17 11.9477 17.4477 11.5 18 11.5ZM18 21.5V21.5C18.5523 21.5 19 21.0523 19 20.5V20.5C19 19.9477 18.5523 19.5 18 19.5V19.5C17.4477 19.5 17 19.9477 17 20.5V20.5C17 21.0523 17.4477 21.5 18 21.5ZM18 17.5V17.5C18.5523 17.5 19 17.0523 19 16.5V16.5C19 15.9477 18.5523 15.5 18 15.5V15.5C17.4477 15.5 17 15.9477 17 16.5V16.5C17 17.0523 17.4477 17.5 18 17.5Z" stroke="#B8224F" stroke-width="0.75" stroke-linecap="round" stroke-linejoin="round"/>
<circle cx="38.5" cy="38.5" r="5.5" fill="#2B3031"/>
<path d="M36 38.5C36.8333 39.3333 38 40.5 38 40.5L41.5 37" stroke="white"/>
</svg>
