<svg width="16" height="16" viewBox="0 0 16 16" fill="none" xmlns="http://www.w3.org/2000/svg">
<g clip-path="url(#clip0_0_215)">
<path d="M8 2.1875C4.78906 2.1875 2.1875 4.78906 2.1875 8C2.1875 11.2109 4.78906 13.8125 8 13.8125C11.2109 13.8125 13.8125 11.2109 13.8125 8C13.8125 4.78906 11.2109 2.1875 8 2.1875ZM8 12.6875C5.41016 12.6875 3.3125 10.5898 3.3125 8C3.3125 5.41016 5.41016 3.3125 8 3.3125C10.5898 3.3125 12.6875 5.41016 12.6875 8C12.6875 10.5898 10.5898 12.6875 8 12.6875ZM9.44844 10.2406L7.45859 8.79453C7.38594 8.74062 7.34375 8.65625 7.34375 8.56719V4.71875C7.34375 4.56406 7.47031 4.4375 7.625 4.4375H8.375C8.52969 4.4375 8.65625 4.56406 8.65625 4.71875V8.03984L10.2219 9.17891C10.3484 9.27031 10.3742 9.44609 10.2828 9.57266L9.84219 10.1797C9.75078 10.3039 9.575 10.332 9.44844 10.2406Z" fill="white"/>
</g>
<defs>
<clipPath id="clip0_0_215">
<rect width="12" height="12" fill="white" transform="translate(2 2)"/>
</clipPath>
</defs>
</svg>
