<svg width="37" height="48" viewBox="0 0 37 48" fill="none" xmlns="http://www.w3.org/2000/svg">
<path d="M21.3438 24L26.0312 28.7344C26.6406 29.2969 26.6406 30.2344 26.0312 30.7969L25 31.8281C24.4375 32.4375 23.5 32.4375 22.9375 31.8281L18.25 27.1406L13.5156 31.8281C12.9531 32.4375 12.0156 32.4375 11.4531 31.8281L10.4219 30.7969C9.8125 30.2344 9.8125 29.2969 10.4219 28.7344L15.1094 24L10.4219 19.3125C9.8125 18.75 9.8125 17.8125 10.4219 17.25L11.4531 16.2188C12.0156 15.6094 12.9531 15.6094 13.5156 16.2188L18.25 20.9062L22.9375 16.2188C23.5 15.6094 24.4375 15.6094 25 16.2188L26.0312 17.25C26.6406 17.8125 26.6406 18.75 26.0312 19.3125L21.3438 24Z" fill="white"/>
</svg>
