<svg width="305" height="95" viewBox="0 0 305 95" fill="none" xmlns="http://www.w3.org/2000/svg">
<line x1="4.37832e-08" y1="21.5353" x2="305" y2="21.5353" stroke="#E7E7EE"/>
<ellipse cx="152.5" cy="22.0361" rx="23.9643" ry="22.0361" fill="#4D8F92"/>
<path d="M170.291 87.2167C170.291 87.5431 170.395 87.8606 170.588 88.1213C170.78 88.382 171.051 88.5717 171.359 88.6616C171.667 88.7516 171.995 88.737 172.294 88.6201C172.593 88.5031 172.847 88.2902 173.016 88.0134L176.981 83.9744C177.118 83.8347 177.227 83.6689 177.301 83.4865C177.375 83.3041 177.413 83.1085 177.413 82.9111C177.413 82.7137 177.375 82.5182 177.301 82.3358C177.226 82.1534 177.118 81.9877 176.981 81.8481C176.844 81.7086 176.681 81.5979 176.502 81.5224C176.323 81.4469 176.131 81.4081 175.937 81.4081C175.744 81.4082 175.552 81.4472 175.373 81.5228C175.194 81.5984 175.031 81.7092 174.894 81.8489L173.242 83.5324V72.185C173.242 71.7863 173.087 71.404 172.81 71.1221C172.533 70.8402 172.158 70.6818 171.767 70.6818C171.376 70.6818 171.001 70.8402 170.724 71.1221C170.447 71.404 170.292 71.7863 170.292 72.185V87.1416V87.2167H170.291Z" fill="white"/>
<path d="M167.388 78.1978C167.388 77.8714 167.283 77.5538 167.091 77.2931C166.898 77.0325 166.627 76.8428 166.319 76.7528C166.011 76.6628 165.683 76.6774 165.384 76.7944C165.085 76.9113 164.831 77.1243 164.662 77.4011L160.698 81.4401C160.557 81.5788 160.445 81.7446 160.368 81.928C160.29 82.1114 160.25 82.3087 160.248 82.5083C160.246 82.7079 160.283 82.9058 160.358 83.0905C160.432 83.2753 160.541 83.4431 160.68 83.5842C160.818 83.7254 160.983 83.837 161.164 83.9126C161.346 83.9881 161.54 84.0262 161.736 84.0244C161.932 84.0227 162.125 83.9812 162.305 83.9025C162.485 83.8237 162.648 83.7092 162.784 83.5656L164.437 81.882V93.2295C164.437 93.6282 164.593 94.0105 164.869 94.2924C165.146 94.5743 165.521 94.7327 165.913 94.7327C166.304 94.7327 166.679 94.5743 166.956 94.2924C167.232 94.0105 167.388 93.6282 167.388 93.2295V78.2729V78.1978Z" fill="white"/>
</svg>
