<svg width="18" height="12" viewBox="0 0 18 12" fill="none" xmlns="http://www.w3.org/2000/svg">
<path d="M0.999005 11.9881C0.447269 11.9881 0 11.5408 0 10.9891C0 10.4373 0.44727 9.99005 0.999005 9.99005H17.0009C17.5526 9.99005 17.9999 10.4373 17.9999 10.9891C17.9999 11.5408 17.5526 11.9881 17.0009 11.9881H0.999005ZM0.999005 6.99304C0.447269 6.99304 0 6.54577 0 5.99403C0 5.4423 0.44727 4.99503 0.999005 4.99503H17.0009C17.5526 4.99503 17.9999 5.4423 17.9999 5.99403C17.9999 6.54577 17.5526 6.99304 17.0009 6.99304H0.999005ZM0.999005 1.99801C0.447269 1.99801 0 1.55074 0 0.999005C0 0.44727 0.44727 0 0.999005 0H17.0009C17.5526 0 17.9999 0.44727 17.9999 0.999005C17.9999 1.55074 17.5526 1.99801 17.0009 1.99801H0.999005Z" fill="black"/>
</svg>
