<svg width="24" height="25" viewBox="0 0 24 25" fill="none" xmlns="http://www.w3.org/2000/svg">
<path d="M22.1538 11.9653H21.9815C21.2738 8.72953 18.4492 6.29957 15.0769 6.29957H12.9231V5.49378C13.9938 5.10347 14.7692 4.06476 14.7692 2.83719C14.7692 1.27597 13.5262 0.004331 12 0.004331C10.4738 0.004331 9.23077 1.27597 9.23077 2.83719C9.23077 4.06476 10.0062 5.10347 11.0769 5.49378V6.29957H8.92308C5.55077 6.29957 2.72615 8.72953 2.01846 11.9653H1.84615C0.830769 11.9653 0 12.8151 0 13.8538V15.7424C0 16.7811 0.830769 17.631 1.84615 17.631H2.18462C2.91077 19.9476 4.74462 21.7481 7.04615 22.4028C6.87385 22.7742 6.76923 23.1771 6.76923 23.6115C6.76923 24.134 7.18154 24.5557 7.69231 24.5557H16.3077C16.8185 24.5557 17.2308 24.134 17.2308 23.6115C17.2308 23.1771 17.1262 22.7679 16.9538 22.4028C19.2554 21.7544 21.0892 19.9476 21.8154 17.631H22.1538C23.1692 17.631 24 16.7811 24 15.7424V13.8538C24 12.8151 23.1692 11.9653 22.1538 11.9653ZM12 1.8929C12.5108 1.8929 12.9231 2.31468 12.9231 2.83719C12.9231 3.35969 12.5108 3.78147 12 3.78147C11.4892 3.78147 11.0769 3.35969 11.0769 2.83719C11.0769 2.31468 11.4892 1.8929 12 1.8929ZM15.0769 20.7786H8.92308C6.03692 20.7786 3.69231 18.3801 3.69231 15.4277V13.5391C3.69231 10.5866 6.03692 8.18814 8.92308 8.18814H15.0769C17.9631 8.18814 20.3077 10.5866 20.3077 13.5391V15.4277C20.3077 18.3801 17.9631 20.7786 15.0769 20.7786Z" fill="#4D8F92"/>
<path d="M8.61539 10.7062C7.6 10.7062 6.76923 11.5561 6.76923 12.5948V14.4834C6.76923 15.5221 7.6 16.3719 8.61539 16.3719C9.63077 16.3719 10.4615 15.5221 10.4615 14.4834V12.5948C10.4615 11.5561 9.63077 10.7062 8.61539 10.7062Z" fill="#4D8F92"/>
<path d="M15.3846 10.7062C14.3692 10.7062 13.5385 11.5561 13.5385 12.5948V14.4834C13.5385 15.5221 14.3692 16.3719 15.3846 16.3719C16.4 16.3719 17.2308 15.5221 17.2308 14.4834V12.5948C17.2308 11.5561 16.4 10.7062 15.3846 10.7062Z" fill="#4D8F92"/>
<path d="M5.55692 1.84254L7.40308 2.47206C7.50154 2.50354 7.6 2.52242 7.69231 2.52242C8.08 2.52242 8.43692 2.27062 8.56615 1.87402C8.72615 1.37669 8.46769 0.841597 7.98154 0.677921L6.13539 0.0483979C5.65539 -0.115278 5.13231 0.149122 4.96615 0.646445C4.8 1.14377 5.06462 1.67886 5.55077 1.84254H5.55692Z" fill="#4D8F92"/>
<path d="M5.84615 5.67004C5.94462 5.67004 6.04308 5.65745 6.13539 5.61968L7.98154 4.99016C8.46769 4.82648 8.72615 4.29139 8.56615 3.79406C8.40615 3.29674 7.88308 3.03234 7.39692 3.19601L5.55077 3.82554C5.06462 3.98921 4.80615 4.52431 4.96615 5.02163C5.09538 5.41823 5.45231 5.67004 5.84 5.67004H5.84615Z" fill="#4D8F92"/>
<path d="M16.3077 2.52242C16.4062 2.52242 16.5046 2.50983 16.5969 2.47206L18.4431 1.84254C18.9292 1.67886 19.1877 1.14377 19.0277 0.646445C18.8677 0.149122 18.3446 -0.115278 17.8585 0.0483979L16.0123 0.677921C15.5262 0.841597 15.2677 1.37669 15.4277 1.87402C15.5569 2.27062 15.9138 2.52242 16.3015 2.52242H16.3077Z" fill="#4D8F92"/>
<path d="M16.0185 4.99016L17.8646 5.61968C17.9631 5.65116 18.0615 5.67004 18.1538 5.67004C18.5415 5.67004 18.8985 5.41823 19.0277 5.02163C19.1877 4.52431 18.9292 3.98921 18.4431 3.82554L16.5969 3.19601C16.1169 3.03234 15.5877 3.29674 15.4277 3.79406C15.2677 4.29139 15.5262 4.82648 16.0123 4.99016H16.0185Z" fill="#4D8F92"/>
</svg>
