<svg width="24" height="20" viewBox="0 0 24 20" fill="none" xmlns="http://www.w3.org/2000/svg">
<path d="M0 5.61599C0.0280034 5.31323 0.0636009 5.01048 0.0825862 4.70726C0.154731 3.55784 0.221179 2.40842 0.289526 1.259C0.292849 1.20446 0.294273 1.14899 0.301392 1.09493C0.336515 0.832605 0.47226 0.699563 0.689642 0.712256C0.910347 0.725419 1.03802 0.892779 1.02521 1.16497C0.996256 1.79116 0.963981 2.41688 0.933129 3.0426C0.901804 3.67631 0.868579 4.31002 0.839152 4.94373C0.824913 5.25541 0.972999 5.45145 1.22361 5.46226C1.46947 5.47307 1.64223 5.28409 1.65078 4.97287C1.68495 3.72755 1.71438 2.48222 1.74618 1.2369C1.74808 1.15886 1.74428 1.07753 1.76421 1.00326C1.81452 0.815211 1.94267 0.708495 2.14202 0.712256C2.33947 0.716017 2.46714 0.821792 2.50939 1.01407C2.526 1.08976 2.52647 1.16967 2.52837 1.24771C2.5578 2.43051 2.58628 3.61284 2.61665 4.79564C2.6195 4.9127 2.6271 5.0307 2.6494 5.1454C2.68927 5.35272 2.83926 5.45756 3.03671 5.45662C3.23415 5.45568 3.38034 5.34896 3.42211 5.14164C3.43445 5.081 3.44252 5.01753 3.43919 4.95595C3.37892 3.71956 3.31721 2.48363 3.25599 1.24724C3.25266 1.1772 3.24839 1.10621 3.25504 1.03663C3.27307 0.848118 3.37749 0.732001 3.56924 0.714607C3.77096 0.696272 3.91573 0.791235 3.94705 0.989152C3.98502 1.22797 3.99452 1.47149 4.0097 1.71312C4.09466 3.07362 4.17725 4.43366 4.26126 5.79416C4.31442 6.65963 3.97553 7.33095 3.24982 7.81046C2.78847 8.1151 2.62757 8.53961 2.67171 9.08259C2.83261 11.073 2.98402 13.0644 3.12451 15.0563C3.18384 15.9001 3.20947 16.7459 3.24792 17.5911C3.26453 17.9573 3.2033 18.3071 3.01677 18.6305C2.85634 18.9084 2.61191 19.0809 2.32143 19.2003H1.94267C1.80788 19.1227 1.65742 19.063 1.54114 18.9639C1.15288 18.6348 1.00575 18.19 1.02901 17.7021C1.11159 15.9735 1.19703 14.2449 1.30856 12.5182C1.38403 11.3466 1.50506 10.1779 1.60521 9.00784C1.6484 8.50341 1.45855 8.11416 1.04135 7.81846C0.837728 7.67413 0.61465 7.52182 0.484601 7.31967C0.284305 7.01222 0.157578 6.65681 0 6.32115C0 6.0861 0 5.85104 0 5.61599Z" fill="#1E1E1E"/>
<path d="M22.776 19.1995C22.0996 18.9456 21.8509 18.397 21.8692 17.7181C21.9002 16.5628 21.9568 15.4075 22.0275 14.2541C22.1138 12.8454 22.2256 11.438 22.3256 10.0301C22.3297 9.97002 22.326 9.90944 22.326 9.8386C22.1827 9.82509 22.0467 9.82229 21.9153 9.79759C21.6113 9.74074 21.4032 9.51845 21.3521 9.20668C21.3398 9.13072 21.3329 9.05243 21.3334 8.97507C21.3425 7.63293 21.311 6.28847 21.3731 4.94913C21.4557 3.16847 22.0782 1.56816 23.1096 0.133748C23.1448 0.0848155 23.1909 0.0442718 23.2319 0C23.2776 0 23.3232 0 23.3684 0C23.5281 0.095068 23.5163 0.253049 23.5163 0.409631C23.5153 2.66796 23.5523 4.92722 23.5058 7.18462C23.4565 9.58882 23.7244 11.972 23.8481 14.3646C23.9056 15.4802 23.9713 16.5963 23.9991 17.7129C24.016 18.3901 23.7686 18.9409 23.0955 19.2H22.7765L22.776 19.1995Z" fill="#1E1E1E"/>
<path d="M12.3482 17.0664C7.98421 17.0589 4.43221 13.5 4.44437 9.14759C4.45653 4.77419 7.99871 1.2302 12.3608 1.24467C16.7318 1.25961 20.2581 4.74852 20.2665 9.16066C20.275 13.5285 16.6996 17.0743 12.3482 17.0668V17.0664ZM18.3629 9.15366C18.3629 5.85657 15.6743 3.16673 12.366 3.15319C9.06141 3.13966 6.35321 5.84257 6.35274 9.15319C6.35274 12.4545 9.03896 15.1467 12.3421 15.1546C15.6481 15.163 18.3629 12.4563 18.3624 9.15319L18.3629 9.15366Z" fill="#1E1E1E"/>
<path d="M12.3507 13.5114C9.94812 13.4975 7.99399 11.5378 8.00001 9.14803C8.00604 6.75552 9.9829 4.7865 12.366 4.80037C14.7723 4.81424 16.718 6.76754 16.7111 9.16282C16.7041 11.5646 14.7384 13.5248 12.3511 13.5109L12.3507 13.5114Z" fill="#1E1E1E"/>
</svg>
