<svg width="24" height="18" viewBox="0 0 24 18" fill="none" xmlns="http://www.w3.org/2000/svg">
<rect x="0.274763" y="16.2285" width="15.8516" height="1.77135" rx="0.865664" fill="black"/>
<path d="M23.6743 10.6268C23.599 10.7063 23.5053 10.7702 23.3997 10.8141C23.2941 10.858 23.179 10.8809 23.0625 10.8813L5.44018 10.929C4.57334 10.9348 3.72783 10.6888 3.03091 10.228C2.334 9.76709 1.82339 9.11633 1.57594 8.37363L0.0690681 3.92542C-0.00848071 3.69655 -0.0210151 3.45402 0.0325992 3.21973C0.0862135 2.98544 0.204286 2.76679 0.376146 2.58354C0.548006 2.40028 0.768235 2.2582 1.01693 2.17013C1.26563 2.08205 1.53496 2.05077 1.80058 2.0791L3.62169 2.27337C3.72993 2.2849 3.83442 2.31597 3.92882 2.3647C4.02322 2.41342 4.10556 2.47878 4.17085 2.55681L5.76692 4.46393L7.49765 4.47092L6.55681 1.8844C6.47321 1.65464 6.45567 1.40975 6.50579 1.17233C6.55591 0.934911 6.67209 0.71259 6.84361 0.525867C7.01513 0.339143 7.23648 0.194028 7.48724 0.103899C7.738 0.0137704 8.01011 -0.0184713 8.27847 0.0101466L10.072 0.201491C10.2677 0.222334 10.4481 0.306715 10.5789 0.438614L14.5583 4.45042L19.3716 4.41531C20.3331 4.40449 21.2669 4.7034 22.0023 5.2574C22.7376 5.8114 23.2254 6.58348 23.3764 7.4325L23.8545 10.0455C23.8734 10.1483 23.867 10.2535 23.8359 10.3538C23.8048 10.4542 23.7496 10.5473 23.6743 10.6268ZM22.1132 9.4446L21.7877 7.6649C21.6971 7.15549 21.4044 6.69225 20.9632 6.35983C20.522 6.02742 19.9618 5.84804 19.3848 5.85449L14.2055 5.8922C14.0906 5.893 13.9768 5.8718 13.8717 5.83003C13.7667 5.78826 13.6729 5.72687 13.5966 5.65001L9.57735 1.5981L8.08781 1.43931L9.37293 4.97245C9.4123 5.08072 9.42237 5.19579 9.40233 5.30821C9.38228 5.42064 9.33269 5.52721 9.25761 5.61916C9.18254 5.71112 9.08413 5.78584 8.97048 5.83719C8.85682 5.88854 8.73116 5.91505 8.60381 5.91454L5.35894 5.90163C5.23442 5.90114 5.11173 5.87484 5.00051 5.82477C4.8893 5.7747 4.7926 5.70225 4.71803 5.6131L3.08849 3.66586L1.60991 3.50826L3.11677 7.95667C3.26521 8.40231 3.57158 8.79278 3.98975 9.06929C4.40793 9.3458 4.91526 9.49338 5.43538 9.48981L22.1132 9.4446Z" fill="black"/>
</svg>
