<svg width="20" height="20" viewBox="0 0 20 20" fill="none" xmlns="http://www.w3.org/2000/svg">
<g clip-path="url(#clip0_0_359)">
<path fill-rule="evenodd" clip-rule="evenodd" d="M5.2444 1.91058C5.56984 1.58514 6.09748 1.58514 6.42291 1.91058L9.75625 5.24392C10.0817 5.56935 10.0817 6.09699 9.75625 6.42243C9.43081 6.74786 8.90317 6.74786 8.57774 6.42243L6.66699 4.51168V15.8332C6.66699 16.2934 6.2939 16.6665 5.83366 16.6665C5.37342 16.6665 5.00033 16.2934 5.00033 15.8332V4.51168L3.08958 6.42243C2.76414 6.74786 2.23651 6.74786 1.91107 6.42243C1.58563 6.09699 1.58563 5.56935 1.91107 5.24392L5.2444 1.91058ZM14.167 3.33317C14.6272 3.33317 15.0003 3.70627 15.0003 4.1665L15.0003 15.488L16.9111 13.5772C17.2365 13.2518 17.7641 13.2518 18.0896 13.5772C18.415 13.9027 18.415 14.4303 18.0896 14.7558L14.7562 18.0891C14.6 18.2454 14.388 18.3332 14.167 18.3332C13.946 18.3332 13.734 18.2454 13.5777 18.0891L10.2444 14.7558C9.91897 14.4303 9.91897 13.9027 10.2444 13.5772C10.5698 13.2518 11.0975 13.2518 11.4229 13.5772L13.3337 15.488L13.3337 4.1665C13.3337 3.70627 13.7068 3.33317 14.167 3.33317Z" fill="#4D8F92"/>
</g>
<defs>
<clipPath id="clip0_0_359">
<rect width="16.6667" height="16.6667" fill="white" transform="translate(1.66699 1.6665)"/>
</clipPath>
</defs>
</svg>
