<svg width="30" height="31" viewBox="0 0 30 31" fill="none" xmlns="http://www.w3.org/2000/svg">
<path d="M10.9855 15.9788C10.9855 15.7729 11.1487 15.606 11.35 15.606C11.5512 15.606 11.7144 15.7729 11.7144 15.9788V17.3253L12.3504 16.7468C12.4998 16.611 12.73 16.6233 12.8647 16.7744C12.9994 16.9255 12.9875 17.1581 12.8381 17.2939L11.7144 18.316V19.9857L13.2222 19.1063L13.5161 17.7099C13.5579 17.5109 13.7515 17.3839 13.9483 17.4261C14.1452 17.4684 14.2708 17.664 14.229 17.863L14.0715 18.611L15.1382 17.989C15.3114 17.888 15.5334 17.9488 15.634 18.1249C15.7346 18.3009 15.6758 18.5255 15.5026 18.6265L14.3494 19.2991L15.1506 19.562C15.3422 19.6249 15.447 19.8326 15.3848 20.0259C15.3226 20.2193 15.1169 20.3251 14.9254 20.2622L13.5 19.7944L12.106 20.6073L13.61 21.4844L14.9421 21.0472C15.1337 20.9844 15.3394 21.0902 15.4015 21.2835C15.4637 21.4768 15.3589 21.6845 15.1673 21.7474L14.4593 21.9798L15.5187 22.5975C15.6919 22.6985 15.7507 22.9231 15.65 23.0992C15.5494 23.2752 15.3274 23.3361 15.1543 23.2351L13.9937 22.5583L14.1715 23.4032C14.2134 23.6021 14.0877 23.7977 13.8909 23.84C13.694 23.8822 13.5005 23.7552 13.4586 23.5562L13.1444 22.063L11.7144 21.229V23.0176L12.7652 23.9733C12.9146 24.1092 12.9265 24.3418 12.7918 24.4928C12.6572 24.6439 12.4269 24.6563 12.2775 24.5204L11.7144 24.0082V25.2452C11.7144 25.4511 11.5512 25.6181 11.35 25.6181C11.1487 25.6181 10.9855 25.4511 10.9855 25.2452V23.9073L10.3589 24.4772C10.2096 24.613 9.9793 24.6007 9.84463 24.4496C9.70996 24.2985 9.72187 24.0659 9.87123 23.9301L10.9855 22.9166V21.2608L9.45429 22.1538L9.16309 23.5376C9.12121 23.7366 8.92768 23.8636 8.73082 23.8214C8.53396 23.7791 8.40831 23.5835 8.45018 23.3845L8.60495 22.6491L7.54566 23.2668C7.37248 23.3678 7.15052 23.307 7.04989 23.1309C6.94926 22.9549 7.00807 22.7303 7.18125 22.6293L8.34185 21.9524L7.52852 21.6855C7.33698 21.6226 7.23212 21.4149 7.29432 21.2216C7.35651 21.0283 7.5622 20.9225 7.75374 20.9854L9.19119 21.4571L10.6483 20.6073L9.11328 19.7121L7.76914 20.1533C7.5776 20.2161 7.37191 20.1104 7.30972 19.917C7.24753 19.7237 7.35238 19.516 7.54392 19.4531L8.26394 19.2168L7.1973 18.5948C7.02412 18.4938 6.96531 18.2692 7.06594 18.0931C7.16657 17.9171 7.38853 17.8562 7.56171 17.9572L8.71494 18.6298L8.53978 17.7974C8.49791 17.5984 8.62355 17.4028 8.82042 17.3606C9.01728 17.3183 9.21081 17.4453 9.25268 17.6443L9.56428 19.1251L10.9855 19.9539V18.1978L9.94412 17.2507C9.79476 17.1148 9.78285 16.8822 9.91751 16.7311C10.0522 16.5801 10.2824 16.5677 10.4318 16.7036L10.9855 17.2072V15.9788Z" fill="#64D2FF"/>
<path d="M15.1365 16.7547C14.9268 16.4874 14.627 16.2894 14.2727 16.2137L14.1682 16.7026L14.2727 16.2137C14.1662 16.1909 14.0595 16.1802 13.9542 16.1808C13.8988 16.0781 13.8306 15.9803 13.7496 15.8898C13.4901 15.5998 13.1442 15.4343 12.7863 15.3984C12.6032 14.7751 12.0363 14.3112 11.3499 14.3112C10.6766 14.3112 10.1182 14.7576 9.92434 15.3632C9.59324 15.4133 9.27688 15.5754 9.0355 15.8451C8.96047 15.929 8.89642 16.0191 8.84329 16.1136C8.72947 16.1109 8.61385 16.1214 8.49843 16.146C8.12499 16.2259 7.81219 16.4414 7.60137 16.731C6.96812 16.5708 6.28454 16.8481 5.94356 17.4424C5.60889 18.0256 5.70035 18.7462 6.12968 19.2228C6.00682 19.5374 5.9864 19.8968 6.09977 20.2479C6.13505 20.3571 6.18145 20.4597 6.23735 20.5546C6.1743 20.6568 6.12241 20.7683 6.08382 20.8878C6.02002 21.0853 5.99857 21.2855 6.0139 21.4788C3.90151 20.7309 2.375 18.6736 2.375 16.2415C2.375 13.1715 4.80445 10.7025 7.77737 10.7025C8.42379 10.7025 9.04274 10.8186 9.61617 11.0315L10.0735 11.2012L10.2544 10.7482C11.4225 7.82493 14.2247 5.77588 17.4852 5.77588C21.7878 5.77588 25.2951 9.34779 25.2951 13.7782C25.2951 13.9734 25.2883 14.1669 25.2749 14.3585L25.2511 14.6999L25.5606 14.8457C26.7755 15.418 27.625 16.6788 27.625 18.1486C27.625 20.1653 26.03 21.7806 24.0865 21.7806H16.6437C16.7076 21.5169 16.7023 21.2316 16.6119 20.9516L16.136 21.1053L16.6118 20.9516C16.5761 20.8409 16.5289 20.737 16.4719 20.6409C16.5212 20.5534 16.5625 20.4596 16.5945 20.3602C16.7141 19.99 16.6849 19.6107 16.5437 19.2842C16.9956 18.8083 17.0978 18.0702 16.7563 17.4751C16.4222 16.8927 15.759 16.6147 15.1365 16.7547Z" fill="white" stroke="#4D8F92"/>
</svg>
