<svg width="40" height="40" viewBox="0 0 40 40" fill="none" xmlns="http://www.w3.org/2000/svg">
<g clip-path="url(#clip0_171_70727)">
<path d="M0 0H40V40H0V0Z" fill="#EE1C25"/>
<path d="M16 10.5437L5.8 17.1437L10 6.34375L13.6 17.1437L4 10.5437H16Z" fill="#FFFF00"/>
<path d="M18.4827 4.92584L22.1172 6.70592L18.3129 7.35958L20.779 4.47879L20.5415 8.35219L18.4827 4.92584Z" fill="#FFFF00"/>
<path d="M23.1147 8.45397L25.7718 11.5101L22.0104 10.6313L25.4054 8.93601L23.6783 12.4141L23.1147 8.45397Z" fill="#FFFF00"/>
<path d="M23.9511 14.2602L25.1293 18.137L22.053 15.7976L25.8464 15.6363L22.848 18.1073L23.9511 14.2602Z" fill="#FFFF00"/>
<path d="M20.7819 18.4088L20.3729 22.4358L18.4399 19.0938L21.9979 20.4078L18.2819 21.5288L20.7819 18.4088Z" fill="#FFFF00"/>
</g>
<defs>
<clipPath id="clip0_171_70727">
<rect width="40" height="40" rx="20" fill="white"/>
</clipPath>
</defs>
</svg>
