<svg width="12" height="15" viewBox="0 0 12 15" fill="none" xmlns="http://www.w3.org/2000/svg">
<path d="M5.97618 7.6432C6.38704 7.6432 6.73889 7.4934 7.03172 7.19378C7.32406 6.89468 7.47022 6.53494 7.47022 6.11456C7.47022 5.69419 7.32406 5.33419 7.03172 5.03458C6.73889 4.73547 6.38704 4.58592 5.97618 4.58592C5.56532 4.58592 5.21372 4.73547 4.92138 5.03458C4.62855 5.33419 4.48213 5.69419 4.48213 6.11456C4.48213 6.53494 4.62855 6.89468 4.92138 7.19378C5.21372 7.4934 5.56532 7.6432 5.97618 7.6432ZM5.97618 14.9998C5.87658 14.9998 5.77697 14.9807 5.67737 14.9425C5.57777 14.9042 5.49061 14.8533 5.41591 14.7896C3.59816 13.1463 2.24107 11.621 1.34464 10.2136C0.448214 8.80574 0 7.49034 0 6.26743C0 4.35663 0.600855 2.83436 1.80257 1.70061C3.00378 0.566871 4.39498 0 5.97618 0C7.55738 0 8.94858 0.566871 10.1498 1.70061C11.3515 2.83436 11.9524 4.35663 11.9524 6.26743C11.9524 7.49034 11.5041 8.80574 10.6077 10.2136C9.71129 11.621 8.3542 13.1463 6.53645 14.7896C6.46174 14.8533 6.37459 14.9042 6.27499 14.9425C6.17538 14.9807 6.07578 14.9998 5.97618 14.9998Z" fill="#3D3D3D"/>
</svg>
