<svg width="24" height="24" viewBox="0 0 24 24" fill="none" xmlns="http://www.w3.org/2000/svg">
<path d="M11.999 19.75H9.31896C8.15896 19.75 7.14896 19.05 6.74896 17.97C6.33896 16.89 6.63896 15.7 7.50896 14.93L15.499 7.94C15.979 7.52 15.989 6.95 15.849 6.56C15.699 6.17 15.319 5.75 14.679 5.75H11.999C11.589 5.75 11.249 5.41 11.249 5C11.249 4.59 11.589 4.25 11.999 4.25H14.679C15.839 4.25 16.849 4.95 17.249 6.03C17.659 7.11 17.359 8.3 16.489 9.07L8.49896 16.06C8.01896 16.48 8.00896 17.05 8.14896 17.44C8.29896 17.83 8.67896 18.25 9.31896 18.25H11.999C12.409 18.25 12.749 18.59 12.749 19C12.749 19.41 12.409 19.75 11.999 19.75Z" fill="white"/>
<path d="M19.9985 15H16.9985C15.8985 15 14.9985 15.9 14.9985 17V20C14.9985 21.1 15.8985 22 16.9985 22H19.9985C21.0985 22 21.9985 21.1 21.9985 20V17C21.9985 15.9 21.0985 15 19.9985 15ZM18.5085 19.5C17.9585 19.5 17.5085 19.05 17.5085 18.5C17.5085 17.95 17.9485 17.5 18.5085 17.5H18.5185C19.0685 17.5 19.5185 17.95 19.5185 18.5C19.5185 19.05 19.0685 19.5 18.5085 19.5Z" fill="white"/>
<path d="M5.46875 2C3.53875 2 1.96875 3.57 1.96875 5.5C1.96875 7.43 3.53875 9 5.46875 9C7.39875 9 8.96875 7.43 8.96875 5.5C8.96875 3.57 7.40875 2 5.46875 2ZM5.50875 6.5C4.95875 6.5 4.50875 6.05 4.50875 5.5C4.50875 4.95 4.94875 4.5 5.50875 4.5H5.51875C6.06875 4.5 6.51875 4.95 6.51875 5.5C6.51875 6.05 6.06875 6.5 5.50875 6.5Z" fill="white"/>
</svg>
