<svg width="14" height="16" viewBox="0 0 14 16" fill="none" xmlns="http://www.w3.org/2000/svg">
<g clip-path="url(#clip0_32_4168)">
<path d="M13.8651 13.3759C13.8651 13.7353 13.7231 14.08 13.4703 14.3342C13.2175 14.5884 12.8746 14.7312 12.5171 14.7312H3.08112C2.7236 14.7312 2.38074 14.5884 2.12794 14.3342C1.87514 14.08 1.73312 13.7353 1.73312 13.3759C1.73312 12.2976 2.15918 11.2634 2.91758 10.5009C3.67597 9.7384 4.70458 9.31003 5.77712 9.31003H9.82112C10.8937 9.31003 11.9223 9.7384 12.6807 10.5009C13.4391 11.2634 13.8651 12.2976 13.8651 13.3759ZM7.79912 7.95475C8.46564 7.95475 9.11719 7.75604 9.67139 7.38373C10.2256 7.01143 10.6575 6.48227 10.9126 5.86315C11.1677 5.24404 11.2344 4.56279 11.1044 3.90554C10.9743 3.24829 10.6534 2.64457 10.1821 2.17072C9.71076 1.69687 9.11029 1.37418 8.45657 1.24344C7.80286 1.11271 7.12526 1.1798 6.50947 1.43625C5.89369 1.69269 5.36736 2.12697 4.99706 2.68416C4.62676 3.24134 4.42912 3.89642 4.42912 4.56654C4.42912 5.46515 4.78417 6.32696 5.41617 6.96237C6.04816 7.59778 6.90534 7.95475 7.79912 7.95475Z" fill="black"/>
</g>
<defs>
<clipPath id="clip0_32_4168">
<rect width="13.2893" height="15.3356" fill="white" transform="scale(1.04333)"/>
</clipPath>
</defs>
</svg>
