<svg width="24" height="24" viewBox="0 0 24 24" fill="none" xmlns="http://www.w3.org/2000/svg">
<path opacity="0.8" d="M2.54297 3.23261C2.54297 2.29087 3.22462 1.48751 4.15379 1.33417L4.40456 1.29279C9.59081 0.436914 14.8834 0.451312 20.065 1.33539C20.9607 1.48823 21.6158 2.26457 21.6158 3.17327V17.8671C21.6158 20.6651 19.3476 22.9333 16.5496 22.9333H7.60919C4.81119 22.9333 2.54297 20.6651 2.54297 17.8671V3.23261Z" fill="#4D8F92"/>
<path d="M20.3447 21.8296C20.3447 22.8157 19.5706 23.628 18.5857 23.6756L11.8613 24L5.41296 23.6783C4.42877 23.6292 3.65598 22.817 3.65599 21.8315C3.65599 19.7891 5.31173 18.1333 7.35419 18.1333L16.6485 18.1333C18.6899 18.1333 20.3447 19.7882 20.3447 21.8296Z" fill="#4D8F92"/>
<path d="M19.0732 5.69114C19.0732 5.61604 19.115 5.54719 19.1817 5.51255L19.2417 5.48132C20.7033 4.72135 22.4461 4.73336 23.8971 5.51338C23.9607 5.54759 24.0004 5.61399 24.0004 5.68624V20.4697C24.0004 21.8303 22.8974 22.9333 21.5368 22.9333C20.1762 22.9333 19.0732 21.8303 19.0732 20.4697V5.69114Z" fill="#4D8F92"/>
<path d="M0 5.69114C0 5.61604 0.0418034 5.54719 0.108432 5.51255L0.168489 5.48132C1.63005 4.72135 3.37287 4.73336 4.82383 5.51338C4.88746 5.54759 4.92715 5.61399 4.92715 5.68624V20.4697C4.92715 21.8303 3.82417 22.9333 2.46358 22.9333C1.10298 22.9333 0 21.8303 0 20.4697V5.69114Z" fill="#4D8F92"/>
</svg>
