<svg width="297" height="47" viewBox="0 0 297 47" fill="none" xmlns="http://www.w3.org/2000/svg">
<rect x="0.5" y="0.5" width="296" height="45.0854" rx="19.5" fill="white" stroke="#E9E9E9"/>
<path d="M30.3324 22.0413C30.3324 26.2959 26.9418 29.7449 22.7593 29.7449C18.5768 29.7449 15.1862 26.2959 15.1862 22.0413C15.1862 17.7867 18.5768 14.3377 22.7593 14.3377C26.9418 14.3377 30.3324 17.7867 30.3324 22.0413ZM16.5925 22.0413C16.5925 25.5058 19.3535 28.3144 22.7593 28.3144C26.1652 28.3144 28.9261 25.5058 28.9261 22.0413C28.9261 18.5768 26.1652 15.7682 22.7593 15.7682C19.3535 15.7682 16.5925 18.5768 16.5925 22.0413Z" fill="#636363"/>
<line y1="-0.752212" x2="7.74444" y2="-0.752212" transform="matrix(0.778788 0.62879 -0.615751 0.789137 27.6333 26.8784)" stroke="#636363" stroke-width="1.50442"/>
</svg>
