<svg width="91" height="20" viewBox="0 0 91 20" fill="none" xmlns="http://www.w3.org/2000/svg">
<path d="M0.000325441 10C0.000325441 11.4728 1.19423 12.6667 2.66699 12.6667C4.13975 12.6667 5.33366 11.4728 5.33366 10C5.33366 8.52724 4.13975 7.33333 2.66699 7.33333C1.19423 7.33333 0.000325441 8.52724 0.000325441 10ZM2.66699 10.5H4.31042V9.5H2.66699V10.5ZM7.59727 10.5H10.8841V9.5H7.59727V10.5ZM14.171 10.5H17.4578V9.5H14.171V10.5ZM20.7447 10.5H24.0315V9.5H20.7447V10.5ZM27.3184 10.5H30.6052V9.5H27.3184V10.5ZM33.8921 10.5H35.5355V9.5H33.8921V10.5Z" fill="#E0E0E0"/>
<g clip-path="url(#clip0_156_4776)">
<path d="M40.7574 19.4001H42.7096L47.0905 11.3991H52.1292C52.1292 11.3991 55.0575 11.3991 55.0575 10.0001C55.0575 8.6001 52.1292 8.6001 52.1292 8.6001H47.0905L42.7096 0.600098H40.7574L43.186 8.6001H39.6846L37.4874 6.5991H35.5352L37.0979 9.9991L35.5352 13.4001H37.4874L39.6846 11.3991H43.186L40.7574 19.4001Z" fill="#4D8F92"/>
</g>
<path d="M85.2595 10C85.2595 11.4728 86.4534 12.6667 87.9261 12.6667C89.3989 12.6667 90.5928 11.4728 90.5928 10C90.5928 8.52724 89.3989 7.33333 87.9261 7.33333C86.4534 7.33333 85.2595 8.52724 85.2595 10ZM55.0576 10.5H56.701V9.5H55.0576V10.5ZM59.9879 10.5H63.2747V9.5H59.9879V10.5ZM66.5616 10.5H69.8485V9.5H66.5616V10.5ZM73.1353 10.5H76.4222V9.5H73.1353V10.5ZM79.709 10.5H82.9959V9.5H79.709V10.5ZM86.2827 10.5H87.9261V9.5H86.2827V10.5Z" fill="#E0E0E0"/>
<defs>
<clipPath id="clip0_156_4776">
<rect width="19.5224" height="20" fill="white" transform="translate(35.5352)"/>
</clipPath>
</defs>
</svg>
