<svg width="17" height="20" viewBox="0 0 17 20" fill="none" xmlns="http://www.w3.org/2000/svg">
<path d="M7.01609 9.34989L5.54741 1.99156C5.52988 1.89794 5.4872 1.81464 5.42647 1.75551C5.36574 1.69638 5.29062 1.66499 5.21362 1.66656C3.07068 1.66656 1.33496 3.83323 1.33496 6.50823V11.2582C1.33496 11.5416 1.55526 11.7499 1.77557 11.6666L6.78243 9.85823C6.86715 9.82897 6.93921 9.75918 6.98296 9.66401C7.0267 9.56883 7.03861 9.45596 7.01609 9.34989ZM7.42331 11.3991C7.4121 11.3433 7.39204 11.291 7.36432 11.2451C7.3366 11.1993 7.30179 11.1608 7.26194 11.1321C7.2221 11.1033 7.17803 11.0848 7.13236 11.0777C7.08669 11.0706 7.04034 11.0751 6.99606 11.0907L1.58197 13.0574C1.4351 13.1157 1.33496 13.2824 1.33496 13.4741V13.4907C1.33496 16.1657 3.07068 18.3324 5.21362 18.3324H8.3646C8.58491 18.3324 8.7518 18.0741 8.6984 17.7991L7.42331 11.3991ZM10.808 1.66656H6.96936C6.74905 1.66656 6.58216 1.92489 6.63557 2.19989L9.79991 18.0082C9.83996 18.1999 9.97348 18.3332 10.1337 18.3332H10.8013C12.9509 18.3332 14.6866 16.1666 14.6866 13.4916V6.50823C14.6866 3.83323 12.9509 1.66656 10.808 1.66656Z" fill="#4D8F92"/>
</svg>
