<svg width="16" height="16" viewBox="0 0 16 16" fill="none" xmlns="http://www.w3.org/2000/svg">
<circle cx="8" cy="8" r="8" transform="rotate(-180 8 8)" fill="#4D8F92"/>
<mask id="mask0_32_9873" style="mask-type:alpha" maskUnits="userSpaceOnUse" x="0" y="0" width="16" height="16">
<circle cx="8" cy="8" r="8" transform="rotate(-180 8 8)" fill="#2F80ED"/>
</mask>
<g mask="url(#mask0_32_9873)">
<rect x="3.20001" y="9.6001" width="14.4" height="1.6" rx="0.8" fill="white"/>
</g>
<path d="M3.20001 5.15005C3.20001 4.97851 3.36883 4.85793 3.53109 4.91356L4.37118 5.20159C4.47629 5.23763 4.5904 5.23763 4.69551 5.20159L5.70452 4.85565C5.80962 4.81961 5.92374 4.81961 6.02884 4.85565L7.03785 5.20159C7.14295 5.23763 7.25707 5.23763 7.36217 5.20159L8.37118 4.85565C8.47629 4.81961 8.5904 4.81961 8.69551 4.85565L9.70452 5.20159C9.80962 5.23763 9.92374 5.23763 10.0288 5.20159L10.8689 4.91356C11.0312 4.85793 11.2 4.97851 11.2 5.15005V7.50005C11.2 7.77619 10.9762 8.00005 10.7 8.00005H3.70001C3.42387 8.00005 3.20001 7.77619 3.20001 7.50005V5.15005Z" fill="white"/>
</svg>
