<svg width="24" height="24" viewBox="0 0 24 24" fill="none" xmlns="http://www.w3.org/2000/svg">
<g clip-path="url(#clip0_0_899)">
<path d="M6.37464 17.0637L3.08746 11.8814C2.90621 11.5957 3.0552 11.2162 3.38244 11.1301L4.17458 10.9216C4.47745 10.8419 4.80015 10.9087 5.0465 11.1021L6.62192 12.3387L9.5197 11.5622L5.21304 5.80574C4.97953 5.4936 5.17715 5.04617 5.56514 5.00855L7.2669 4.84354C7.5478 4.8163 7.82712 4.90902 8.03597 5.09883L13.8664 10.3975L18.4544 9.1682C19.6547 8.84657 20.8885 9.55889 21.2101 10.7592C21.5317 11.9595 20.8194 13.1933 19.6191 13.5149L6.37464 17.0637Z" fill="white"/>
<path d="M3 20.0002C2.44772 20.0002 2 20.4479 2 21.0002C2 21.5524 2.44772 22.0002 3 22.0002H21C21.5523 22.0002 22 21.5524 22 21.0002C22 20.4479 21.5523 20.0002 21 20.0002H3Z" fill="white"/>
</g>
<defs>
<clipPath id="clip0_0_899">
<rect width="20" height="20" fill="white" transform="translate(2 2)"/>
</clipPath>
</defs>
</svg>
