<svg width="24" height="24" viewBox="0 0 24 24" fill="none" xmlns="http://www.w3.org/2000/svg">
<path opacity="0.8" d="M2.54297 3.23261C2.54297 2.29087 3.22462 1.48751 4.15379 1.33417L4.40456 1.29279C9.59081 0.436914 14.8834 0.451312 20.065 1.33539C20.9607 1.48823 21.6158 2.26457 21.6158 3.17327V17.8671C21.6158 20.6651 19.3476 22.9333 16.5496 22.9333H7.60919C4.81119 22.9333 2.54297 20.6651 2.54297 17.8671V3.23261Z" fill="#AFB5C8"/>
<path d="M20.3438 21.8296C20.3438 22.8157 19.5696 23.628 18.5847 23.6756L11.8603 24L5.41199 23.6783C4.42779 23.6292 3.65501 22.817 3.65501 21.8315C3.65501 19.7891 5.31075 18.1333 7.35321 18.1333L16.6475 18.1333C18.6889 18.1333 20.3438 19.7882 20.3438 21.8296Z" fill="#AFB5C8"/>
<path d="M19.0723 5.69114C19.0723 5.61604 19.1141 5.54719 19.1807 5.51255L19.2408 5.48132C20.7023 4.72135 22.4451 4.73336 23.8961 5.51338C23.9597 5.54759 23.9994 5.61399 23.9994 5.68624V20.4697C23.9994 21.8303 22.8964 22.9333 21.5358 22.9333C20.1752 22.9333 19.0723 21.8303 19.0723 20.4697V5.69114Z" fill="#AFB5C8"/>
<path d="M0 5.69114C0 5.61604 0.0418034 5.54719 0.108432 5.51255L0.168489 5.48132C1.63005 4.72135 3.37287 4.73336 4.82383 5.51338C4.88746 5.54759 4.92715 5.61399 4.92715 5.68624V20.4697C4.92715 21.8303 3.82417 22.9333 2.46358 22.9333C1.10298 22.9333 0 21.8303 0 20.4697V5.69114Z" fill="#AFB5C8"/>
</svg>
