<svg width="21" height="24" viewBox="0 0 21 24" fill="none" xmlns="http://www.w3.org/2000/svg">
<path d="M21 16.875V1.125C21 0.515625 20.4844 0 19.875 0H4.5C2.01562 0 0 2.01562 0 4.5V19.5C0 21.9844 2.01562 24 4.5 24H19.875C20.4844 24 21 23.5312 21 22.875V22.125C21 21.7969 20.8125 21.4688 20.5781 21.2812C20.3438 20.5312 20.3438 18.4688 20.5781 17.7656C20.8125 17.5781 21 17.25 21 16.875ZM6 6.28125C6 6.14062 6.09375 6 6.28125 6H16.2188C16.3594 6 16.5 6.14062 16.5 6.28125V7.21875C16.5 7.40625 16.3594 7.5 16.2188 7.5H6.28125C6.09375 7.5 6 7.40625 6 7.21875V6.28125ZM6 9.28125C6 9.14062 6.09375 9 6.28125 9H16.2188C16.3594 9 16.5 9.14062 16.5 9.28125V10.2188C16.5 10.4062 16.3594 10.5 16.2188 10.5H6.28125C6.09375 10.5 6 10.4062 6 10.2188V9.28125ZM17.8594 21H4.5C3.65625 21 3 20.3438 3 19.5C3 18.7031 3.65625 18 4.5 18H17.8594C17.7656 18.8438 17.7656 20.2031 17.8594 21Z" fill="#4D8F92"/>
</svg>
