<svg width="24" height="24" viewBox="0 0 24 24" fill="none" xmlns="http://www.w3.org/2000/svg">
<path d="M18.571 2.84977C17.0207 1.95491 15.1783 1.71251 13.4493 2.17591C11.7202 2.6393 10.246 3.77053 9.351 5.32077L9.101 5.75377C9.05166 5.83906 9.0196 5.93323 9.00667 6.03091C8.99374 6.12859 9.00018 6.22786 9.02562 6.32305C9.05107 6.41823 9.09502 6.50748 9.15497 6.58567C9.21492 6.66387 9.28968 6.72948 9.375 6.77877L13.909 9.39677L11.104 14.3068C9.224 14.5458 7.562 15.5238 6.321 16.9138C6.68473 16.9729 7.02504 17.1314 7.30438 17.3718C7.58372 17.6121 7.79123 17.9249 7.904 18.2758C8.139 19.0088 8.628 19.2318 9.022 19.2358C9.425 19.2408 9.884 19.0228 10.102 18.3678C10.2347 17.9695 10.4893 17.623 10.8299 17.3775C11.1705 17.132 11.5797 16.9998 11.9995 16.9998C12.4193 16.9998 12.8285 17.132 13.1691 17.3775C13.5097 17.623 13.7643 17.9695 13.897 18.3678C14.116 19.0228 14.575 19.2408 14.977 19.2358C15.371 19.2318 15.86 19.0088 16.096 18.2758C16.2088 17.9249 16.4163 17.6121 16.6956 17.3718C16.975 17.1314 17.3153 16.9729 17.679 16.9138C16.425 15.5088 14.741 14.5248 12.836 14.2988L15.209 10.1468L19.767 12.7788C19.8523 12.8281 19.9465 12.8602 20.0441 12.8731C20.1418 12.886 20.2411 12.8796 20.3363 12.8542C20.4315 12.8287 20.5207 12.7848 20.5989 12.7248C20.6771 12.6649 20.7427 12.5901 20.792 12.5048L21.042 12.0708C21.9369 10.5205 22.1795 8.67832 21.7163 6.94928C21.2531 5.22024 20.1221 3.74599 18.572 2.85077L18.571 2.84977ZM6.714 18.6598C6.66398 18.5037 6.56424 18.3684 6.43001 18.2744C6.29579 18.1804 6.13447 18.1329 5.97073 18.1393C5.80699 18.1456 5.64983 18.2054 5.52329 18.3095C5.39675 18.4136 5.30778 18.5563 5.27 18.7158C5.06 19.6068 4.663 20.0798 4.229 20.3498C3.769 20.6358 3.179 20.7508 2.5 20.7508C2.30109 20.7508 2.11032 20.8298 1.96967 20.9704C1.82902 21.1111 1.75 21.3019 1.75 21.5008C1.75 21.6997 1.82902 21.8905 1.96967 22.0311C2.11032 22.1718 2.30109 22.2508 2.5 22.2508C3.322 22.2508 4.23 22.1158 5.021 21.6238C5.44417 21.3602 5.80623 21.0094 6.083 20.5948C7.635 22.4608 10.493 22.4518 12 20.5658C13.534 22.4848 16.466 22.4608 17.997 20.4958C18.845 21.6038 20.167 22.2508 21.5 22.2508C21.6989 22.2508 21.8897 22.1718 22.0303 22.0311C22.171 21.8905 22.25 21.6997 22.25 21.5008C22.25 21.3019 22.171 21.1111 22.0303 20.9704C21.8897 20.8298 21.6989 20.7508 21.5 20.7508C20.317 20.7508 19.116 19.9538 18.716 18.6668C18.6686 18.5146 18.5741 18.3815 18.446 18.2868C18.3179 18.192 18.1629 18.1405 18.0036 18.1397C17.8442 18.1389 17.6888 18.1889 17.5597 18.2824C17.4307 18.3759 17.3348 18.5081 17.286 18.6598C16.502 21.0998 13.476 21.0588 12.711 18.7638C12.661 18.6148 12.5655 18.4853 12.4379 18.3936C12.3103 18.3018 12.1571 18.2525 12 18.2525C11.8429 18.2525 11.6897 18.3018 11.5621 18.3936C11.4345 18.4853 11.339 18.6148 11.289 18.7638C10.524 21.0588 7.498 21.0988 6.714 18.6598Z" fill="#1E1E1E"/>
</svg>
