<svg width="24" height="33" viewBox="0 0 24 33" fill="none" xmlns="http://www.w3.org/2000/svg">
<mask id="path-1-outside-1_32_7014" maskUnits="userSpaceOnUse" x="-2" y="-2" width="28" height="37" fill="black">
<rect fill="white" x="-2" y="-2" width="28" height="37"/>
<path d="M10.75 31.375C1.625 18.25 0 16.875 0 12C0 5.375 5.3125 0 12 0C18.625 0 24 5.375 24 12C24 16.875 22.3125 18.25 13.1875 31.375C12.625 32.25 11.3125 32.25 10.75 31.375Z"/>
</mask>
<path d="M10.75 31.375C1.625 18.25 0 16.875 0 12C0 5.375 5.3125 0 12 0C18.625 0 24 5.375 24 12C24 16.875 22.3125 18.25 13.1875 31.375C12.625 32.25 11.3125 32.25 10.75 31.375Z" fill="#4D8F92"/>
<path d="M10.75 31.375L12.4324 30.2935L12.4128 30.263L12.3921 30.2333L10.75 31.375ZM13.1875 31.375L11.5454 30.2333L11.5247 30.263L11.5051 30.2935L13.1875 31.375ZM12.3921 30.2333C7.76653 23.5801 5.17025 20.0835 3.67084 17.5693C2.94582 16.3536 2.54774 15.4777 2.31772 14.6825C2.09137 13.9001 2 13.1002 2 12H-2C-2 13.3373 -1.88825 14.5374 -1.52475 15.794C-1.16493 17.0379 -0.586442 18.2401 0.235406 19.6182C1.82975 22.2915 4.60847 26.0449 9.10787 32.5167L12.3921 30.2333ZM2 12C2 6.47277 6.42386 2 12 2V-2C4.20114 -2 -2 4.27723 -2 12H2ZM12 2C17.5204 2 22 6.47957 22 12H26C26 4.27043 19.7296 -2 12 -2V2ZM22 12C22 13.095 21.9057 13.8919 21.6755 14.6724C21.441 15.4672 21.0363 16.3436 20.3025 17.5617C18.7844 20.0817 16.1738 23.576 11.5454 30.2333L14.8296 32.5167C19.3262 26.049 22.1219 22.2933 23.7288 19.6258C24.5575 18.2501 25.1449 17.0484 25.512 15.8042C25.8833 14.5456 26 13.3425 26 12H22ZM11.5051 30.2935C11.6263 30.105 11.8232 30.0312 11.9688 30.0312C12.1143 30.0312 12.3112 30.105 12.4324 30.2935L9.06764 32.4565C10.4174 34.5562 13.5201 34.5562 14.8699 32.4565L11.5051 30.2935Z" fill="#E8F4F4" mask="url(#path-1-outside-1_32_7014)"/>
</svg>
