<svg width="274" height="266" viewBox="0 0 274 266" fill="none" xmlns="http://www.w3.org/2000/svg">
<mask id="path-1-outside-1_32_4249" maskUnits="userSpaceOnUse" x="0" y="0" width="274.478" height="266.464" fill="black">
<rect fill="white" width="274.478" height="266.464"/>
<path fill-rule="evenodd" clip-rule="evenodd" d="M12.0209 24.0419C12.0209 17.4029 17.4029 12.0209 24.0419 12.0209H249.739C256.378 12.0209 261.76 17.4029 261.76 24.0419V197.762C253.35 197.762 246.532 202.742 246.532 208.885C246.532 215.027 253.35 220.007 261.76 220.007V241.958C261.76 248.597 256.378 253.979 249.739 253.979H24.0419C17.4029 253.979 12.0209 248.597 12.0209 241.958V219.952C19.7161 219.394 25.726 214.652 25.726 208.885C25.726 203.117 19.7161 198.375 12.0209 197.817V24.0419Z"/>
</mask>
<path fill-rule="evenodd" clip-rule="evenodd" d="M12.0209 24.0419C12.0209 17.4029 17.4029 12.0209 24.0419 12.0209H249.739C256.378 12.0209 261.76 17.4029 261.76 24.0419V197.762C253.35 197.762 246.532 202.742 246.532 208.885C246.532 215.027 253.35 220.007 261.76 220.007V241.958C261.76 248.597 256.378 253.979 249.739 253.979H24.0419C17.4029 253.979 12.0209 248.597 12.0209 241.958V219.952C19.7161 219.394 25.726 214.652 25.726 208.885C25.726 203.117 19.7161 198.375 12.0209 197.817V24.0419Z" fill="white"/>
<path d="M261.76 197.762L261.76 209.783L273.781 209.783V197.762H261.76ZM261.76 220.007H273.781V207.986L261.76 207.986L261.76 220.007ZM12.0209 219.952L11.1514 207.962L0 208.771V219.952H12.0209ZM12.0209 197.817H0V208.998L11.1515 209.807L12.0209 197.817ZM24.0419 0C10.7639 0 0 10.7639 0 24.0419H24.0419L24.0419 24.0419V0ZM249.739 0H24.0419V24.0419H249.739V0ZM273.781 24.0419C273.781 10.7639 263.017 0 249.739 0V24.0419H273.781ZM273.781 197.762V24.0419H249.739V197.762H273.781ZM258.553 208.885C258.553 209.639 258.33 210.236 258.131 210.579C257.954 210.885 257.861 210.889 258.082 210.727C258.57 210.371 259.831 209.783 261.76 209.783L261.759 185.741C255.278 185.741 248.926 187.643 243.902 191.313C238.887 194.975 234.511 201.042 234.511 208.885H258.553ZM261.76 207.986C259.831 207.986 258.57 207.398 258.082 207.042C257.861 206.88 257.954 206.884 258.131 207.19C258.33 207.533 258.553 208.131 258.553 208.885H234.511C234.511 216.727 238.887 222.794 243.902 226.456C248.926 230.126 255.278 232.028 261.759 232.028L261.76 207.986ZM273.781 241.958V220.007H249.739V241.958H273.781ZM249.739 266C263.017 266 273.781 255.236 273.781 241.958H249.739V241.958V266ZM24.0419 266H249.739V241.958H24.0419V266ZM0 241.958C0 255.236 10.7639 266 24.0419 266V241.958H24.0419H0ZM0 219.952V241.958H24.0419V219.952H0ZM13.7051 208.885C13.7051 208.183 13.8993 207.608 14.0927 207.251C14.2687 206.925 14.3873 206.875 14.2389 206.994C13.8979 207.267 12.8693 207.838 11.1514 207.962L12.8904 231.941C18.8677 231.508 24.6917 229.429 29.2794 225.75C33.8862 222.056 37.747 216.23 37.747 208.885H13.7051ZM11.1515 209.807C12.8694 209.931 13.8979 210.502 14.2389 210.776C14.3873 210.895 14.2687 210.844 14.0927 210.519C13.8993 210.161 13.7051 209.586 13.7051 208.885H37.747C37.747 201.54 33.8862 195.713 29.2794 192.019C24.6917 188.34 18.8677 186.261 12.8904 185.828L11.1515 209.807ZM0 24.0419V197.817H24.0419V24.0419H0Z" fill="black" mask="url(#path-1-outside-1_32_4249)"/>
</svg>
