<svg width="11" height="11" viewBox="0 0 11 11" fill="none" xmlns="http://www.w3.org/2000/svg">
<path d="M4.91402 0.359804C4.99626 0.195322 5.09907 0.0925211 5.26355 0.0308404C5.42804 -0.0102801 5.57196 -0.0102801 5.73645 0.0308404C5.90093 0.0925211 6.0243 0.195322 6.10654 0.359804L7.44299 3.07376L10.4449 3.50552C10.6093 3.54664 10.7533 3.62888 10.8561 3.75225C10.9589 3.89617 11 4.04009 11 4.20457C11 4.36905 10.9383 4.51297 10.815 4.63634L8.63551 6.75404L9.14953 9.75584C9.17009 9.92032 9.12897 10.0848 9.04673 10.2287C8.96449 10.3726 8.84112 10.4549 8.67664 10.496C8.51215 10.5371 8.34766 10.5166 8.20374 10.4343L5.51028 9.03623L2.81682 10.4343C2.65234 10.5166 2.50841 10.5371 2.34393 10.496C2.17944 10.4549 2.03551 10.3726 1.95327 10.2287C1.87103 10.0848 1.82991 9.92032 1.87103 9.75584L2.38505 6.75404L0.205607 4.63634C0.082243 4.51297 0 4.36905 0 4.20457C0 4.04009 0.0411215 3.89617 0.143925 3.75225C0.246729 3.62888 0.390654 3.54664 0.575701 3.50552L3.57757 3.07376L4.91402 0.359804Z" fill="#FFF1DC"/>
</svg>
