<svg width="18" height="25" viewBox="0 0 18 25" fill="none" xmlns="http://www.w3.org/2000/svg">
<path d="M10.531 17.0148C10.531 17.3507 10.6403 17.6774 10.8424 17.9457C11.0445 18.2139 11.3285 18.4091 11.6513 18.5017C11.9742 18.5943 12.3184 18.5793 12.632 18.4589C12.9456 18.3386 13.2114 18.1195 13.3894 17.8346L17.5473 13.6784C17.6909 13.5347 17.8048 13.3641 17.8824 13.1763C17.9601 12.9886 18.0001 12.7874 18 12.5842C17.9999 12.3811 17.9598 12.1799 17.882 11.9922C17.8042 11.8045 17.6902 11.634 17.5465 11.4904C17.4028 11.3468 17.2322 11.2329 17.0444 11.1552C16.8567 11.0775 16.6555 11.0376 16.4523 11.0377C16.2492 11.0377 16.048 11.0778 15.8603 11.1556C15.6727 11.2335 15.5021 11.3475 15.3585 11.4912L13.6261 13.2236V1.5468C13.6261 1.13656 13.4631 0.74313 13.1731 0.453048C12.883 0.162967 12.4895 0 12.0793 0C11.6691 0 11.2756 0.162967 10.9855 0.453048C10.6955 0.74313 10.5325 1.13656 10.5325 1.5468V16.9375V17.0148H10.531Z" fill="white"/>
<path d="M7.48697 7.73386C7.48697 7.39799 7.37765 7.07124 7.17552 6.803C6.97339 6.53475 6.68945 6.33959 6.36659 6.24699C6.04374 6.1544 5.69951 6.16941 5.38594 6.28975C5.07237 6.4101 4.80649 6.62924 4.62848 6.91406L0.47222 11.0703C0.324485 11.213 0.206646 11.3837 0.125579 11.5724C0.0445129 11.7611 0.00184313 11.9641 5.84027e-05 12.1695C-0.00172632 12.3749 0.0374101 12.5785 0.115185 12.7686C0.192959 12.9587 0.307814 13.1314 0.453048 13.2767C0.598281 13.4219 0.770985 13.5368 0.961081 13.6145C1.15118 13.6923 1.35486 13.7314 1.56024 13.7297C1.76563 13.7279 1.9686 13.6852 2.15731 13.6041C2.34603 13.5231 2.51671 13.4052 2.6594 13.2575L4.39336 11.5251V23.2019C4.39336 23.6121 4.55633 24.0056 4.84641 24.2956C5.13649 24.5857 5.52993 24.7487 5.94017 24.7487C6.3504 24.7487 6.74384 24.5857 7.03392 24.2956C7.324 24.0056 7.48697 23.6121 7.48697 23.2019V7.8112V7.73386Z" fill="white"/>
</svg>
