<svg width="25" height="11" viewBox="0 0 25 11" fill="none" xmlns="http://www.w3.org/2000/svg">
<path d="M6.81941 9.84367V10.8814H0V0.0592992H6.81941V1.09704H1.24528V4.86253H6.52291V5.92992H1.24528V9.84367H6.81941ZM14.4097 3.23181H15.9218L12.9569 6.93801L16.0997 10.8814H14.6173L12.2156 7.88679L9.81402 10.8814H8.33154L11.504 6.93801L8.50943 3.23181H9.99191L12.2156 6.04852L14.4097 3.23181ZM18.8275 1.39353H17.345V0H18.8275V1.39353ZM18.6792 3.23181V10.8814H17.4636V3.23181H18.6792ZM24.9057 3.23181V4.21024H22.7116V8.39084C22.7116 9.51752 23.2156 9.93261 24.0458 9.93261C24.3423 9.93261 24.6092 9.87332 24.876 9.78437V10.8221C24.5499 10.9407 24.1941 11 23.8086 11C22.3558 11 21.496 10.1402 21.496 8.56873V4.21024H20.0135V3.23181H21.496V1.27493L22.7116 0.859838V3.23181H24.9057Z" fill="black"/>
</svg>
