<svg width="7" height="2" viewBox="0 0 7 2" fill="none" xmlns="http://www.w3.org/2000/svg">
<path fill-rule="evenodd" clip-rule="evenodd" d="M3.50001 1.72537C3.50001 1.72537 7.00001 1.25481 7.00001 0.705832C7.00001 0.518634 6.63126 0.339103 5.97488 0.206734C5.31851 0.0743643 4.42827 0 3.50001 0C2.57175 0 1.68151 0.0743643 1.02513 0.206734C0.36875 0.339103 0 0.518634 0 0.705832C0 1.25481 3.50001 1.72537 3.50001 1.72537ZM4.66647 0.700931C4.66647 0.84982 4.01355 0.970519 3.20814 0.970519C2.40272 0.970519 1.7498 0.84982 1.7498 0.700931C1.7498 0.552041 2.40272 0.431342 3.20814 0.431342C4.01355 0.431342 4.66647 0.552041 4.66647 0.700931Z" fill="#111417" fill-opacity="0.2"/>
</svg>
