<svg width="26" height="23" viewBox="0 0 26 23" fill="none" xmlns="http://www.w3.org/2000/svg">
<path d="M18.0416 5.5547C18.4484 5.5547 18.7846 5.8251 18.8378 6.17592L18.8451 6.27345L18.845 17.5818L21.8409 14.8913C22.1539 14.61 22.6627 14.6089 22.9772 14.889C23.2632 15.1436 23.2901 15.5428 23.0575 15.8247L22.9799 15.9054L18.611 19.8314C18.5846 19.8545 18.5578 19.8755 18.5296 19.8949L18.611 19.8314C18.5716 19.8668 18.529 19.8978 18.4842 19.9243C18.4686 19.9331 18.4523 19.942 18.4357 19.9503C18.4202 19.9587 18.4045 19.966 18.3887 19.9728C18.373 19.979 18.357 19.9853 18.3409 19.9911C18.3203 19.9989 18.2992 20.0056 18.2779 20.0114C18.2654 20.0144 18.2525 20.0177 18.2395 20.0206C18.2164 20.0263 18.1931 20.0306 18.1697 20.0339C18.1588 20.0351 18.1473 20.0365 18.1358 20.0377C18.1094 20.0409 18.0832 20.0425 18.057 20.043C18.0518 20.0425 18.0467 20.0426 18.0416 20.0426L18.0259 20.043C17.9998 20.0425 17.9736 20.0409 17.9476 20.0382L18.0416 20.0426C17.9978 20.0426 17.9549 20.0394 17.913 20.0334C17.8898 20.0306 17.8666 20.0263 17.8435 20.0211C17.8313 20.0178 17.8191 20.0148 17.807 20.0115C17.784 20.0057 17.7611 19.9985 17.7386 19.9903C17.7262 19.9852 17.7143 19.9805 17.7025 19.9756C17.684 19.9686 17.6655 19.9601 17.6472 19.9509C17.6308 19.9419 17.6146 19.933 17.5988 19.9237C17.5864 19.917 17.5742 19.9094 17.5622 19.9014L17.5536 19.8949C17.5254 19.8755 17.4986 19.8545 17.4734 19.8321L17.472 19.8314L13.1031 15.9054C12.79 15.6241 12.7912 15.169 13.1057 14.889C13.3917 14.6344 13.8381 14.6121 14.1522 14.8215L14.2421 14.8913L17.2379 17.5837L17.2381 6.27345C17.2381 5.8765 17.5978 5.5547 18.0416 5.5547ZM7.40439 2.95421L7.42004 2.95381C7.44623 2.95426 7.47239 2.95585 7.49844 2.95858L7.40439 2.95421C7.44816 2.95421 7.49112 2.95734 7.533 2.96337C7.5559 2.96617 7.57889 2.9704 7.60168 2.97554C7.61508 2.97906 7.62874 2.98248 7.64224 2.98622C7.66334 2.99154 7.68376 2.99801 7.70392 3.00524C7.7185 3.01104 7.73325 3.01681 7.74777 3.02296C7.76502 3.02963 7.78202 3.03749 7.79874 3.04592C7.81306 3.0538 7.82724 3.06149 7.84113 3.06955C7.85542 3.07714 7.86972 3.08604 7.88376 3.09539L7.97401 3.16537L12.3429 7.09134C12.656 7.37268 12.6548 7.82777 12.3403 8.10781C12.0543 8.36239 11.6079 8.38466 11.2938 8.17524L11.2039 8.10546L8.20722 5.41194L8.20793 16.7233C8.20793 17.1203 7.84817 17.4421 7.40439 17.4421C6.99759 17.4421 6.66139 17.1717 6.60818 16.8209L6.60085 16.7233L6.60014 5.4129L3.60513 8.10546C3.32052 8.36122 2.87417 8.38534 2.55906 8.17721L2.46876 8.10781C2.18282 7.85323 2.15586 7.45398 2.38854 7.17212L2.46613 7.09134L6.83501 3.16537L6.88232 3.12656C6.89343 3.11806 6.90481 3.10983 6.91643 3.10187L6.83501 3.16537C6.87443 3.12995 6.91694 3.09898 6.96178 3.07244C6.97742 3.06373 6.99368 3.05483 7.01031 3.04644C7.02574 3.03812 7.04144 3.03082 7.05733 3.02401C7.07302 3.0178 7.08894 3.01153 7.10512 3.00572C7.12567 2.99786 7.14675 2.9912 7.16805 2.98535C7.18101 2.98224 7.19428 2.97892 7.20768 2.97591C7.22927 2.9706 7.25109 2.96655 7.27303 2.96331C7.28623 2.96184 7.29916 2.96023 7.31219 2.95889C7.33699 2.95585 7.36244 2.9543 7.3879 2.95383C7.39353 2.95426 7.39895 2.95421 7.40439 2.95421Z" fill="black"/>
</svg>
