<svg width="33" height="33" viewBox="0 0 33 33" fill="none" xmlns="http://www.w3.org/2000/svg">
<g clip-path="url(#clip0_172_70768)">
<path d="M16.5 33C25.6127 33 33 25.6127 33 16.5C33 7.3873 25.6127 0 16.5 0C7.3873 0 0 7.3873 0 16.5C0 25.6127 7.3873 33 16.5 33Z" fill="#F0F0F0"/>
<path d="M31.9737 10.761H1.02629C0.363 12.5485 0 14.4818 0 16.5001C0 18.5184 0.363 20.4517 1.02629 22.2392H31.9738C32.637 20.4517 33 18.5184 33 16.5001C33 14.4818 32.637 12.5485 31.9737 10.761Z" fill="#0052B4"/>
<path d="M16.5 0C11.499 0 7.01807 2.22518 3.99219 5.7391H29.0078C25.982 2.22518 21.501 0 16.5 0Z" fill="#D80027"/>
<path d="M29.0079 27.261H3.99219C7.01807 30.7749 11.499 33.0001 16.5 33.0001C21.501 33.0001 25.982 30.7749 29.0079 27.261Z" fill="#D80027"/>
</g>
<defs>
<clipPath id="clip0_172_70768">
<rect width="33" height="33" fill="white"/>
</clipPath>
</defs>
</svg>
