<svg width="40" height="40" viewBox="0 0 40 40" fill="none" xmlns="http://www.w3.org/2000/svg">
<path d="M33.75 19.5832H33.5167C32.5583 15.2999 28.7333 12.0832 24.1667 12.0832H21.25V11.0165C22.7 10.4999 23.75 9.12487 23.75 7.49987C23.75 5.43321 22.0667 3.74987 20 3.74987C17.9333 3.74987 16.25 5.43321 16.25 7.49987C16.25 9.12487 17.3 10.4999 18.75 11.0165V12.0832H15.8333C11.2667 12.0832 7.44167 15.2999 6.48333 19.5832H6.25C4.875 19.5832 3.75 20.7082 3.75 22.0832V24.5832C3.75 25.9582 4.875 27.0832 6.25 27.0832H6.70833C7.69167 30.1499 10.175 32.5332 13.2917 33.3999C13.0583 33.8915 12.9167 34.4249 12.9167 34.9999C12.9167 35.6915 13.475 36.2499 14.1667 36.2499H25.8333C26.525 36.2499 27.0833 35.6915 27.0833 34.9999C27.0833 34.4249 26.9417 33.8832 26.7083 33.3999C29.825 32.5415 32.3083 30.1499 33.2917 27.0832H33.75C35.125 27.0832 36.25 25.9582 36.25 24.5832V22.0832C36.25 20.7082 35.125 19.5832 33.75 19.5832ZM20 6.24987C20.6917 6.24987 21.25 6.80821 21.25 7.49987C21.25 8.19154 20.6917 8.74987 20 8.74987C19.3083 8.74987 18.75 8.19154 18.75 7.49987C18.75 6.80821 19.3083 6.24987 20 6.24987ZM24.1667 31.2499H15.8333C11.925 31.2499 8.75 28.0749 8.75 24.1665V21.6665C8.75 17.7582 11.925 14.5832 15.8333 14.5832H24.1667C28.075 14.5832 31.25 17.7582 31.25 21.6665V24.1665C31.25 28.0749 28.075 31.2499 24.1667 31.2499Z" fill="white"/>
<path d="M15.4167 17.9165C14.0417 17.9165 12.9167 19.0415 12.9167 20.4165V22.9165C12.9167 24.2915 14.0417 25.4165 15.4167 25.4165C16.7917 25.4165 17.9167 24.2915 17.9167 22.9165V20.4165C17.9167 19.0415 16.7917 17.9165 15.4167 17.9165Z" fill="white"/>
<path d="M24.5833 17.9165C23.2083 17.9165 22.0833 19.0415 22.0833 20.4165V22.9165C22.0833 24.2915 23.2083 25.4165 24.5833 25.4165C25.9583 25.4165 27.0833 24.2915 27.0833 22.9165V20.4165C27.0833 19.0415 25.9583 17.9165 24.5833 17.9165Z" fill="white"/>
<path d="M11.275 6.18321L13.775 7.01654C13.9083 7.05821 14.0417 7.08321 14.1667 7.08321C14.6917 7.08321 15.175 6.74987 15.35 6.22487C15.5667 5.56654 15.2167 4.85821 14.5583 4.64154L12.0583 3.80821C11.4083 3.59154 10.7 3.94154 10.475 4.59987C10.25 5.25821 10.6083 5.96654 11.2667 6.18321H11.275Z" fill="white"/>
<path d="M11.6667 11.2499C11.8 11.2499 11.9333 11.2332 12.0583 11.1832L14.5583 10.3499C15.2167 10.1332 15.5667 9.42487 15.35 8.76654C15.1333 8.10821 14.425 7.75821 13.7667 7.97487L11.2667 8.80821C10.6083 9.02487 10.2583 9.73321 10.475 10.3915C10.65 10.9165 11.1333 11.2499 11.6583 11.2499H11.6667Z" fill="white"/>
<path d="M25.8333 7.08321C25.9667 7.08321 26.1 7.06654 26.225 7.01654L28.725 6.18321C29.3833 5.96654 29.7333 5.25821 29.5167 4.59987C29.3 3.94154 28.5917 3.59154 27.9333 3.80821L25.4333 4.64154C24.775 4.85821 24.425 5.56654 24.6417 6.22487C24.8167 6.74987 25.3 7.08321 25.825 7.08321H25.8333Z" fill="white"/>
<path d="M25.4417 10.3499L27.9417 11.1832C28.075 11.2249 28.2083 11.2499 28.3333 11.2499C28.8583 11.2499 29.3417 10.9165 29.5167 10.3915C29.7333 9.73321 29.3833 9.02487 28.725 8.80821L26.225 7.97487C25.575 7.75821 24.8583 8.10821 24.6417 8.76654C24.425 9.42487 24.775 10.1332 25.4333 10.3499H25.4417Z" fill="white"/>
</svg>
