<svg width="24" height="24" viewBox="0 0 24 24" fill="none" xmlns="http://www.w3.org/2000/svg">
<path d="M17.625 2.25H6.375C5.58011 2.25247 4.81849 2.56934 4.25641 3.13141C3.69434 3.69349 3.37747 4.45511 3.375 5.25V17.25C3.37747 18.0449 3.69434 18.8065 4.25641 19.3686C4.81849 19.9307 5.58011 20.2475 6.375 20.25H7.5L6.15 22.05C6.03065 22.2091 5.97941 22.4092 6.00754 22.6061C6.03567 22.803 6.14087 22.9807 6.3 23.1C6.42882 23.1993 6.58739 23.2521 6.75 23.25C6.86643 23.25 6.98127 23.2229 7.08541 23.1708C7.18955 23.1187 7.28014 23.0431 7.35 22.95L9.375 20.25H14.625L16.65 22.95C16.7199 23.0431 16.8104 23.1187 16.9146 23.1708C17.0187 23.2229 17.1336 23.25 17.25 23.25C17.4126 23.2521 17.5712 23.1993 17.7 23.1C17.7788 23.0409 17.8452 22.9669 17.8954 22.8821C17.9455 22.7974 17.9785 22.7036 17.9925 22.6061C18.0064 22.5086 18.001 22.4093 17.9765 22.3139C17.9521 22.2185 17.9091 22.1288 17.85 22.05L16.5 20.25H17.625C18.4199 20.2475 19.1815 19.9307 19.7436 19.3686C20.3057 18.8065 20.6225 18.0449 20.625 17.25V5.25C20.6225 4.45511 20.3057 3.69349 19.7436 3.13141C19.1815 2.56934 18.4199 2.25247 17.625 2.25ZM7.875 17.25C7.6525 17.25 7.43499 17.184 7.24998 17.0604C7.06498 16.9368 6.92078 16.7611 6.83564 16.5555C6.75049 16.35 6.72821 16.1238 6.77162 15.9055C6.81502 15.6873 6.92217 15.4868 7.0795 15.3295C7.23684 15.1722 7.43729 15.065 7.65552 15.0216C7.87375 14.9782 8.09995 15.0005 8.30552 15.0856C8.51109 15.1708 8.68679 15.315 8.8104 15.5C8.93402 15.685 9 15.9025 9 16.125C9 16.4234 8.88147 16.7095 8.6705 16.9205C8.45952 17.1315 8.17337 17.25 7.875 17.25ZM11.25 11.25H4.875V7.5H11.25V11.25ZM16.125 17.25C15.9025 17.25 15.685 17.184 15.5 17.0604C15.315 16.9368 15.1708 16.7611 15.0856 16.5555C15.0005 16.35 14.9782 16.1238 15.0216 15.9055C15.065 15.6873 15.1722 15.4868 15.3295 15.3295C15.4868 15.1722 15.6873 15.065 15.9055 15.0216C16.1238 14.9782 16.35 15.0005 16.5555 15.0856C16.7611 15.1708 16.9368 15.315 17.0604 15.5C17.184 15.685 17.25 15.9025 17.25 16.125C17.25 16.4234 17.1315 16.7095 16.9205 16.9205C16.7095 17.1315 16.4234 17.25 16.125 17.25ZM19.125 11.25H12.75V7.5H19.125V11.25Z" fill="#1E1E1E"/>
</svg>
