<svg width="274" height="266" viewBox="0 0 274 266" fill="none" xmlns="http://www.w3.org/2000/svg">
<mask id="path-1-outside-1_32_4178" maskUnits="userSpaceOnUse" x="0" y="0" width="274" height="266" fill="black">
<rect fill="white" width="274" height="266"/>
<path fill-rule="evenodd" clip-rule="evenodd" d="M12 24C12 17.3726 17.3726 12 24 12H250C256.627 12 262 17.3726 262 24V197.418C262 197.418 262 197.418 262 197.418C253.581 197.418 246.756 202.389 246.756 208.521C246.756 214.653 253.581 219.624 262 219.624C262 219.624 262 219.624 262 219.624V241.536C262 248.164 256.627 253.536 250 253.536H24C17.3726 253.536 12 248.164 12 241.536V219.569C19.7036 219.012 25.7202 214.278 25.7202 208.521C25.7202 202.763 19.7036 198.029 12 197.473V24Z"/>
</mask>
<path fill-rule="evenodd" clip-rule="evenodd" d="M12 24C12 17.3726 17.3726 12 24 12H250C256.627 12 262 17.3726 262 24V197.418C262 197.418 262 197.418 262 197.418C253.581 197.418 246.756 202.389 246.756 208.521C246.756 214.653 253.581 219.624 262 219.624C262 219.624 262 219.624 262 219.624V241.536C262 248.164 256.627 253.536 250 253.536H24C17.3726 253.536 12 248.164 12 241.536V219.569C19.7036 219.012 25.7202 214.278 25.7202 208.521C25.7202 202.763 19.7036 198.029 12 197.473V24Z" fill="white"/>
<path d="M262 197.418V209.418H274V197.418H262ZM262 219.624H274V207.624H262V219.624ZM12 219.569L11.1349 207.6L0 208.405V219.569H12ZM12 197.473H0V208.637L11.1349 209.441L12 197.473ZM24 0C10.7452 0 0 10.7451 0 24H24V24V0ZM250 0H24V24H250V0ZM274 24C274 10.7452 263.255 0 250 0V24H274ZM274 197.418V24H250V197.418H274ZM262 209.418C262 209.418 262 209.418 262 209.418C262 209.418 262 209.418 262 209.418H262C262 209.418 262 209.418 262 209.418C262 209.418 262 209.418 262 209.418H262C262 209.418 262 209.418 262 209.418C262 209.418 262 209.418 262 209.418V185.418C262 185.418 262 185.418 262 185.418C262 185.418 262 185.418 262 185.418H262C262 185.418 262 185.418 262 185.418C262 185.418 262 185.418 262 185.418H262C262 185.418 262 185.418 262 185.418C262 185.418 262 185.418 262 185.418V209.418ZM258.756 208.521C258.756 209.28 258.531 209.881 258.331 210.225C258.153 210.531 258.061 210.534 258.286 210.37C258.781 210.009 260.055 209.418 262 209.418V185.418C255.526 185.418 249.178 187.312 244.156 190.97C239.145 194.62 234.756 200.677 234.756 208.521H258.756ZM262 207.624C260.055 207.624 258.781 207.032 258.286 206.672C258.061 206.508 258.153 206.51 258.331 206.816C258.531 207.16 258.756 207.761 258.756 208.521H234.756C234.756 216.364 239.145 222.422 244.156 226.071C249.178 229.729 255.526 231.624 262 231.624V207.624ZM262 207.624C262 207.624 262 207.624 262 207.624C262 207.624 262 207.624 262 207.624H262C262 207.624 262 207.624 262 207.624C262 207.624 262 207.624 262 207.624H262C262 207.624 262 207.624 262 207.624C262 207.624 262 207.624 262 207.624V231.624C262 231.624 262 231.624 262 231.624C262 231.624 262 231.624 262 231.624H262C262 231.624 262 231.624 262 231.624C262 231.624 262 231.624 262 231.624H262C262 231.624 262 231.624 262 231.624C262 231.624 262 231.624 262 231.624V207.624ZM274 241.536V219.624H250V241.536H274ZM250 265.536C263.255 265.536 274 254.791 274 241.536H250V241.536V265.536ZM24 265.536H250V241.536H24V265.536ZM0 241.536C0 254.791 10.7451 265.536 24 265.536V241.536H24H0ZM0 219.569V241.536H24V219.569H0ZM13.7202 208.521C13.7202 207.814 13.9164 207.236 14.1109 206.877C14.2878 206.551 14.4061 206.502 14.2548 206.623C13.9076 206.9 12.8676 207.475 11.1349 207.6L12.8651 231.538C18.836 231.106 24.6561 229.035 29.2431 225.367C33.8481 221.685 37.7202 215.867 37.7202 208.521H13.7202ZM11.1349 209.441C12.8676 209.567 13.9076 210.141 14.2548 210.419C14.4061 210.54 14.2878 210.49 14.1109 210.164C13.9164 209.806 13.7202 209.228 13.7202 208.521H37.7202C37.7202 201.174 33.8481 195.357 29.2431 191.674C24.6561 188.006 18.836 185.935 12.8651 185.504L11.1349 209.441ZM0 24V197.473H24V24H0Z" fill="black" mask="url(#path-1-outside-1_32_4178)"/>
</svg>
