<svg width="23" height="24" viewBox="0 0 23 24" fill="none" xmlns="http://www.w3.org/2000/svg">
<mask id="mask0_68_19702" style="mask-type:alpha" maskUnits="userSpaceOnUse" x="-1" y="-1" width="26" height="25">
<circle cx="12" cy="12" r="12" transform="matrix(-1.02893 0 0 1.02893 24.2586 -0.694327)" fill="#F8A0A0"/>
</mask>
<g mask="url(#mask0_68_19702)">
<ellipse cx="4.72941" cy="8.89412" rx="4.72941" ry="8.89412" transform="matrix(-1.02382 -0.102407 -0.102407 1.02382 18.4632 2.15985)" fill="#CEA465"/>
<path d="M8.27985 7.36761C8.27985 7.97535 8.37141 8.56102 8.49774 9.11074C8.69803 9.9823 8.90183 10.2264 9.15141 10.7086C9.55991 11.3213 9.64931 11.5758 10.3169 12.1206C10.3615 12.157 10.4087 12.1947 10.4588 12.2338C11.0594 12.7042 11.6807 13.1054 12.4198 13.1054C13.1589 13.1054 13.7801 12.7042 14.3808 12.2338C14.4113 12.21 14.4412 12.1858 14.4706 12.1612C14.8699 11.8277 15.1692 11.4325 15.4703 10.9265C15.7669 10.4279 16.1794 9.87493 16.3418 9.256C16.3673 9.15872 16.3903 9.06204 16.4108 8.96548C16.5191 8.45469 16.5597 7.94686 16.5597 7.36761C16.5597 7.221 16.5557 7.07567 16.548 6.93183C16.3873 3.96651 14.6004 1.62981 12.4198 1.62981C10.1334 1.62981 8.27985 4.19871 8.27985 7.36761Z" fill="#FFDFC1"/>
<path d="M12.4198 13.1054C13.1589 13.1054 13.7801 12.7042 14.3808 12.2338C14.4113 12.21 14.4412 12.1858 14.4706 12.1612C14.4706 12.1612 13.9672 13.8081 14.4706 14.6306C14.6049 14.85 14.8892 15.1391 14.8892 15.1391L16.3418 15.2843L19.3923 15.7927L17.5039 19.86L13.945 22.9831L11.4756 23.9273L9.65983 21.8937L6.75461 17.2453L6.60935 15.357L8.13459 15.2843L9.51457 15.1391C9.51457 15.1391 9.97668 14.8912 10.1682 14.6306C10.4914 14.1911 10.3861 13.2507 10.3861 13.2507L10.3169 12.1206C10.3615 12.157 10.4087 12.1947 10.4588 12.2338C11.0594 12.7042 11.6807 13.1054 12.4198 13.1054Z" fill="#FFDFC1"/>
<path d="M16.5597 7.36761C16.5597 7.221 16.5557 7.07567 16.548 6.93183C16.548 6.93183 16.7193 6.78451 16.8502 6.78657C16.9771 6.78856 17.0681 6.81612 17.1408 6.93183C17.2134 7.04754 17.2374 7.24112 17.2134 7.44024C17.1784 7.73016 16.976 7.83036 16.8502 8.09391C16.7187 8.36962 16.7592 8.58883 16.5597 8.82022C16.5067 8.88176 16.4108 8.96548 16.4108 8.96548C16.5191 8.45469 16.5597 7.94686 16.5597 7.36761Z" fill="#FFDFC1"/>
<path d="M13.5819 2.64704C13.5819 2.41314 13.7272 2.06599 13.7272 2.06599L13.1461 2.57441C13.1461 2.57441 12.8946 2.74475 12.7103 2.7923C12.4906 2.849 12.1293 2.7923 12.1293 2.7923C12.1293 2.7923 11.78 2.61543 11.5483 2.64704C11.3969 2.66767 11.1851 2.71967 11.1851 2.71967C11.1851 2.71967 10.846 2.86729 10.6767 3.01019C10.4769 3.17887 10.4932 3.61909 10.3135 3.80912C10.1187 4.01524 9.89931 4.01551 9.7325 4.2449C9.52887 4.52492 9.67105 4.66234 9.51461 4.97121C9.3525 5.29127 9.13708 5.34349 9.07882 5.69751C9.01895 6.06135 9.09326 6.35603 9.00619 6.71434C8.94023 6.98579 8.81645 7.10747 8.71567 7.36801C8.6186 7.61897 8.54914 7.75755 8.49778 8.02168C8.42199 8.41148 8.68092 8.64294 8.71567 9.03851C8.80437 10.0482 9.29672 11.5079 9.29672 11.5079L8.20726 15.2847L6.60939 15.3574C6.60939 15.3574 5.89319 15.3607 5.51994 15.1395C5.39793 15.0672 5.3297 15.0219 5.22941 14.9216C5.12913 14.8213 5.06656 14.7618 5.01152 14.631C4.92347 14.4219 5.01152 14.2769 5.01152 14.05C5.01152 13.8515 4.97962 13.7376 5.01152 13.5416C5.05046 13.3024 5.19376 13.2003 5.22941 12.9605C5.25445 12.7922 5.22941 12.695 5.22941 12.5248V12.0164C5.22941 12.0164 5.18206 11.7008 5.22941 11.5079C5.28396 11.2859 5.51994 10.9995 5.51994 10.9995C5.51994 10.9995 5.96306 10.739 6.10098 10.4911C6.26241 10.201 6.24624 9.61955 6.24624 9.61955L6.53676 8.89325V7.87642C6.53676 7.87642 6.72323 7.37225 6.75465 7.00486C6.78406 6.66105 6.66985 6.39514 6.75465 6.06066C6.91391 5.4325 7.40833 4.68069 7.40833 4.68069C7.40833 4.68069 7.56355 3.71124 7.84411 3.22808C8.08915 2.80607 8.86093 2.28388 8.86093 2.28388C8.86093 2.28388 9.30846 1.385 9.80513 0.976538C10.1697 0.676687 10.398 0.5305 10.822 0.322865C11.0963 0.188498 11.2468 0.0815673 11.5483 0.0323433C11.7722 -0.00421934 11.9078 -0.0168807 12.1293 0.0323433C12.377 0.0873774 12.7103 0.322865 12.7103 0.322865C12.7103 0.322865 12.7879 0.220675 12.8556 0.177604C13.0231 0.0710088 13.1659 0.163876 13.364 0.177604C13.6804 0.19953 13.8617 0.223683 14.163 0.322865C14.7458 0.514776 15.0088 0.789998 15.4703 1.19443C16.0002 1.6588 16.0893 1.99295 16.4871 2.57441C16.8885 3.16103 17.2575 3.50558 17.5039 4.17227C17.7259 4.77249 17.6222 5.28329 17.7218 5.9154C17.8194 6.53434 17.9817 6.74218 18.0124 7.36801C18.0485 8.10459 17.7747 8.59347 17.7218 9.32903C17.6663 10.1012 17.8261 10.4503 17.7218 11.2174C17.6295 11.8972 17.2824 12.2745 17.2861 12.9605C17.2896 13.6184 17.4155 14.0488 17.7218 14.631C17.9834 15.128 18.7387 15.6479 18.7387 15.6479L14.9619 15.1395L14.8166 12.3795L17.5039 7.36801L17.1408 6.35119C17.1408 6.35119 16.8618 6.55779 16.705 6.71434C16.432 6.98696 16.124 7.51327 16.124 7.51327V6.20593C16.124 5.95065 16.1911 5.79853 16.124 5.55225C16.0432 5.25626 15.9062 5.11448 15.6882 4.89858C15.5148 4.72687 15.1798 4.53543 15.1798 4.53543C15.1798 4.53543 14.7058 3.89237 14.3808 3.59123C14.1455 3.37312 13.873 3.51393 13.7272 3.22808C13.6209 3.01973 13.5819 2.88093 13.5819 2.64704Z" fill="#CEA465"/>
<path d="M5.81043 15.0667C6.66859 15.0443 7.91671 15.2846 7.91671 15.2846C7.91671 15.2846 8.01161 16.0453 8.1346 16.5193C8.49797 17.9195 9.11162 18.5606 9.87773 19.7876C10.716 21.1302 12.2745 23.056 12.2745 23.056C12.2745 23.056 13.9676 21.1638 14.8166 19.7876C15.5159 18.6541 15.8922 17.9909 16.3418 16.7372C16.5418 16.1797 16.7776 15.2846 16.7776 15.2846C16.7776 15.2846 17.6244 15.3868 18.1576 15.5024C18.7472 15.6303 19.0652 15.7103 19.6363 15.8539L19.6828 15.8656C20.0498 15.9579 20.2205 16.0507 20.5544 16.2288C20.8558 16.3894 21.0443 16.4906 21.2807 16.7372C21.6027 17.0729 21.787 17.2714 22.007 17.6814C22.3388 18.2996 22.3093 18.7356 22.4428 19.4245C22.6275 20.3778 22.6728 20.9248 22.7333 21.8939C22.8023 22.998 22.7333 24.7265 22.7333 24.7265H19.1744L19.6828 21.1676L19.0292 24.7265H3.92204L3.70415 21.3855L3.77678 24.7265H1.96253e-06V23.056C1.96253e-06 23.056 0.12038 21.5426 0.290523 20.5866C0.443626 19.7263 0.516646 19.2346 0.798936 18.4077C1.02876 17.7344 1.09498 17.3037 1.52524 16.7372C1.88997 16.2569 2.162 16.0164 2.68733 15.7203C3.13278 15.4693 3.42845 15.4181 3.92204 15.2846C4.61183 15.0979 5.08786 15.0855 5.79987 15.0669L5.81043 15.0667Z" fill="#651B34"/>
</g>
</svg>
