<svg width="24" height="24" viewBox="0 0 24 24" fill="none" xmlns="http://www.w3.org/2000/svg">
<path d="M20.0999 6.94C20.0999 7.48 19.8099 7.97 19.3499 8.22L17.6099 9.16L16.1299 9.95L13.0599 11.61C12.7299 11.79 12.3699 11.88 11.9999 11.88C11.6299 11.88 11.2699 11.79 10.9399 11.61L4.6499 8.22C4.1899 7.97 3.8999 7.48 3.8999 6.94C3.8999 6.4 4.1899 5.91 4.6499 5.66L6.6199 4.6L8.1899 3.75L10.9399 2.27C11.5999 1.91 12.3999 1.91 13.0599 2.27L19.3499 5.66C19.8099 5.91 20.0999 6.4 20.0999 6.94Z" fill="white"/>
<path d="M9.90021 12.7901L4.05022 9.87014C3.60021 9.64014 3.08021 9.67014 2.65021 9.93014C2.22021 10.1901 1.97021 10.6501 1.97021 11.1501V16.6801C1.97021 17.6401 2.50021 18.5001 3.36021 18.9301L9.21021 21.8501C9.41021 21.9501 9.63022 22.0001 9.85021 22.0001C10.1102 22.0001 10.3702 21.9301 10.6002 21.7801C11.0302 21.5201 11.2802 21.0601 11.2802 20.5601V15.0301C11.2902 14.0801 10.7602 13.2201 9.90021 12.7901Z" fill="white"/>
<path d="M22.03 11.1501V16.6801C22.03 17.6301 21.5 18.4901 20.64 18.9201L14.79 21.8501C14.59 21.9501 14.37 22.0001 14.15 22.0001C13.89 22.0001 13.63 21.9301 13.39 21.7801C12.97 21.5201 12.71 21.0601 12.71 20.5601V15.0401C12.71 14.0801 13.24 13.2201 14.1 12.7901L16.25 11.7201L17.75 10.9701L19.95 9.87013C20.4 9.64013 20.92 9.66013 21.35 9.93013C21.77 10.1901 22.03 10.6501 22.03 11.1501Z" fill="white"/>
<path d="M17.6101 9.16L16.1301 9.95L6.62012 4.6L8.19012 3.75L17.3701 8.93C17.4701 8.99 17.5501 9.07 17.6101 9.16Z" fill="white"/>
<path d="M17.75 10.9702V13.2402C17.75 13.6502 17.41 13.9902 17 13.9902C16.59 13.9902 16.25 13.6502 16.25 13.2402V11.7202L17.75 10.9702Z" fill="white"/>
</svg>
