<svg width="15" height="16" viewBox="0 0 15 16" fill="none" xmlns="http://www.w3.org/2000/svg">
<path d="M1.875 5.2C1.875 4.0799 1.875 3.51984 2.07936 3.09202C2.25913 2.71569 2.54596 2.40973 2.89877 2.21799C3.29985 2 3.8249 2 4.875 2H10.125C11.1751 2 11.7001 2 12.1012 2.21799C12.454 2.40973 12.7409 2.71569 12.9206 3.09202C13.125 3.51984 13.125 4.0799 13.125 5.2V10.8C13.125 11.9201 13.125 12.4802 12.9206 12.908C12.7409 13.2843 12.454 13.5903 12.1012 13.782C11.7001 14 11.1751 14 10.125 14H4.875C3.8249 14 3.29985 14 2.89877 13.782C2.54596 13.5903 2.25913 13.2843 2.07936 12.908C1.875 12.4802 1.875 11.9201 1.875 10.8V5.2Z" stroke="black" stroke-width="2" stroke-linecap="round" stroke-linejoin="round"/>
</svg>
