<svg width="17" height="15" viewBox="0 0 17 15" fill="none" xmlns="http://www.w3.org/2000/svg">
<path d="M3.14848 8.91132C3.42959 8.96754 3.73882 8.99565 4.04804 8.99565C4.32916 8.99565 4.63838 8.96754 4.94761 8.91132V13.3248L4.30105 14.2525C4.1886 14.4493 3.87937 14.4493 3.76693 14.2525L3.14848 13.3248V8.91132ZM4.04804 0C6.26884 0 8.09609 1.82724 8.09609 4.04804C8.09609 6.29696 6.26884 8.09609 4.04804 8.09609C1.79913 8.09609 0 6.29696 0 4.04804C0 1.82724 1.79913 0 4.04804 0ZM4.04804 2.13647C4.21671 2.13647 4.38538 1.99591 4.38538 1.79913C4.38538 1.63046 4.21671 1.46179 4.04804 1.46179C2.61436 1.46179 1.46179 2.64247 1.46179 4.04804C1.46179 4.24482 1.60235 4.38538 1.79913 4.38538C1.9678 4.38538 2.13647 4.24482 2.13647 4.04804C2.13647 3.00792 2.97981 2.13647 4.04804 2.13647ZM14.5388 11.5864C14.5388 11.145 14.6587 10.838 14.8986 10.6652C15.1385 10.4829 15.4311 10.3918 15.7766 10.3918C16.1124 10.3918 16.4003 10.4829 16.6402 10.6652C16.88 10.838 17 11.145 17 11.5864C17 12.0086 16.88 12.3156 16.6402 12.5076C16.4003 12.6899 16.1124 12.781 15.7766 12.781C15.4311 12.781 15.1385 12.6899 14.8986 12.5076C14.6587 12.3156 14.5388 12.0086 14.5388 11.5864ZM14.5388 5.786C14.5388 5.34462 14.6587 5.03756 14.8986 4.86485C15.1385 4.68254 15.4311 4.59138 15.7766 4.59138C16.1124 4.59138 16.4003 4.68254 16.6402 4.86485C16.88 5.03756 17 5.34462 17 5.786C17 6.2082 16.88 6.51525 16.6402 6.70716C16.4003 6.88947 16.1124 6.98063 15.7766 6.98063C15.4311 6.98063 15.1385 6.88947 14.8986 6.70716C14.6587 6.51525 14.5388 6.2082 14.5388 5.786Z" fill="#79829B"/>
</svg>
