<svg width="24" height="25" viewBox="0 0 24 25" fill="none" xmlns="http://www.w3.org/2000/svg">
<path fill-rule="evenodd" clip-rule="evenodd" d="M12 3.06926C7.02944 3.06926 3 7.192 3 12.2777C3 17.3633 7.02944 21.4861 12 21.4861C16.9706 21.4861 21 17.3633 21 12.2777C21 7.192 16.9706 3.06926 12 3.06926ZM1 12.2777C1 6.06186 5.92487 1.02295 12 1.02295C18.0751 1.02295 23 6.06186 23 12.2777C23 18.4935 18.0751 23.5324 12 23.5324C5.92487 23.5324 1 18.4935 1 12.2777Z" fill="#4D8F92"/>
<path fill-rule="evenodd" clip-rule="evenodd" d="M8.77783 9.7765C8.77783 8.08128 10.121 6.70703 11.7778 6.70703H12.2223C13.8791 6.70703 15.2223 8.08128 15.2223 9.7765V10.0039H13.2223V9.7765C13.2223 9.21143 12.7746 8.75334 12.2223 8.75334H11.7778C11.2255 8.75334 10.7778 9.21143 10.7778 9.7765V9.87602C10.7778 10.2636 10.9918 10.6178 11.3306 10.7912L13.5639 11.9337C14.5803 12.4536 15.2223 13.5164 15.2223 14.6791V14.7786C15.2223 16.4738 13.8791 17.8481 12.2223 17.8481H11.7778C10.121 17.8481 8.77783 16.4738 8.77783 14.7786V14.5512H10.7778V14.7786C10.7778 15.3437 11.2255 15.8018 11.7778 15.8018H12.2223C12.7746 15.8018 13.2223 15.3437 13.2223 14.7786V14.6791C13.2223 14.2915 13.0083 13.9373 12.6695 13.7639L10.4362 12.6214C9.41984 12.1015 8.77783 11.0386 8.77783 9.87602V9.7765Z" fill="#4D8F92"/>
<path fill-rule="evenodd" clip-rule="evenodd" d="M13 5.45654V7.73022H11V5.45654H13Z" fill="#4D8F92"/>
<path fill-rule="evenodd" clip-rule="evenodd" d="M13 16.8252V19.0989H11V16.8252H13Z" fill="#4D8F92"/>
</svg>
