<svg width="29" height="29" viewBox="0 0 29 29" fill="none" xmlns="http://www.w3.org/2000/svg">
<path d="M28.9997 14.4979C29.0088 13.545 28.8043 12.6021 28.4014 11.7386C27.9984 10.8752 27.4071 10.1131 26.6711 9.50831C26.7556 8.54114 26.6272 7.56718 26.295 6.65501C25.9628 5.74284 25.4348 4.91464 24.7481 4.22871C24.0815 3.54725 23.2704 3.02429 22.3748 2.69842C21.4791 2.37256 20.5218 2.2521 19.5734 2.34595C18.9546 1.61435 18.1845 1.02576 17.3164 0.620762C16.4483 0.215763 15.5027 0.00399377 14.5448 5.59448e-05C13.587 -0.00388188 12.6397 0.200106 11.7682 0.597953C10.8968 0.9958 10.1219 1.57804 9.49714 2.30452C8.54262 2.22545 7.58233 2.35446 6.68246 2.68266C5.78259 3.01085 4.96455 3.53042 4.28475 4.20555C3.60494 4.88068 3.07955 5.6953 2.74478 6.59325C2.41001 7.4912 2.27383 8.45111 2.34564 9.40681C1.61416 10.026 1.02565 10.7967 0.620694 11.6656C0.215741 12.5345 0.00399145 13.481 5.58855e-05 14.4397C-0.00387968 15.3984 0.200092 16.3466 0.597898 17.2188C0.995704 18.091 1.57787 18.8665 2.30424 19.4917C2.21971 20.4589 2.34807 21.4328 2.6803 22.345C3.01253 23.2572 3.54055 24.0854 4.22718 24.7713C4.89393 25.4526 5.70502 25.9755 6.60064 26.3014C7.49625 26.6272 8.45355 26.7477 9.40192 26.6541C10.0207 27.3856 10.7908 27.9742 11.6589 28.3792C12.5271 28.7842 13.4727 28.996 14.4305 28.9999C15.3883 29.0039 16.3357 28.7999 17.2071 28.402C18.0785 28.0042 18.8534 27.422 19.4782 26.6955C20.4444 26.7798 21.4173 26.6512 22.3285 26.3187C23.2397 25.9863 24.067 25.4581 24.7523 24.7713C25.4324 24.1036 25.9545 23.2919 26.2801 22.3958C26.6057 21.4998 26.7266 20.5421 26.6338 19.5932C27.3761 18.9688 27.9726 18.1892 28.3814 17.3092C28.7901 16.4293 29.0012 15.4683 28.9997 14.4979ZM9.64824 10.867C9.64824 10.546 9.7757 10.238 10.0026 10.011C10.2295 9.78395 10.5372 9.6564 10.8581 9.6564C11.179 9.6564 11.4867 9.78395 11.7136 10.011C11.9405 10.238 12.0679 10.546 12.0679 10.867C12.0679 11.1881 11.9405 11.4961 11.7136 11.7231C11.4867 11.9501 11.179 12.0777 10.8581 12.0777C10.5372 12.0777 10.2295 11.9501 10.0026 11.7231C9.7757 11.4961 9.64824 11.1881 9.64824 10.867ZM13.0739 18.8082C12.9857 18.9404 12.8723 19.0539 12.7403 19.1422C12.6083 19.2306 12.4601 19.2921 12.3043 19.3231C12.1485 19.3542 11.9882 19.3542 11.8324 19.3233C11.6766 19.2923 11.5284 19.231 11.3963 19.1427C11.2642 19.0544 11.1507 18.941 11.0624 18.8089C10.9741 18.6767 10.9127 18.5285 10.8817 18.3726C10.8506 18.2167 10.8506 18.0562 10.8815 17.9003C10.9124 17.7444 10.9738 17.5961 11.062 17.4639L15.8952 10.196C15.9834 10.0638 16.0968 9.95025 16.2288 9.8619C16.3609 9.77355 16.509 9.71209 16.6648 9.68103C16.8206 9.64997 16.9809 9.64991 17.1367 9.68087C17.2925 9.71183 17.4407 9.77319 17.5728 9.86145C17.7049 9.94972 17.8184 10.0632 17.9067 10.1953C17.995 10.3274 18.0564 10.4757 18.0874 10.6315C18.1185 10.7874 18.1185 10.9479 18.0876 11.1038C18.0567 11.2597 17.9953 11.408 17.9071 11.5402L13.0739 18.8082ZM18.1141 19.3467C17.7932 19.3467 17.4855 19.2192 17.2586 18.9921C17.0317 18.7651 16.9043 18.4571 16.9043 18.1361C16.9043 17.815 17.0317 17.5071 17.2586 17.28C17.4855 17.053 17.7932 16.9254 18.1141 16.9254C18.4189 16.9473 18.7042 17.084 18.9124 17.3078C19.1206 17.5317 19.2364 17.8261 19.2364 18.1319C19.2364 18.4377 19.1206 18.7322 18.9124 18.956C18.7042 19.1799 18.4189 19.3165 18.1141 19.3384V19.3467Z" fill="#4D8F92"/>
</svg>
