<svg width="66" height="12" viewBox="0 0 66 12" fill="none" xmlns="http://www.w3.org/2000/svg">
<path d="M6.47759 0.309134C6.39316 0.121028 6.20618 0 6 0C5.79382 0 5.60684 0.121028 5.52241 0.309134L4.04775 3.59478L0.467227 3.98194C0.262239 4.00411 0.0893545 4.14454 0.0256404 4.34063C-0.0380737 4.53672 0.0192514 4.75195 0.172062 4.89037L2.8412 7.30817L2.10297 10.8331C2.06071 11.0349 2.14084 11.2427 2.30764 11.3639C2.47445 11.4851 2.69686 11.4971 2.87572 11.3945L6 9.60317L9.12428 11.3945C9.30314 11.4971 9.52555 11.4851 9.69236 11.3639C9.85916 11.2427 9.93929 11.0349 9.89703 10.8331L9.1588 7.30817L11.8279 4.89037C11.9807 4.75195 12.0381 4.53672 11.9744 4.34063C11.9106 4.14454 11.7378 4.00411 11.5328 3.98194L7.95225 3.59478L6.47759 0.309134Z" fill="#4D8F92" fill-opacity="0.5"/>
<path d="M51.4776 0.309134C51.3932 0.121028 51.2062 0 51 0C50.7938 0 50.6068 0.121028 50.5224 0.309134L49.0478 3.59478L45.4672 3.98194C45.2622 4.00411 45.0894 4.14454 45.0256 4.34063C44.9619 4.53672 45.0193 4.75195 45.1721 4.89037L47.8412 7.30817L47.103 10.8331C47.0607 11.0349 47.1408 11.2427 47.3076 11.3639C47.4744 11.4851 47.6969 11.4971 47.8757 11.3945L51 9.60317L54.1243 11.3945C54.3031 11.4971 54.5256 11.4851 54.6924 11.3639C54.8592 11.2427 54.9393 11.0349 54.897 10.8331L54.1588 7.30817L56.8279 4.89037C56.9807 4.75195 57.0381 4.53672 56.9744 4.34063C56.9106 4.14454 56.7378 4.00411 56.5328 3.98194L52.9522 3.59478L51.4776 0.309134Z" fill="#4D8F92" fill-opacity="0.5"/>
<path d="M36.4776 0.309134C36.3932 0.121028 36.2062 0 36 0C35.7938 0 35.6068 0.121028 35.5224 0.309134L34.0478 3.59478L30.4672 3.98194C30.2622 4.00411 30.0894 4.14454 30.0256 4.34063C29.9619 4.53672 30.0193 4.75195 30.1721 4.89037L32.8412 7.30817L32.103 10.8331C32.0607 11.0349 32.1408 11.2427 32.3076 11.3639C32.4744 11.4851 32.6969 11.4971 32.8757 11.3945L36 9.60317L39.1243 11.3945C39.3031 11.4971 39.5256 11.4851 39.6924 11.3639C39.8592 11.2427 39.9393 11.0349 39.897 10.8331L39.1588 7.30817L41.8279 4.89037C41.9807 4.75195 42.0381 4.53672 41.9744 4.34063C41.9106 4.14454 41.7378 4.00411 41.5328 3.98194L37.9522 3.59478L36.4776 0.309134Z" fill="#4D8F92" fill-opacity="0.5"/>
<path d="M21.4776 0.309134C21.3932 0.121028 21.2062 0 21 0C20.7938 0 20.6068 0.121028 20.5224 0.309134L19.0478 3.59478L15.4672 3.98194C15.2622 4.00411 15.0894 4.14454 15.0256 4.34063C14.9619 4.53672 15.0193 4.75195 15.1721 4.89037L17.8412 7.30817L17.103 10.8331C17.0607 11.0349 17.1408 11.2427 17.3076 11.3639C17.4744 11.4851 17.6969 11.4971 17.8757 11.3945L21 9.60317L24.1243 11.3945C24.3031 11.4971 24.5256 11.4851 24.6924 11.3639C24.8592 11.2427 24.9393 11.0349 24.897 10.8331L24.1588 7.30817L26.8279 4.89037C26.9807 4.75195 27.0381 4.53672 26.9744 4.34063C26.9106 4.14454 26.7378 4.00411 26.5328 3.98194L22.9522 3.59478L21.4776 0.309134Z" fill="#4D8F92" fill-opacity="0.5"/>
<path d="M66 0C65.7938 0 65.6068 0.126688 65.5224 0.323591L64.0478 3.76289L60.4672 4.16816C60.2622 4.19136 60.0894 4.33836 60.0256 4.54362C59.9619 4.74888 60.0193 4.97417 60.1721 5.11907L62.8412 7.64994L62.103 11.3397C62.0607 11.551 62.1408 11.7685 62.3076 11.8953C62.4744 12.0222 62.6969 12.0348 62.8757 11.9274L66 10.0523V0Z" fill="#4D8F92" fill-opacity="0.5"/>
</svg>
