<svg width="26" height="26" viewBox="0 0 26 26" fill="none" xmlns="http://www.w3.org/2000/svg">
<path fill-rule="evenodd" clip-rule="evenodd" d="M4 1H22C23.6569 1 25 2.34315 25 4V22C25 23.6569 23.6569 25 22 25H4C2.34315 25 1 23.6569 1 22V4C1 2.34315 2.34315 1 4 1Z" stroke="#79829B" stroke-width="2" stroke-linecap="round" stroke-linejoin="round"/>
<path d="M1 7H25" stroke="#79829B" stroke-width="2" stroke-linecap="round" stroke-linejoin="round"/>
<path d="M13.5006 13C13.5006 13.2761 13.2768 13.5 13.0006 13.5C12.7245 13.5 12.5006 13.2761 12.5006 13C12.5006 12.7239 12.7245 12.5 13.0006 12.5C13.2768 12.5 13.5006 12.7239 13.5006 13Z" fill="#79829B" stroke="#79829B" stroke-width="2"/>
<path d="M7.50049 13C7.50049 13.2761 7.27663 13.5 7.00049 13.5C6.72435 13.5 6.50049 13.2761 6.50049 13C6.50049 12.7239 6.72435 12.5 7.00049 12.5C7.27663 12.5 7.50049 12.7239 7.50049 13Z" fill="#79829B" stroke="#79829B" stroke-width="2"/>
<path d="M19.5004 13C19.5004 13.2761 19.2765 13.5 19.0004 13.5C18.7242 13.5 18.5004 13.2761 18.5004 13C18.5004 12.7239 18.7242 12.5 19.0004 12.5C19.2765 12.5 19.5004 12.7239 19.5004 13Z" fill="#79829B" stroke="#79829B" stroke-width="2"/>
<path d="M13.5006 19C13.5006 19.2761 13.2768 19.5 13.0006 19.5C12.7245 19.5 12.5006 19.2761 12.5006 19C12.5006 18.7239 12.7245 18.5 13.0006 18.5C13.2768 18.5 13.5006 18.7239 13.5006 19Z" fill="#79829B" stroke="#79829B" stroke-width="2"/>
<path d="M7.50049 19C7.50049 19.2761 7.27663 19.5 7.00049 19.5C6.72435 19.5 6.50049 19.2761 6.50049 19C6.50049 18.7239 6.72435 18.5 7.00049 18.5C7.27663 18.5 7.50049 18.7239 7.50049 19Z" fill="#79829B" stroke="#79829B" stroke-width="2"/>
<path d="M19.5004 19C19.5004 19.2761 19.2765 19.5 19.0004 19.5C18.7242 19.5 18.5004 19.2761 18.5004 19C18.5004 18.7239 18.7242 18.5 19.0004 18.5C19.2765 18.5 19.5004 18.7239 19.5004 19Z" fill="#79829B" stroke="#79829B" stroke-width="2"/>
</svg>
