<svg width="44" height="44" viewBox="0 0 44 44" fill="none" xmlns="http://www.w3.org/2000/svg">
<rect width="40" height="40" rx="4" fill="#FBE38D"/>
<path d="M10 12V11.625C9.79289 11.625 9.625 11.7929 9.625 12H10ZM30 12H30.375C30.375 11.7929 30.2071 11.625 30 11.625V12ZM30 15V15.375C30.2071 15.375 30.375 15.2071 30.375 15H30ZM30 19H30.375C30.375 18.7929 30.2071 18.625 30 18.625V19ZM30 21V21.375C30.2071 21.375 30.375 21.2071 30.375 21H30ZM30 25H30.375C30.375 24.7929 30.2071 24.625 30 24.625V25ZM30 28V28.375C30.2071 28.375 30.375 28.2071 30.375 28H30ZM10 28H9.625C9.625 28.2071 9.79289 28.375 10 28.375V28ZM10 25V24.625C9.79289 24.625 9.625 24.7929 9.625 25H10ZM10 21H9.625C9.625 21.2071 9.79289 21.375 10 21.375V21ZM10 19V18.625C9.79289 18.625 9.625 18.7929 9.625 19H10ZM10 15H9.625C9.625 15.2071 9.79289 15.375 10 15.375V15ZM14 11.625H10V12.375H14V11.625ZM26 11.625H14V12.375H26V11.625ZM30 11.625H26V12.375H30V11.625ZM30.375 15V12H29.625V15H30.375ZM28.375 17C28.375 16.1025 29.1025 15.375 30 15.375V14.625C28.6883 14.625 27.625 15.6883 27.625 17H28.375ZM30 18.625C29.1025 18.625 28.375 17.8975 28.375 17H27.625C27.625 18.3117 28.6883 19.375 30 19.375V18.625ZM30.375 21V19H29.625V21H30.375ZM28.375 23C28.375 22.1025 29.1025 21.375 30 21.375V20.625C28.6883 20.625 27.625 21.6883 27.625 23H28.375ZM30 24.625C29.1025 24.625 28.375 23.8975 28.375 23H27.625C27.625 24.3117 28.6883 25.375 30 25.375V24.625ZM30.375 28V25H29.625V28H30.375ZM26 28.375H30V27.625H26V28.375ZM14 28.375H26V27.625H14V28.375ZM10 28.375H14V27.625H10V28.375ZM9.625 25V28H10.375V25H9.625ZM11.625 23C11.625 23.8975 10.8975 24.625 10 24.625V25.375C11.3117 25.375 12.375 24.3117 12.375 23H11.625ZM10 21.375C10.8975 21.375 11.625 22.1025 11.625 23H12.375C12.375 21.6883 11.3117 20.625 10 20.625V21.375ZM9.625 19V21H10.375V19H9.625ZM11.625 17C11.625 17.8975 10.8975 18.625 10 18.625V19.375C11.3117 19.375 12.375 18.3117 12.375 17H11.625ZM10 15.375C10.8975 15.375 11.625 16.1025 11.625 17H12.375C12.375 15.6883 11.3117 14.625 10 14.625V15.375ZM9.625 12V15H10.375V12H9.625ZM13.625 12V28H14.375V12H13.625ZM25.625 12V28H26.375V12H25.625Z" fill="#9A8333"/>
<path d="M19.5 23.0437V16.6507H18.9524C18.673 16.6507 18.4476 16.6671 18.2762 16.7C18.1111 16.7263 17.9873 16.7756 17.9048 16.8479C17.8286 16.9136 17.7841 17.0056 17.7714 17.1239L17.6667 18H17V17C17 16.4477 17.4477 16 18 16H22C22.5523 16 23 16.4477 23 17V18H22.3333L22.2286 17.1239C22.2222 17.0056 22.1778 16.9136 22.0952 16.8479C22.0127 16.7756 21.8857 16.7263 21.7143 16.7C21.5492 16.6671 21.327 16.6507 21.0476 16.6507H20.5V23.0437C20.5 23.1883 20.573 23.2836 20.719 23.3296C20.8651 23.3756 21.1333 23.3986 21.3429 23.3986H21.5143V24H18.4857V23.3986H18.6476C18.8635 23.3986 19.1349 23.3756 19.281 23.3296C19.427 23.2836 19.5 23.1883 19.5 23.0437Z" fill="#9A8333"/>
<circle cx="38.5" cy="38.5" r="5.5" fill="#2B3031"/>
<path d="M36 38.5C36.8333 39.3333 38 40.5 38 40.5L41.5 37" stroke="white"/>
</svg>
