<svg width="24" height="24" viewBox="0 0 24 24" fill="none" xmlns="http://www.w3.org/2000/svg">
<path d="M6.00051 23.998C6.00192 23.8965 6.00427 23.7951 6.00427 23.6936C6.00427 17.3584 6.00427 11.0232 6.00427 4.68805C6.00427 4.01216 6.26401 3.75148 6.93661 3.75101C10.3189 3.75101 13.7016 3.75101 17.0838 3.75101C17.7212 3.75101 17.9964 4.02531 17.9964 4.66222C17.9964 10.9664 17.9974 17.2701 17.9908 23.5743C17.9908 23.7157 17.9053 23.8571 17.8602 23.998H15.5165C15.4709 23.8801 15.3864 23.7627 15.3859 23.6448C15.377 22.1211 15.3821 20.5979 15.3774 19.0742C15.377 18.8835 15.4399 18.7736 15.6231 18.7036C15.989 18.5632 16.182 18.225 16.1214 17.8728C16.0604 17.5163 15.7414 17.2528 15.3516 17.2452C15.0782 17.2401 14.8049 17.2438 14.531 17.2438C12.5776 17.2438 10.6246 17.2424 8.67118 17.2448C8.27476 17.2452 7.95631 17.4961 7.88303 17.8502C7.80882 18.2076 8.00234 18.5609 8.37809 18.7032C8.5763 18.7783 8.62468 18.9028 8.62374 19.0977C8.61857 20.6054 8.62374 22.1136 8.61481 23.6213C8.61387 23.7472 8.5298 23.8726 8.48424 23.9985H5.99957L6.00051 23.998ZM7.87223 7.10743C7.87223 7.24787 7.86706 7.3883 7.87317 7.52827C7.89149 7.93033 8.2198 8.2469 8.61669 8.25113C9.01546 8.25488 9.35693 7.94536 9.37524 7.54565C9.38793 7.26571 9.38746 6.98437 9.37524 6.70443C9.35833 6.30379 9.01969 5.99238 8.62092 5.99426C8.22027 5.99567 7.8929 6.30707 7.8727 6.71101C7.86613 6.84299 7.87176 6.97591 7.87129 7.10837L7.87223 7.10743ZM11.2474 7.11025C11.2474 7.25068 11.2418 7.39112 11.2484 7.53109C11.2672 7.93268 11.5974 8.24831 11.9952 8.25066C12.3939 8.25301 12.7335 7.94254 12.7509 7.54189C12.7631 7.26196 12.7631 6.98061 12.7509 6.70068C12.7331 6.3005 12.393 5.9905 11.9938 5.99332C11.5936 5.99614 11.2676 6.30848 11.2484 6.71289C11.2423 6.84487 11.2474 6.97779 11.2474 7.11025ZM14.6226 7.10884C14.6226 7.24928 14.617 7.38971 14.6236 7.52968C14.6424 7.93127 14.9716 8.24784 15.369 8.25066C15.7677 8.25394 16.1083 7.94395 16.1261 7.5433C16.1388 7.26337 16.1383 6.98202 16.1261 6.70209C16.1087 6.30191 15.7691 5.99097 15.3704 5.99332C14.9697 5.99567 14.6433 6.30754 14.6236 6.71148C14.617 6.84346 14.6226 6.97639 14.6226 7.10884ZM7.87223 10.857C7.87223 10.9974 7.86706 11.1378 7.87317 11.2778C7.89102 11.6799 8.21933 11.9969 8.61669 12.0011C9.01546 12.0054 9.3574 11.6958 9.37571 11.2961C9.38839 11.0162 9.38793 10.7349 9.37571 10.4549C9.3588 10.0543 9.02063 9.74287 8.62186 9.74428C8.22121 9.74568 7.89337 10.0571 7.87317 10.4606C7.8666 10.5925 7.87223 10.7255 7.87176 10.8579L7.87223 10.857ZM11.247 10.8631C11.247 10.9955 11.2432 11.128 11.2479 11.2604C11.262 11.6761 11.5912 11.9993 11.9985 12.0007C12.4071 12.0021 12.7401 11.6822 12.7528 11.2661C12.7608 11.0016 12.7617 10.7363 12.7528 10.4714C12.7387 10.0571 12.4005 9.73911 11.9914 9.74334C11.5912 9.74756 11.2672 10.0608 11.2488 10.4657C11.2427 10.5977 11.2479 10.7306 11.2474 10.8631H11.247ZM16.1294 10.8823C16.1294 10.7499 16.1332 10.6174 16.1285 10.485C16.1139 10.0665 15.7879 9.74521 15.3798 9.74334C14.9688 9.74146 14.6363 10.0585 14.6236 10.4751C14.6156 10.7396 14.6151 11.0049 14.6236 11.2698C14.6367 11.6832 14.9749 12.004 15.3821 12.0007C15.7804 11.9974 16.1078 11.6827 16.1271 11.2797C16.1336 11.1477 16.128 11.0148 16.1285 10.8823H16.1294ZM9.37853 14.6356C9.37853 14.4952 9.38417 14.3548 9.37759 14.2148C9.35833 13.8118 9.03096 13.4966 8.63313 13.4934C8.22215 13.4896 7.88726 13.8057 7.87411 14.2223C7.86566 14.4867 7.86613 14.7521 7.87411 15.017C7.88632 15.4313 8.22215 15.7526 8.62984 15.7507C9.03801 15.7488 9.36397 15.4275 9.379 15.0095C9.38323 14.885 9.37947 14.7601 9.379 14.6356H9.37853ZM12.7537 14.6201C12.7537 14.4877 12.7584 14.3552 12.7528 14.2228C12.7349 13.8076 12.4015 13.4901 11.9924 13.4934C11.5922 13.4971 11.2634 13.8095 11.2493 14.2143C11.2394 14.4867 11.2394 14.7601 11.2493 15.0321C11.2643 15.4332 11.5988 15.7483 11.9966 15.7502C12.3954 15.7521 12.7293 15.4407 12.7523 15.04C12.7603 14.9001 12.7537 14.7596 12.7542 14.6192L12.7537 14.6201ZM14.6222 14.6061C14.6222 14.7465 14.617 14.8869 14.6231 15.0269C14.641 15.4289 14.9688 15.7465 15.3657 15.7507C15.7738 15.7554 16.113 15.4369 16.1271 15.0231C16.1364 14.7507 16.1379 14.4774 16.1261 14.2054C16.1092 13.8043 15.772 13.4929 15.3732 13.4938C14.9726 13.4948 14.6442 13.8057 14.6236 14.2092C14.617 14.3411 14.6226 14.4741 14.6222 14.6065V14.6061Z" fill="#1E1E1E"/>
<path d="M0 9.18483C0.196801 8.7405 0.544372 8.60805 1.01688 8.61885C2.04738 8.64328 3.07836 8.6259 4.10933 8.62637C4.43858 8.62637 4.49588 8.68179 4.49588 9.00165C4.49588 13.8747 4.49729 18.7482 4.49025 23.6213C4.49025 23.7471 4.40476 23.8725 4.35967 23.998H0.56269C0.309057 23.8768 0.116014 23.6945 0 23.4353V9.18483ZM3.00321 12.7456C3.00321 12.6131 3.0079 12.4807 3.00227 12.3482C2.98442 11.933 2.65094 11.6155 2.24184 11.6188C1.84166 11.6225 1.51288 11.9349 1.49878 12.3397C1.48892 12.6122 1.48892 12.8855 1.49878 13.1575C1.51381 13.5586 1.84823 13.8738 2.24606 13.8756C2.64483 13.8775 2.97878 13.5661 3.0018 13.1655C3.00978 13.0255 3.00321 12.8851 3.00368 12.7446L3.00321 12.7456ZM3.00227 16.14C3.00227 15.9921 3.00978 15.8436 3.00086 15.6962C2.97596 15.2974 2.63685 14.9888 2.23761 14.9944C1.8473 14.9996 1.51757 15.3049 1.49972 15.6962C1.48704 15.9761 1.48798 16.2574 1.49878 16.5374C1.51428 16.938 1.85152 17.2518 2.24982 17.2513C2.64859 17.2513 2.97972 16.939 3.00133 16.5374C3.00837 16.4054 3.00227 16.2725 3.0018 16.14H3.00227ZM3.00321 19.496C3.00321 19.3635 3.0079 19.2311 3.00227 19.0986C2.98442 18.6834 2.65094 18.3659 2.24184 18.3692C1.84166 18.3729 1.51288 18.6853 1.49878 19.0902C1.48892 19.3626 1.48892 19.6359 1.49878 19.9079C1.51381 20.309 1.84823 20.6242 2.24606 20.626C2.64483 20.6279 2.97878 20.3165 3.0018 19.9159C3.00978 19.7759 3.00321 19.6355 3.00368 19.495L3.00321 19.496Z" fill="#1E1E1E"/>
<path d="M19.6413 23.9976C19.5958 23.8722 19.5107 23.7463 19.5103 23.6209C19.5037 18.7474 19.5046 13.8738 19.5046 9.00032C19.5046 8.68751 19.5638 8.62645 19.8682 8.62598C20.9696 8.62504 22.0706 8.62457 23.172 8.62598C23.6948 8.62692 23.9958 8.93128 23.9958 9.46015C23.9968 14.0213 23.9939 18.5825 24.0001 23.1437C24.0005 23.5697 23.7929 23.8233 23.4378 23.9971H19.6409L19.6413 23.9976ZM22.5041 12.7555C22.5041 12.623 22.5083 12.4906 22.5031 12.3581C22.4881 11.9401 22.1612 11.6198 21.7526 11.6184C21.3421 11.617 21.0105 11.935 20.9983 12.352C20.9903 12.6165 20.9898 12.8818 20.9983 13.1468C21.0114 13.5507 21.3388 13.8691 21.7352 13.8757C22.1443 13.8828 22.4825 13.5657 22.5017 13.1529C22.5078 13.0209 22.5027 12.888 22.5031 12.7555H22.5041ZM22.5041 16.1307C22.5041 15.9983 22.5083 15.8658 22.5031 15.7333C22.4881 15.3153 22.1612 14.995 21.7526 14.9936C21.3421 14.9926 21.0109 15.3102 20.9983 15.7277C20.9903 15.9921 20.9898 16.2575 20.9983 16.5224C21.0114 16.9264 21.3388 17.2443 21.7357 17.2509C22.1448 17.2575 22.4825 16.9409 22.5022 16.5281C22.5083 16.3961 22.5031 16.2632 22.5036 16.1307H22.5041ZM20.9968 19.4881C20.9968 19.6205 20.9931 19.753 20.9973 19.8854C21.0114 20.3016 21.3402 20.6247 21.7469 20.6261C22.1556 20.6275 22.4891 20.3081 22.5022 19.892C22.5102 19.6276 22.5107 19.3622 22.5022 19.0973C22.4881 18.6825 22.1509 18.3646 21.7418 18.3688C21.3416 18.3725 21.017 18.6858 20.9983 19.0907C20.9922 19.2227 20.9973 19.3556 20.9968 19.4881Z" fill="#1E1E1E"/>
<path d="M11.977 2.2426C10.7347 2.2426 9.49283 2.2426 8.25049 2.2426C7.94003 2.2426 7.88038 2.18248 7.87991 1.87483C7.87897 1.50754 7.87568 1.14024 7.88085 0.773408C7.88742 0.318277 8.19507 0.00311463 8.64832 0.00264494C10.8826 -0.00111259 13.117 -0.000642897 15.3513 0.00264494C15.8022 0.00311463 16.1131 0.320626 16.1202 0.773408C16.1258 1.14822 16.123 1.52351 16.1211 1.89832C16.1197 2.17356 16.0511 2.24213 15.7735 2.2426C14.5077 2.24354 13.2424 2.2426 11.9766 2.2426H11.977Z" fill="#1E1E1E"/>
</svg>
