<svg width="25" height="22" viewBox="0 0 25 22" fill="none" xmlns="http://www.w3.org/2000/svg">
<g clip-path="url(#clip0_223_4767)">
<path d="M16.909 18.5622C16.909 18.7446 16.8281 18.9194 16.6839 19.0484C16.5398 19.1773 16.3443 19.2497 16.1404 19.2497H2.30567C2.10182 19.2497 1.90633 19.1773 1.76219 19.0484C1.61805 18.9194 1.53707 18.7446 1.53707 18.5622C1.53707 18.3799 1.61805 18.205 1.76219 18.0761C1.90633 17.9472 2.10182 17.8748 2.30567 17.8748H16.1404C16.3443 17.8748 16.5398 17.9472 16.6839 18.0761C16.8281 18.205 16.909 18.3799 16.909 18.5622ZM24.1984 8.02863C24.1786 8.12653 24.1352 8.21942 24.0714 8.30087C24.0075 8.38233 23.9246 8.45041 23.8284 8.50042L9.28194 16.0653C8.56828 16.4403 7.73774 16.5978 6.91534 16.5141C6.09295 16.4304 5.32319 16.11 4.72195 15.6012L1.10041 12.5644C0.91406 12.4081 0.774173 12.2128 0.693389 11.9961C0.612606 11.7793 0.593473 11.548 0.637719 11.323C0.681965 11.098 0.788196 10.8864 0.946812 10.7073C1.10543 10.5282 1.31143 10.3873 1.5462 10.2974L3.15583 9.68042C3.25149 9.64374 3.35449 9.62482 3.45856 9.62482C3.56264 9.62482 3.66564 9.64374 3.7613 9.68042L6.09956 10.5767L7.53444 9.84344L5.37516 8.10519C5.18333 7.95079 5.03805 7.75568 4.9527 7.53784C4.86735 7.32 4.84469 7.08644 4.88681 6.85871C4.92892 6.63097 5.03446 6.41638 5.19368 6.23473C5.3529 6.05308 5.56069 5.9102 5.79789 5.81928L7.38312 5.2117C7.55613 5.14535 7.75036 5.13813 7.92892 5.19142L13.362 6.81133L17.3233 4.72685C18.1127 4.30727 19.0444 4.15582 19.9484 4.30016C20.8523 4.44451 21.6679 4.87502 22.2462 5.513L24.037 7.47072C24.1075 7.54772 24.1584 7.63749 24.1862 7.73381C24.2141 7.83014 24.2183 7.93072 24.1984 8.02863ZM22.2762 7.71719L21.0566 6.38371C20.7096 6.00093 20.2202 5.74262 19.6779 5.656C19.1356 5.56937 18.5765 5.66021 18.1029 5.91192L13.8402 8.15487C13.7456 8.20461 13.6402 8.23567 13.531 8.24596C13.4219 8.25625 13.3115 8.24552 13.2074 8.21451L7.71996 6.57844L6.40345 7.08315L9.35294 9.45758C9.44332 9.53035 9.5131 9.62125 9.55657 9.72283C9.60003 9.8244 9.61593 9.93375 9.60296 10.0419C9.58999 10.15 9.54852 10.2539 9.48196 10.3449C9.4154 10.4359 9.32564 10.5115 9.22007 10.5655L6.52998 11.9405C6.42676 11.9932 6.31125 12.0239 6.19255 12.0299C6.07385 12.036 5.9552 12.0174 5.84593 11.9754L3.45856 11.0602L2.15176 11.5612L5.77339 14.5982C6.13413 14.9036 6.59599 15.0958 7.08944 15.146C7.5829 15.1962 8.08123 15.1016 8.50941 14.8766L22.2762 7.71719Z" fill="black"/>
</g>
<defs>
<clipPath id="clip0_223_4767">
<rect width="24.2736" height="21.7122" fill="white" transform="scale(1.01325)"/>
</clipPath>
</defs>
</svg>
