<svg width="274" height="258" viewBox="0 0 274 258" fill="none" xmlns="http://www.w3.org/2000/svg">
<mask id="path-1-outside-1_32_4215" maskUnits="userSpaceOnUse" x="0" y="0" width="274" height="258" fill="black">
<rect fill="white" width="274" height="258"/>
<path fill-rule="evenodd" clip-rule="evenodd" d="M12 24C12 17.3726 17.3726 12 24 12H250C256.627 12 262 17.3726 262 24V191.09C262 191.09 262 191.09 262 191.09C253.581 191.09 246.756 195.891 246.756 201.814C246.756 207.736 253.581 212.538 262 212.538C262 212.538 262 212.538 262 212.538V233.293C262 239.921 256.627 245.293 250 245.293H24C17.3726 245.293 12 239.921 12 233.293V212.485C19.7036 211.947 25.7202 207.375 25.7202 201.814C25.7202 196.253 19.7036 191.681 12 191.143V24Z"/>
</mask>
<path fill-rule="evenodd" clip-rule="evenodd" d="M12 24C12 17.3726 17.3726 12 24 12H250C256.627 12 262 17.3726 262 24V191.09C262 191.09 262 191.09 262 191.09C253.581 191.09 246.756 195.891 246.756 201.814C246.756 207.736 253.581 212.538 262 212.538C262 212.538 262 212.538 262 212.538V233.293C262 239.921 256.627 245.293 250 245.293H24C17.3726 245.293 12 239.921 12 233.293V212.485C19.7036 211.947 25.7202 207.375 25.7202 201.814C25.7202 196.253 19.7036 191.681 12 191.143V24Z" fill="white"/>
<path d="M262 191.09V203.09H274V191.09H262ZM262 212.538H274V200.538H262V212.538ZM12 212.485L11.1643 200.514L0 201.293V212.485H12ZM12 191.143H0V202.334L11.1643 203.114L12 191.143ZM24 0C10.7452 0 0 10.7452 0 24H24V24V0ZM250 0H24V24H250V0ZM274 24C274 10.7452 263.255 0 250 0V24V24H274ZM274 191.09V24H250V191.09H274ZM262 203.09C262 203.09 262 203.09 262 203.09C262 203.09 262 203.09 262 203.09H262C262 203.09 262 203.09 262 203.09C262 203.09 262 203.09 262 203.09H262C262 203.09 262 203.09 262 203.09C262 203.09 262 203.09 262 203.09V179.09C262 179.09 262 179.09 262 179.09C262 179.09 262 179.09 262 179.09H262C262 179.09 262 179.09 262 179.09C262 179.09 262 179.09 262 179.09H262C262 179.09 262 179.09 262 179.09C262 179.09 262 179.09 262 179.09V203.09ZM258.756 201.814C258.756 202.713 258.481 203.419 258.238 203.823C258.021 204.184 257.896 204.207 258.125 204.046C258.631 203.69 259.963 203.09 262 203.09V179.09C255.617 179.09 249.328 180.891 244.316 184.416C239.339 187.918 234.756 193.889 234.756 201.814H258.756ZM262 200.538C259.963 200.538 258.631 199.938 258.125 199.582C257.896 199.421 258.021 199.444 258.238 199.805C258.481 200.208 258.756 200.915 258.756 201.814H234.756C234.756 209.739 239.339 215.71 244.316 219.211C249.328 222.737 255.617 224.538 262 224.538V200.538ZM262 200.538C262 200.538 262 200.538 262 200.538C262 200.538 262 200.538 262 200.538H262C262 200.538 262 200.538 262 200.538C262 200.538 262 200.538 262 200.538H262C262 200.538 262 200.538 262 200.538C262 200.538 262 200.538 262 200.538V224.538C262 224.538 262 224.538 262 224.538C262 224.538 262 224.538 262 224.538H262C262 224.538 262 224.538 262 224.538C262 224.538 262 224.538 262 224.538H262C262 224.538 262 224.538 262 224.538C262 224.538 262 224.538 262 224.538V200.538ZM274 233.293V212.538H250V233.293H274ZM250 257.293C263.255 257.293 274 246.548 274 233.293H250V233.293V257.293ZM24 257.293H250V233.293H24V257.293ZM0 233.293C0 246.548 10.7451 257.293 24 257.293V233.293H24H0ZM0 212.485V233.293H24V212.485H0ZM13.7202 201.814C13.7202 200.976 13.96 200.297 14.1961 199.877C14.4111 199.494 14.5635 199.42 14.4139 199.536C14.0667 199.804 12.982 200.387 11.1643 200.514L12.8357 224.456C18.7216 224.045 24.497 222.073 29.084 218.53C33.6741 214.985 37.7202 209.237 37.7202 201.814H13.7202ZM11.1643 203.114C12.982 203.241 14.0667 203.824 14.4139 204.092C14.5635 204.207 14.4111 204.134 14.1961 203.751C13.96 203.33 13.7202 202.651 13.7202 201.814H37.7202C37.7202 194.391 33.6741 188.643 29.0839 185.097C24.497 181.555 18.7216 179.583 12.8357 179.172L11.1643 203.114ZM0 24V191.143H24V24H0Z" fill="black" mask="url(#path-1-outside-1_32_4215)"/>
</svg>
